<?xml version="1.0" encoding="utf-8"?>
<!-- Generator: Adobe Illustrator 16.0.0, SVG Export Plug-In . SVG Version: 6.00 Build 0)  -->
<!DOCTYPE svg PUBLIC "-//W3C//DTD SVG 1.1//EN" "http://www.w3.org/Graphics/SVG/1.1/DTD/svg11.dtd">
<svg version="1.1" id="Слой_1" xmlns="http://www.w3.org/2000/svg" xmlns:xlink="http://www.w3.org/1999/xlink" x="0px" y="0px"
	 width="250px" height="40px" viewBox="0 0 250 40" enable-background="new 0 0 250 40" xml:space="preserve">
<g>
	<circle fill="#5CA7DC" cx="22.8" cy="19.8" r="18.8"/>
	<circle fill="#466D93" cx="73.401" cy="19.8" r="18.801"/>
	<circle fill="#3C5A96" cx="124.002" cy="19.8" r="18.8"/>
	<circle fill="#3689C9" cx="174.603" cy="19.8" r="18.8"/>
	<circle fill="#FF671B" cx="225.204" cy="19.8" r="18.801"/>
	<circle fill="#E6E6E5" cx="275.805" cy="19.8" r="18.8"/>
	<path fill-rule="evenodd" clip-rule="evenodd" fill="#FFFFFF" d="M29.989,20.585c0.058-0.049,0.013,0.021,0.055-0.08l0.103-0.359
		c0.549-0.016,0.927-0.057,1.37-0.234l0.911-0.624c-0.302-0.005-0.619,0.076-1.109,0l-0.995-0.208
		c0.08-0.052,0.208-0.054,0.323-0.071c0.119-0.016,0.223-0.033,0.34-0.062c0.23-0.054,0.398-0.106,0.59-0.194l0.766-0.747
		c-0.349,0.137-0.665,0.194-1.136,0.198c-0.229,0.002-1.061-0.011-1.138-0.215c-0.091-0.241-0.09-0.469-0.279-0.922
		c-0.123-0.292-0.273-0.568-0.441-0.817c-0.346-0.513-0.776-0.938-1.282-1.267l-2.096-0.586c0.131-0.127,0.624-0.227,0.804-0.274
		c0.934-0.248,0.854-0.591,0.627-0.655c-0.289-0.081-0.993,0.187-1.308,0.281l0.563-0.598c-0.587,0.055-0.971,0.347-1.41,0.619
		l0.184-0.449c-0.555,0.187-1.553,1.505-1.831,2.035l-1.173,2.571c-0.101-0.04-0.792-0.751-1.321-1.068
		c-0.464-0.276-1.082-0.572-1.612-0.818c-1.279-0.593-2.193-0.953-3.502-1.432c-0.065,1.153,0.672,1.782,1.593,2.401l-1.122,0.146
		c0.02,0.491,0.398,1.002,0.687,1.248c0.522,0.447,0.796,0.449,1.278,0.628l0.099,0.052c-0.774,0.135-0.544,0.049-1.216,0.484
		c0.009,0.307,0.676,0.957,1.177,1.068l1.119,0.145c-0.077,0.072-0.199,0.125-0.29,0.182c-0.114,0.073-0.161,0.116-0.242,0.215
		c-0.156,0.188-0.235,0.398-0.135,0.656l1.295,0.592c-0.067,0.137-0.49,0.477-0.634,0.576c-0.775,0.537-1.646,0.914-2.757,0.961
		c-0.789,0.037-1.555-0.115-2.156-0.355c-0.696-0.279-0.981-0.512-1.513-0.922c0.156,0.268,0.51,0.641,0.725,0.867
		c2.03,2.156,5.317,3.344,8.752,2.73c2.098-0.375,3.448-1.098,4.677-1.998c0.202-0.146,0.686-0.578,0.857-0.758
		c0.534-0.551,1.01-1.143,1.357-1.822C29.645,21.504,30.005,20.794,29.989,20.585L29.989,20.585z"/>
	<g>
		<path fill-rule="evenodd" clip-rule="evenodd" fill="#FFFFFF" d="M62.391,14.313c0.12-0.099,0.27-0.168,0.452-0.217
			c0.168-0.045,0.317-0.073,0.45-0.073h0.162c0.12,0,0.266,0.007,0.434,0.02c0.265,0.01,0.457,0.018,0.578,0.018
			c0.072,0,0.301-0.01,0.686-0.038c0.193-0.012,0.367-0.015,0.524-0.007c0.155,0.005,0.294,0.007,0.414,0.007
			c0.241,0.028,0.433,0.073,0.578,0.144c0.071,0.038,0.15,0.113,0.233,0.236c0.086,0.12,0.154,0.234,0.209,0.342
			c0.055,0.111,0.122,0.263,0.208,0.461c0.082,0.199,0.144,0.326,0.18,0.385c0.458,0.988,1.023,1.969,1.696,2.947
			c0.024,0.036,0.066,0.1,0.128,0.196c0.06,0.095,0.111,0.173,0.152,0.225c0.042,0.055,0.097,0.126,0.163,0.208
			c0.066,0.085,0.129,0.151,0.189,0.198c0.061,0.048,0.123,0.1,0.189,0.154c0.065,0.054,0.136,0.087,0.207,0.099
			c0.072,0.012,0.145,0.012,0.217,0c0.337-0.061,0.524-0.763,0.56-2.112c0.013-0.227,0.019-0.438,0.019-0.631
			c0-0.891-0.09-1.503-0.271-1.841c-0.072-0.132-0.165-0.239-0.278-0.316c-0.115-0.076-0.263-0.149-0.443-0.213
			c-0.182-0.071-0.317-0.132-0.415-0.192c0.168-0.337,0.466-0.562,0.894-0.666c0.428-0.111,1.009-0.166,1.741-0.166h0.957
			c0,0,0.156,0.006,0.469,0.009c0.313,0.007,0.476,0.024,0.489,0.057l0.397,0.1c0,0,0.116,0.052,0.35,0.158
			c0.236,0.111,0.312,0.196,0.227,0.255c0.108,0.215,0.175,0.468,0.199,0.756c0,0.085,0.005,0.17,0.018,0.253
			c0,0.241-0.018,0.555-0.054,0.939c-0.048,0.506-0.073,0.819-0.073,0.939c-0.035,0.279-0.054,0.553-0.054,0.83
			c0,0.218,0.013,0.444,0.036,0.686c0.049,0.529,0.229,0.896,0.543,1.101c0.107-0.012,0.206-0.033,0.297-0.073
			c0.09-0.036,0.183-0.102,0.278-0.196c0.098-0.097,0.163-0.168,0.199-0.208c0.036-0.042,0.112-0.142,0.227-0.295
			c0.113-0.16,0.178-0.244,0.188-0.253c0.565-0.749,1.132-1.729,1.697-2.947l0.162-0.404c0,0,0.07-0.161,0.207-0.478
			c0.139-0.319,0.212-0.438,0.217-0.352c0.006,0.083,0.1,0.002,0.281-0.244c0.191-0.085,0.421-0.127,0.685-0.127h0.163
			c0.241,0,0.516,0.014,0.831,0.036c0.385,0.028,0.667,0.038,0.849,0.038c0.107,0,0.271-0.007,0.494-0.018
			c0.224-0.013,0.42-0.022,0.588-0.027c0.168-0.007,0.346-0.005,0.532,0.007c0.187,0.014,0.34,0.047,0.46,0.108
			c0.122,0.063,0.205,0.137,0.254,0.234c0.036,0.073,0.053,0.151,0.053,0.234c0,0.352-0.209,0.875-0.631,1.572
			c-0.205,0.35-0.412,0.664-0.624,0.949c-0.209,0.283-0.484,0.63-0.82,1.046c-0.337,0.417-0.56,0.695-0.668,0.841
			c-0.024,0.021-0.108,0.132-0.253,0.324s-0.249,0.338-0.315,0.433c-0.067,0.097-0.136,0.231-0.207,0.406
			c-0.073,0.177-0.103,0.336-0.091,0.48c0,0.095,0.018,0.184,0.055,0.27c0.036,0.084,0.094,0.174,0.172,0.272
			c0.077,0.094,0.138,0.17,0.179,0.215c0.042,0.049,0.124,0.125,0.244,0.236c0.121,0.105,0.192,0.176,0.217,0.199
			c0.854,0.781,1.529,1.488,2.021,2.109c0.481,0.627,0.722,1.078,0.722,1.354c0,0.398-0.307,0.646-0.92,0.74
			c-0.313,0.049-0.633,0.074-0.957,0.074c-0.252,0-0.512-0.018-0.776-0.055c-0.24-0.025-0.464-0.037-0.666-0.037
			c-0.314,0-0.585,0.029-0.813,0.092h-0.108c-0.794-0.133-1.631-0.699-2.509-1.697c-0.049-0.049-0.15-0.172-0.308-0.371
			c-0.155-0.199-0.288-0.352-0.396-0.461c-0.108-0.105-0.247-0.211-0.415-0.305c-0.168-0.1-0.33-0.133-0.488-0.109
			c-0.275,0.047-0.46,0.223-0.551,0.523c-0.089,0.299-0.144,0.658-0.162,1.074c-0.018,0.414-0.075,0.707-0.171,0.875
			c-0.157,0.291-0.632,0.432-1.427,0.432c-0.338,0-0.734-0.023-1.19-0.07c-0.938-0.096-1.79-0.336-2.555-0.723
			c-0.764-0.385-1.368-0.789-1.813-1.217c-0.446-0.428-0.933-0.984-1.463-1.672c-1.252-1.598-2.438-3.538-3.556-5.811
			c-0.035-0.072-0.103-0.208-0.198-0.407c-0.096-0.198-0.168-0.352-0.217-0.46c-0.049-0.106-0.105-0.249-0.172-0.423
			c-0.065-0.175-0.114-0.343-0.144-0.506C62.405,14.628,62.391,14.467,62.391,14.313z"/>
	</g>
	<path fill-rule="evenodd" clip-rule="evenodd" fill="#FFFFFF" d="M121.903,19.81c0.042,0.052,0.02,0.414,0.02,0.48l0.001,7.628
		h3.307c0.02-2.008,0-4.068,0-6.084c0-0.027-0.006-1.956,0.004-1.995c0.006-0.027,0.006-0.025,0.014-0.034
		c0,0,2.104,0.017,2.176-0.002l0.037-0.009l0.291-2.784h-2.511c-0.009-0.411,0.002-0.834,0.003-1.243
		c0-0.381-0.009-0.844,0.215-1.052l2.279-0.229l-0.003-2.791c-0.432-0.026-0.943-0.002-1.384-0.002c-0.457,0-0.922-0.01-1.371,0.019
		c-0.859,0.059-1.551,0.315-2.054,0.74c-0.725,1.165-1.007,0.166-1.013,4.559l-1.661,0.002l0.004,2.795L121.903,19.81L121.903,19.81
		z"/>
	<path fill-rule="evenodd" clip-rule="evenodd" fill="#FFFFFF" d="M183.287,13.116c0-0.267-0.049-0.522-0.152-0.766
		c-0.312-0.742-1.043-1.236-1.881-1.236c-4.431,0.006-8.862,0.002-13.295,0.002c-0.103,0-0.208,0.012-0.311,0.024
		c-0.48,0.063-0.884,0.279-1.207,0.638c-0.351,0.385-0.521,0.841-0.521,1.361c-0.001,0.461-0.001,0.922-0.001,1.382
		c0,3.96,0,7.916,0.001,11.875c0,0.109,0.002,0.223,0.019,0.336c0.11,0.752,0.519,1.287,1.211,1.596
		c0.251,0.113,0.517,0.158,0.792,0.158c3.234-0.002,6.467-0.002,9.701-0.002c1.211,0,2.424,0.002,3.636-0.002
		c0.104,0,0.208-0.002,0.31-0.02c0.734-0.127,1.251-0.539,1.55-1.217c0.108-0.244,0.149-0.5,0.149-0.768
		c-0.002-2.225-0.001-4.451-0.001-6.675C183.286,17.575,183.285,15.344,183.287,13.116z M174.606,16.463
		c1.874,0.002,3.348,1.533,3.335,3.34c0.012,1.835-1.5,3.339-3.338,3.339c-1.801,0-3.34-1.457-3.34-3.341
		C171.264,17.946,172.771,16.46,174.606,16.463z M181.283,25.691c0,0.051,0.002,0.107-0.002,0.162
		c-0.017,0.34-0.289,0.609-0.631,0.625c-0.045,0.002-0.09,0-0.135,0c-3.938,0-7.877,0-11.815,0c-0.045,0-0.091,0-0.136,0
		c-0.288-0.002-0.615-0.232-0.639-0.635c-0.002-0.039-0.001-0.08-0.001-0.123c0-2.359,0-4.717,0-7.08c0-0.049,0-0.099,0-0.153
		c0.116-0.023,1.326-0.028,1.495-0.008c0.007,0.044-0.009,0.084-0.018,0.126c-0.094,0.402-0.146,0.811-0.143,1.224
		c0.013,1.08,0.308,2.073,0.918,2.959c0.821,1.201,1.948,1.951,3.373,2.254c0.504,0.104,1.011,0.129,1.525,0.086
		c0.761-0.072,1.481-0.283,2.144-0.666c1.404-0.814,2.28-2.014,2.623-3.602c0.098-0.449,0.124-0.906,0.098-1.365
		c-0.017-0.308-0.066-0.619-0.139-0.921c-0.008-0.031-0.011-0.062-0.017-0.094c0.108-0.018,1.349-0.02,1.489,0
		c0.002,0.022,0.007,0.046,0.008,0.072c0.003,0.035,0.001,0.073,0.001,0.108C181.283,21.004,181.283,23.348,181.283,25.691z
		 M181.17,16.169c-0.131,0.189-0.316,0.288-0.549,0.294c-0.257,0.002-0.516,0-0.773,0c-0.401,0-0.804,0-1.205,0
		c-0.098,0-0.19-0.013-0.279-0.05c-0.261-0.115-0.396-0.318-0.419-0.597c-0.003-0.033-0.001-0.066-0.001-0.097
		c0-0.618-0.002-1.239,0.001-1.858c0-0.064,0.004-0.135,0.017-0.201c0.06-0.314,0.32-0.532,0.642-0.537
		c0.455-0.004,0.913-0.002,1.369-0.002c0.216,0,0.434-0.002,0.649,0c0.307,0.007,0.563,0.199,0.639,0.492
		c0.019,0.071,0.017,0.144,0.023,0.215v0.014c0,0.322,0,0.643,0,0.964c0,0.324-0.001,0.65,0.002,0.974
		C181.285,15.923,181.25,16.053,181.17,16.169z"/>
	<g>
		<path fill-rule="evenodd" clip-rule="evenodd" fill="#FFFFFF" d="M222.729,24.842c-1.045,1.475-5.183,3.883-3.2,5.719
			c1.654,1.533,3.457-1.041,5.633-3.154c0.774,0.656,1.654,1.619,2.389,2.383c0.855,0.895,2.032,2.014,3.223,0.895
			c1.719-1.609-0.994-3.561-3.086-5.732c0.558-0.346,5.128-1.211,3.895-3.641c-1.448-2.852-3.683,1.82-8.883-0.092
			c-1.376-0.506-2.129-1.47-3.342-0.67c-1.013,0.665-0.92,2.094-0.132,2.749C220.013,23.947,221.714,24.572,222.729,24.842
			L222.729,24.842z"/>
		<path fill-rule="evenodd" clip-rule="evenodd" fill="#FFFFFF" d="M226.573,8.573c-2.852-0.604-6.313,1.004-6.987,4.491
			c-1.488,7.684,10.114,9.976,11.535,2.259C231.646,12.475,229.931,9.289,226.573,8.573z M225.352,16.686
			c-3.193-0.09-3.24-4.689-0.061-4.783C228.646,11.804,228.481,16.776,225.352,16.686z"/>
	</g>
	
		<line fill="none" stroke="#FFFFFF" stroke-width="3" stroke-linecap="round" stroke-miterlimit="10" x1="266.93" y1="20.242" x2="284.68" y2="20.242"/>
	
		<line fill="none" stroke="#FFFFFF" stroke-width="3" stroke-linecap="round" stroke-miterlimit="10" x1="275.805" y1="11.367" x2="275.805" y2="29.117"/>
</g>
</svg>
