<?xml version="1.0" encoding="utf-8"?>
<!-- Generator: Adobe Illustrator 16.0.0, SVG Export Plug-In . SVG Version: 6.00 Build 0)  -->
<!DOCTYPE svg PUBLIC "-//W3C//DTD SVG 1.1//EN" "http://www.w3.org/Graphics/SVG/1.1/DTD/svg11.dtd">
<svg version="1.1" id="Слой_1" xmlns="http://www.w3.org/2000/svg" xmlns:xlink="http://www.w3.org/1999/xlink" x="0px" y="0px"
	 width="175px" height="50px" viewBox="0 0 175 50" enable-background="new 0 0 175 50" xml:space="preserve">
<g>
	<g>
		<path fill="#FFFFFF" d="M171.901,20.994c0.068,0.03,0.152,0.066,0.152,0.066c0.054,0.005,0.087-0.002,0.096-0.012
			c0.001-0.001,0.009-0.039,0.014-0.072C172.056,20.984,171.996,20.988,171.901,20.994L171.901,20.994z M170.291,21.187
			c0,0-0.092,0.023-0.169,0.043c-0.002,0.012-0.012,0.034-0.012,0.043c0,0.041,0.027,0.056,0.087,0.089l0.552,0.59l-0.506-0.109
			l-0.311-0.025c0.001,0.012,0.002,0.024,0.002,0.036c0,0.102-0.077,0.195-0.229,0.243c0,0.108,0.033,0.182,0.075,0.276
			c0.05,0.109,0.106,0.236,0.106,0.421c0,0.07-0.008,0.148-0.028,0.238l-0.045,0.194l-0.13-0.06c0,0-0.03-0.012-0.042-0.016
			c0.018,0.016,0.197,0.179,0.197,0.179s-0.237,0.112-0.263,0.124c0,0.008-0.01,0.233-0.01,0.233s0,0.034,0,0.059
			c0.251,0.05,0.507,0.167,0.655,0.433c0.069,0.042,0.116,0.098,0.144,0.164c0.012-0.023,0.009-0.056,0.027-0.074
			c0.103-0.104,0.238-0.072,0.383-0.038c0,0,0.313,0.035,0.433,0.049c0.117-0.174,0.143-0.33,0.152-0.503
			c0.008-0.165,0.047-0.353,0.148-0.552c-0.027-0.019-0.059-0.014-0.083-0.041c-0.097-0.104-0.173-0.268-0.173-0.426
			c0-0.051,0.008-0.1,0.024-0.147c0.047-0.127,0.155-0.21,0.299-0.228l0.183-0.022l0.011,0.209l0.016,0.258
			c0.044-0.042,0.265-0.35,0.229-0.532c-0.001-0.004-0.099-0.14-0.099-0.14l-0.367-0.557l0.356,0.05c0,0,0.033,0,0.063-0.001
			c0-0.002-0.005-0.012-0.005-0.012s-0.121-0.582-0.132-0.636c-0.011,0.001-0.058,0.004-0.058,0.004
			c-0.256,0.035-0.472,0.041-0.757-0.152C170.816,21.031,170.551,21.126,170.291,21.187L170.291,21.187z"/>
		<path fill="#FFFFFF" d="M52.558,16.556c-0.05,0.116-0.105,0.249-0.105,0.249s-0.066,0.009-0.124,0.018c0,0.197,0,0.905,0,0.905
			l-0.162,0.01c-0.048,0.003-0.071,0.031-0.09,0.285c-0.014,0.184-0.029,0.393-0.182,0.516l-0.806,0.182l0.34-0.377
			c0.085-0.114,0.126-0.254,0.126-0.432c0-0.031-0.004-0.066-0.007-0.1c-0.067-0.044-0.112-0.125-0.134-0.251
			c-0.33-0.051-0.605-0.325-0.81-0.555c0,0-0.106-0.113-0.148-0.158l-0.004,0.001c-0.318,0.113-0.452,0.097-0.618-0.003
			c0,0.195,0,0.312,0,0.429c0.271,0.071,0.364,0.327,0.416,0.498l0.119,0.264l0.051,0.118l0.072,0.274
			c0.045,0.105,0.1,0.228,0.1,0.405c0,0.009-0.003,0.021-0.004,0.03c0.043,0.009,0.089,0.012,0.123,0.035
			c0.141,0.097,0.158,0.269,0.173,0.407l0.03,0.162l0.072,0.054l0.021,0.105l-0.012,0.354c-0.018,0.624-0.052,1.253-0.42,1.595
			c0.041,0.136,0.078,0.277,0.078,0.429c0,0.218-0.042,0.439-0.125,0.628c-0.113,0.258-0.29,0.438-0.514,0.522l-0.196,0.073
			c0,0-0.021-0.129-0.03-0.183c-0.013,0.008-0.032,0.019-0.032,0.019c-0.112,0.077-0.253,0.171-0.399,0.101
			c-0.146-0.07-0.158-0.248-0.162-0.307l-0.006-0.074l0.206-0.227c0.221-0.234,0.416-0.443,0.416-0.858
			c0-0.056-0.011-0.123-0.018-0.187c-0.567-0.223-0.927,0.139-1.296,0.54l-0.508,0.509l-0.098-0.224
			c-0.364-0.722-0.367-1.654-0.011-2.772l0.041-0.129l0.135,0.008c0.109,0.007,0.179-0.039,0.257-0.086c0-0.171,0-0.903,0-0.903
			l0.131-0.033c0.101-0.025,0.141-0.117,0.21-0.32c0.072-0.217,0.188-0.519,0.552-0.558c0.012-0.151,0.026-0.353,0.026-0.353
			s-0.019-0.329-0.028-0.492c-0.421-0.026-0.727,0.054-0.876,0.239c-0.091,0.105-0.221,0.083-0.325,0.066
			c0.001-0.037-0.164,0.218-0.164,0.218l-0.094,0.151c-0.001,0.001-0.313,0.317-0.313,0.317l-0.126,0.12
			c0.011-0.021,0.024,0.11,0.024,0.11l-0.005,0.295l-0.331,0.35c0.004-0.004-0.107,0.099-0.124,0.114
			c0.02,0.037,0.054,0.076,0.054,0.111c0,0.008-0.001,0.016-0.001,0.023c-0.015,0.13-0.122,0.204-0.228,0.274l-0.142,0.117
			l0.142,0.237l-0.249,0.054c-0.172,0.015-0.273,0.048-0.339,0.086c0.081,0.078,0.142,0.167,0.184,0.246l0.149,0.284
			c0,0-0.568-0.056-0.569-0.057c0.008,0,0.01,0.214,0.01,0.214l-0.019,0.427c0,0.001-0.191,0.221-0.191,0.221
			c-0.07,0.046-0.094,0.061-0.094,0.166c0,0.03-0.001,0.06-0.001,0.088c0,0.571,0.09,0.662,0.094,0.666
			c0.048,0.02,0.313,0.168,0.313,0.168c0.008,0.011,0.035,0.365,0.035,0.365s-0.005,0.045-0.01,0.078
			c0.477,0.146,0.752,0.454,0.752,0.97c0,0.008-0.002,0.017-0.002,0.025c0.048,0.011,0.098,0.023,0.098,0.023
			c0.223,0.046,0.475,0.099,0.605,0.315l0.03,0.051l-0.007,0.06c-0.008,0.056-0.011,0.104-0.011,0.144
			c0,0.121,0.026,0.176,0.046,0.201c0,0,0.017,0.008,0.028,0.013c0.109-0.159,0.269-0.265,0.502-0.259
			c0.002,0,0.521,0.03,0.521,0.03c0.73,0.05,1.362,0.092,1.865-0.288l0.077-0.059l0.052,0.025c0,0,0.052,0.021,0.104,0.041
			c-0.004-0.015-0.02-0.026-0.02-0.042c0-0.033,0.008-0.066,0.026-0.101c0.069-0.126,0.219-0.124,0.372-0.099
			c-0.003-0.013-0.12-0.479-0.12-0.479l0.089-0.016c0.188-0.156,0.307-0.178,0.468-0.086c0,0,0.036,0.008,0.061,0.013
			c0-0.015-0.001-0.029-0.001-0.045c0-0.194,0.023-0.442,0.275-0.503l0.27-0.065l-0.06,0.271c-0.007,0.03-0.012,0.053-0.012,0.07
			c0,0.047,0.037,0.058,0.174,0.091c0.146,0.037,0.39,0.098,0.428,0.364l0.005,0.035l-0.01,0.035
			c-0.01,0.036-0.016,0.061-0.016,0.079c0,0.038,0.022,0.053,0.081,0.092c0.062,0.041,0.136,0.118,0.185,0.227
			c0.197,0.077,0.29,0.074,0.454,0.038l0.615-0.093l0.007,0.219l0.01,0.091c0.038,0.044,0.195,0.055,0.311,0.063
			c0,0,0.138,0.036,0.273,0.073c0.118-0.309,0.352-0.375,0.551-0.416c0,0,0.095-0.033,0.188-0.066
			c0.002-0.127,0.056-0.268,0.15-0.341c0.003-0.002,0.288-0.04,0.288-0.04l0.078,0.007l0,0c0-0.004,0.138-0.107,0.138-0.107
			c0.068-0.089,0.16-0.163,0.308-0.185c-0.01-0.131-0.054-0.223-0.122-0.33c0,0-0.055-0.113-0.104-0.213
			c-0.657-0.021-1.332-0.039-1.495,0.339l-0.045,0.104h-1.214l0.052-0.214c0.008-0.037,0.013-0.078,0.013-0.121
			c0-0.234-0.118-0.539-0.2-0.751l-0.105-0.45c0.027-0.124,0.15-0.147,0.232-0.162l0.121-0.032c-0.117-0.084-0.171-0.164-0.171-0.25
			c0-0.051,0.02-0.106,0.055-0.167c0,0,0.01-0.044,0.02-0.083c-0.076-0.021-0.152-0.059-0.206-0.131
			c-0.045-0.06-0.067-0.132-0.067-0.217c0-0.04,0.005-0.082,0.015-0.126c0-0.002,0-0.005,0-0.008c0-0.176,0.142-0.271,0.227-0.327
			c0.06-0.04,0.083-0.055,0.083-0.095c0-0.019-0.006-0.043-0.015-0.077c-0.005-0.05-0.115-0.46-0.115-0.46
			c-0.063-0.177-0.121-0.337-0.121-0.473c0-0.057,0.011-0.11,0.035-0.159c0,0,0.065-0.056,0.116-0.098
			c-0.026-0.049-0.055-0.102-0.055-0.102s0.074,0.011,0.148,0.023c0.045-0.038,0.124-0.104,0.124-0.104s-0.001,0.075-0.001,0.124
			c0.008,0.001,0.036,0.005,0.036,0.005s0.07,0,0.139,0c0.023-0.23,0.065-0.672,0.065-0.672c0.045-0.193,0.086-0.378,0.086-0.604
			c0-0.053-0.008-0.114-0.013-0.172c-0.114-0.025-0.324-0.07-0.324-0.07c-0.247-0.035-0.486-0.115-0.666-0.272
			C52.712,16.52,52.646,16.548,52.558,16.556L52.558,16.556z"/>
		<path fill="#FFFFFF" d="M76.444,19.606c0,0-0.003,0.002-0.005,0.004c0.052-0.005,0.116-0.013,0.116-0.013L76.444,19.606
			L76.444,19.606z M71.036,16.258c-0.047,0.071-0.129,0.128-0.27,0.146c-0.021,0.055-0.043,0.109-0.043,0.109l-0.414,0.944
			l-0.106-0.014c0,0-0.238,0-0.41,0c-0.012,0.237-0.103,0.394-0.185,0.52c0,0-0.032,0.063-0.064,0.125
			c0.036,0.023,0.076,0.05,0.076,0.05l0.564,0.458l-0.142,0.104c-0.188,0.226-0.191,0.543-0.195,0.88l-0.064,0.669
			c-0.001,0.002-0.16,0.304-0.16,0.304l-0.128,0.259c-0.001,0.004-0.004,0.5-0.004,0.5l0.005,0.521
			c-0.492,0.939-0.596,2.228-0.695,3.474c0,0-0.021,0.26-0.031,0.386c0.148,0.085,0.266,0.203,0.35,0.352
			c0.173-0.002,0.304-0.035,0.384-0.105l0.325-0.281l-0.039,0.427c-0.006,0.066,0.005,0.096,0.013,0.104
			c0.002,0.001,0.044,0.037,0.224,0.005l-0.129,0.104c0.048-0.115,0.129-0.151,0.218-0.172c0-0.001-0.001-0.002-0.001-0.003
			l0.121-0.292l0.284-0.078c-0.06,0.003,0.084-0.103,0.084-0.103c0.091-0.094,0.223-0.223,0.479-0.214
			c0.047-0.149,0.156-0.236,0.231-0.274c0.059-0.029,0.085-0.042,0.085-0.079c0-0.026-0.013-0.063-0.036-0.125l-0.188-0.507
			c0,0,0.509,0.344,0.517,0.35c-0.001-0.001-0.004-0.002-0.004-0.006c0-0.035,0.066-0.153,0.066-0.153
			c0.097-0.207,0.273-0.566,0.706-0.52c0.124-0.372,0.375-0.635,0.794-0.715c-0.05,0.022-0.023-0.129-0.023-0.129
			c0.015-0.152,0.041-0.436,0.334-0.461c0,0-0.001,0-0.001,0c0-0.013,0.181-0.159,0.181-0.159c0.106-0.13,0.247-0.299,0.543-0.3
			c0-0.21,0-0.708,0-0.708l0.201-0.004l0.166-0.007l0.042-0.145l0.046-0.188c0.001-0.002,0.455-0.485,0.455-0.485l0.165-0.15
			c-0.001,0.001,0.2-0.177,0.2-0.177c0.183-0.146,0.244-0.206,0.197-0.395l-0.137-0.546l0.434,0.388
			c0.048-0.099,0.149-0.306,0.149-0.306s0.123-0.014,0.227-0.024c0.002-0.012,0.025-0.146,0.025-0.146
			c0.015-0.152,0.043-0.435,0.335-0.46l0.223-0.02l-0.036,0.221c-0.228,1.359-0.438,2.847-0.438,4.52v0.083l-0.064,0.052
			c-0.203,0.164-0.237,0.564-0.272,0.952c0,0-0.061,0.4-0.089,0.583c0.129,0.074,0.377,0.075,0.612,0.069
			c0,0,0.064-0.001,0.126-0.002c-0.015-0.053-0.069-0.25-0.069-0.25l0.049-0.142c0.065-0.066,0.15-0.061,0.263-0.05
			c0.049-0.288,0.06-0.649,0.063-1.044l0.064-1.302c0,0.001,0.075-0.354,0.075-0.354c0.071-0.292,0.151-0.624,0.077-0.896
			l-0.039-0.141l0.132-0.062c0.143-0.067,0.146-0.134,0.081-0.347l-0.02-0.298c0.047-0.141,0.208-0.119,0.315-0.104
			c0,0,0.01,0.001,0.014,0.001c0.006-0.032,0.014-0.059,0.014-0.11c0-0.16-0.024-0.385-0.038-0.515l-0.023-0.402l0.146-0.816
			c0.088-0.422,0.172-0.826,0.172-1.249c0-0.089-0.009-0.18-0.017-0.271c-0.053-0.006-0.074,0.017-0.11,0.083l-0.444,0.403
			l-0.032-0.273c0,0-0.023-0.051-0.043-0.096c-0.011,0.008-0.025,0.019-0.025,0.019c-0.103,0.083-0.262,0.207-0.486,0.213
			c-0.031,0.383-0.255,0.609-0.394,0.731l-0.077,0.072c-0.237,0.272-0.356,0.46-0.399,0.789l-0.012,0.091l-0.102,0.05l-0.263,0.133
			c0,0-0.146,0.072-0.238,0.118c-0.082,0.304-0.363,1.034-0.709,1.07c-0.03,0.058-0.063,0.12-0.063,0.12
			c-0.124,0.093-0.151,0.181-0.189,0.301l-0.235,0.419c-0.088,0.088-0.212,0.064-0.302,0.046c-0.021,0.032-0.229,0.309-0.229,0.309
			s-0.078-0.005-0.148-0.01c-0.016,0.385-0.264,0.544-0.411,0.63l-0.091,0.058c-0.001,0.001-0.18,0.222-0.18,0.222
			c-0.121,0.17-0.285,0.376-0.529,0.404c-0.019,0.213-0.051,0.41-0.154,0.531l-0.049,0.057l-0.076,0.003
			c-0.199,0.007-0.357,0.153-0.511,0.294l-0.117,0.106l-0.164,0.194c-0.141,0.189-0.318,0.417-0.653,0.427
			c0.021-0.004,0.044-0.009,0.044-0.009l0.008-0.007l-0.031,0.166c-0.014,0.138-0.031,0.31-0.173,0.406
			c-0.095,0.063-0.213,0.074-0.363,0.031l-0.137-0.039l0.118-1.487l0.046-0.822l0.108-0.038c0.14-0.049,0.193-0.21,0.265-0.47
			c0.062-0.223,0.159-0.448,0.351-0.597c-0.005-0.065-0.011-0.131-0.011-0.19c0-0.272,0.048-0.493,0.096-0.708
			c0.044-0.205,0.087-0.401,0.087-0.64c0-0.089-0.006-0.185-0.021-0.289l-0.024-0.183l0.183-0.014
			c0.033-0.002,0.05-0.024,0.078-0.218c0.022-0.152,0.05-0.342,0.198-0.45c0,0,0.076-0.014,0.149-0.027
			c0.002-0.398,0.084-0.713,0.165-1.019c0.08-0.3,0.156-0.588,0.156-0.952c0-0.092-0.009-0.192-0.02-0.294
			c-0.115-0.06-0.197-0.174-0.245-0.346c-0.195,0.01-0.321-0.057-0.415-0.112C71.203,16.273,71.145,16.245,71.036,16.258
			L71.036,16.258z"/>
		<path fill="#FFFFFF" d="M125.14,25.03c0.022-0.002,0.043-0.003,0.047-0.004c-0.005-0.001-0.017-0.024-0.026-0.04
			C125.15,25.008,125.147,25.013,125.14,25.03L125.14,25.03z M126.38,14.856c-0.086,0.104-0.183,0.221-0.341,0.207
			c-0.04-0.004-0.067-0.037-0.103-0.056c0.088,0.107,0.2,0.25,0.2,0.469c0,0.015-0.001,0.03-0.002,0.045l-0.012,0.174l-0.174-0.013
			c-0.135-0.01-0.168,0.028-0.241,0.278l-0.223,0.417l-0.279-0.172c0.034-0.151,0.017-0.218,0.001-0.233
			c-0.009-0.009-0.036-0.019-0.087-0.019c0.001,0.023,0.006,0.05,0.006,0.072c0,0.229-0.052,0.403-0.1,0.563
			c-0.044,0.148-0.085,0.281-0.085,0.453c0,0.062,0.006,0.128,0.018,0.203l0.01,0.059l-0.029,0.053
			c-0.075,0.136-0.236,0.156-0.366,0.173c0,0-0.08,0.014-0.102,0.018c0.026,0.008,0.035,0.128,0.035,0.128
			c0.009,0.061,0.018,0.126,0.018,0.192c0,0.105-0.024,0.209-0.112,0.281c-0.056,0.045-0.121,0.058-0.185,0.06
			c0,0.301,0,1.443,0,1.443l-0.179-0.005c-0.094-0.003-0.154,0.04-0.22,0.074c0.014,0.049,0.053,0.11,0.053,0.151
			c0,0.164-0.1,0.265-0.164,0.331l-0.052,0.059c0.001-0.004,0.082,0.128,0.082,0.128l0.16,0.264l-0.294,0.021
			c-0.183,0-0.419,0.25-0.482,0.449c0.088,0.01,0.184,0.067,0.213,0.226l0.013,0.066l-0.08,0.106l-0.133,0.21
			c-0.034,0.074-0.073,0.156-0.131,0.23c0.11,0.107,0.188,0.242,0.188,0.428c0,0.007-0.003,0.118-0.003,0.118l-0.116,0.069
			c-0.186,0.111-0.281,0.198-0.392,0.362c0.042,0.056,0.071,0.125,0.071,0.193c0,0.012-0.001,0.024-0.003,0.036
			c-0.007,0.027-0.224,0.192-0.224,0.192s-0.055,0.025-0.094,0.043c-0.015,0.07-0.124,0.575-0.124,0.575s-0.085,0.375-0.128,0.56
			c0.084,0.052,0.167,0.103,0.167,0.103l0.121,0.093c0.403,0.103,0.443,0.301,0.451,0.479c0.003,0.079,0.004,0.1,0.055,0.137
			c0.001-0.002,0.185-0.013,0.185-0.013c0.155-0.02,0.348-0.046,0.457,0.094c0.04,0.051,0.053,0.11,0.055,0.168
			c0.103-0.016,0.188-0.046,0.278-0.105c0.133-0.087,0.293-0.192,0.558-0.188c0.057-0.274,0.173-0.546,0.47-0.679
			c-0.012-0.026-0.033-0.074-0.033-0.074s0.071,0.008,0.142,0.015c0.095-0.033,0.329-0.116,0.329-0.116s-0.038,0.078-0.071,0.145
			c0.208,0.019,0.276-0.079,0.381-0.248c0,0,0.283-0.325,0.283-0.326c0.006,0,0.341-0.168,0.341-0.168
			c0.101-0.038,0.156-0.088,0.222-0.137c-0.01-0.024-0.027-0.076-0.027-0.076l0.078-0.115c0.057-0.064,0.176-0.084,0.291-0.102
			c-0.014-0.057-0.041-0.121-0.041-0.171c0-0.084,0.024-0.156,0.088-0.21c0.057-0.048,0.126-0.048,0.196-0.041
			c-0.003-0.009-0.014-0.041-0.014-0.041l0.266-0.227c0.095,0.111,0.104,0.105,0.242-0.007c0.078-0.063,0.232-0.155,0.408-0.117
			c0.072-0.204,0.168-0.383,0.272-0.545l0.247-0.397c0,0,0.03,0.039,0.05,0.064c0.055-0.156,0.134-0.335,0.319-0.412
			c0.073-0.03,0.157-0.022,0.242-0.009c0.085-0.464,0.472-0.894,0.834-0.981c0.01-0.002,0.019-0.002,0.027-0.003
			c-0.003-0.021-0.02-0.025-0.02-0.049c0-0.03,0.003-0.062,0.008-0.097l0.021-0.147l0.099,0.006l0.447-0.003
			c0.06,0.007,0.15,0.016,0.223,0.017c-0.012-0.03-0.022-0.061-0.022-0.092c0-0.097,0.058-0.201,0.113-0.308
			c-0.099,0.012-0.192,0.017-0.276-0.026c-0.13-0.068-0.191-0.198-0.162-0.339c0.039-0.264,0.3-0.292,0.503-0.288
			c0.188-0.498,0.622-0.722,0.992-0.837c0.037-0.101,0.07-0.192,0.07-0.256c0-0.126-0.071-0.213-0.209-0.379l-0.14-0.168
			l0.268-0.115l0.082-0.041l0.644-0.171l-0.106,0.248l-0.058,0.403c-0.015,0.078-0.02,0.133-0.026,0.192
			c0.101-0.018,0.416-0.073,0.416-0.073l-0.04,0.179c0.006,0.044,0.009,0.087,0.009,0.127c0,0.254-0.103,0.438-0.174,0.564
			c0,0-0.061,0.127-0.062,0.129c0.005-0.008,0.128,0.071,0.128,0.071l0.161,0.103l-0.132,0.195l-0.254,0.323
			c0,0-0.062,0.092-0.106,0.16c0.024,0.069,0.06,0.136,0.06,0.209c0,0.211-0.086,0.438-0.176,0.673
			c-0.099,0.262-0.201,0.532-0.201,0.803c0,0.053,0.004,0.105,0.013,0.159l0.018,0.106l-0.159,0.092l-0.143,0.101
			c0,0-0.071,0.047-0.142,0.095c0.014,0.057,0.185,0.718,0.185,0.718l-0.203-0.033c-0.115,0.014-0.137,0.016-0.127,0.277
			l-0.018,0.324c-0.001-0.001-0.157,0.251-0.157,0.251l-0.14,0.202c0,0.039-0.083,1.137-0.083,1.137s-0.042,0.747-0.053,0.926
			c0.072,0.055,0.135,0.143,0.142,0.304c0.03,0.005,0.134,0.024,0.134,0.024c0.149,0.016,0.428,0.043,0.454,0.33
			c0-0.008,0.022,0.158,0.022,0.158s0,0.476,0,0.633c0.035-0.019,0.094-0.017,0.119-0.045c0.073-0.084,0.109-0.218,0.109-0.4
			c0-0.051-0.003-0.107-0.009-0.166l-0.025-0.252l0.244,0.066c0.102,0.029,0.104,0.023,0.163-0.063
			c0.037-0.056,0.105-0.122,0.197-0.173c-0.009-0.109-0.019-0.219-0.019-0.325c0-0.553,0.11-1.073,0.211-1.543
			c0.087-0.41,0.172-0.805,0.172-1.172c0-0.164-0.017-0.322-0.058-0.474l-0.032-0.122l0.106-0.068
			c0.337-0.217,0.452-0.694,0.573-1.2c0.093-0.388,0.19-0.789,0.401-1.095c-0.099-0.158-0.176-0.339-0.176-0.475
			c0-0.014,0.001-0.027,0.002-0.04c-0.001,0.021,0.146-0.195,0.146-0.195s0.169-0.162,0.171-0.165c0,0-0.001-0.001-0.001-0.004
			c0-0.048,0.067-0.452,0.067-0.452l0.067-0.4l0.045-0.117c0.271-0.712,0.448-1.183,0.246-1.822l-0.034-0.105l0.083-0.075
			c0.102-0.093,0.096-0.389,0.092-0.65l-0.002-0.252c-0.018,0.002-0.198-0.142-0.32-0.147c0.022,0.042,0.054,0.08,0.057,0.131
			c0,0.007,0,0.015,0,0.022c0,0.16-0.107,0.288-0.27,0.314l-0.13,0.021l-0.066-0.15l-0.058-0.127c-0.045-0.08-0.094-0.19-0.103-0.34
			c-0.361-0.005-0.668,0.126-0.73,0.237c-0.009,0.014-0.018,0.032,0.02,0.079l0.237,0.292l-0.375-0.009
			c-0.195-0.004-0.318,0.034-0.41,0.09c0,0.126,0,0.462,0,0.462l-0.135,0.031c-0.168,0.039-0.261,0.154-0.376,0.301
			c-0.115,0.146-0.279,0.296-0.517,0.375c0,0.146,0,0.61,0,0.61l-0.191,0.038c0,0-0.301,0.077-0.396,0.101c0,0.156,0,0.662,0,0.662
			s-0.405-0.062-0.42-0.064c0.01,0.005,0.013,0.041,0.013,0.064c0,0.011,0,0.018,0,0.018l-0.059,0.313
			c0-0.003-0.344,0.16-0.344,0.16l-0.076,0.023c0.008,0.04,0.017,0.084,0.017,0.129c0,0.055-0.013,0.11-0.06,0.158
			c-0.063,0.063-0.144,0.066-0.229,0.058c0.005,0.008,0.003,0.008,0.008,0.018c0.028,0.047,0.067,0.111,0.067,0.185
			c0,0.029-0.007,0.059-0.021,0.089c-0.051,0.113-0.175,0.134-0.214,0.141c-0.038,0.002-0.368-0.068-0.368-0.068
			s-0.049-0.015-0.064-0.02c0,0,0.001,0.002,0.002,0.003c0.007,0.011,0.033,0.016,0.036,0.025c0.013,0.028,0.018,0.055,0.018,0.081
			c0,0.092-0.063,0.173-0.119,0.247c-0.043,0.058-0.115,0.151-0.115,0.203c0,0.003,0,0.006,0,0.009l0.486,0.475l-0.522-0.073
			c-0.478-0.085-0.576,0.143-0.726,0.487c0,0-0.311,0.518-0.313,0.522c0.007,0.021,0.032,0.029,0.032,0.053
			c0,0.016-0.002,0.032-0.006,0.048c-0.027,0.129-0.146,0.176-0.204,0.195c-0.009,0.014-0.034,0.057-0.034,0.057
			s-0.004-0.035-0.005-0.042c-0.015,0.005-0.03,0.009-0.03,0.009l-0.05-0.014c-0.146-0.041-0.187-0.013-0.268,0.042
			c0,0-0.172,0.041-0.305,0.073c-0.28,0.399-0.618,0.845-1.035,1.174c-0.093,0.075-0.207,0.052-0.292,0.035
			c0.003,0.006,0.006,0.019,0.006,0.036c0,0.063-0.033,0.185-0.199,0.248c-0.001,0-0.211,0.009-0.274,0.012
			c0.021,0.054,0.026,0.116,0.062,0.169l0.223,0.323l-0.389-0.053c-0.291-0.041-0.329,0.023-0.413,0.165l-0.184,0.235l-0.393,0.23
			l-0.682,0.412l0.059-0.372c0.047-0.202,0.006-0.295-0.051-0.424l-0.153-0.64l0.248,0.05c0,0,0.034,0.001,0.068,0.002
			c-0.011-0.026-0.022-0.054-0.022-0.054l-0.087-0.414c0-0.003,0-0.006,0-0.009c0-0.062,0.078-0.096,0.206-0.153l0.145-0.069
			c0.072-0.08,0.089-0.233,0.089-0.406c0-0.08-0.003-0.164-0.007-0.247l0.001-0.576l0.172,0.017c0,0,0.208,0,0.382,0
			c-0.009-0.061-0.032-0.126-0.032-0.182c0-0.34,0.159-0.603,0.315-0.86c0.169-0.277,0.343-0.562,0.343-0.98
			c0-0.044-0.002-0.09-0.006-0.137l-0.017-0.194l0.3,0.01c-0.005-0.014-0.007-0.037-0.007-0.065c0-0.099,0.024-0.256,0.024-0.256
			c0,0.006,0.173-0.195,0.173-0.195s0.114-0.101,0.123-0.109c-0.022-0.001-0.094-0.221-0.094-0.221l-0.182-0.319l0.281-0.011
			c0.063-0.004,0.084-0.032,0.145-0.187c0.051-0.131,0.161-0.323,0.401-0.375c-0.018-0.089-0.043-0.181-0.043-0.267
			c0-0.432,0.232-0.802,0.643-1.108c-0.024-0.083-0.058-0.167-0.058-0.25c0-0.134,0.024-0.264,0.047-0.387l0.027-0.44
			c-0.001,0.005-0.135-0.116-0.135-0.116c-0.106-0.083-0.211-0.182-0.238-0.317C126.52,14.713,126.452,14.768,126.38,14.856
			L126.38,14.856z"/>
		<path fill="#FFFFFF" d="M149.54,21.611c0,0,0.017-0.185,0.025-0.274L149.54,21.611L149.54,21.611z M151.669,18.396
			c-0.121,0.046-0.28,0.101-0.485,0.09c0.002,0.039,0.027,0.055,0.085,0.087c0,0,0.515,0.55,0.524,0.561
			c-0.009-0.022-0.015-0.023-0.023-0.049c-0.118-0.054-0.18-0.143-0.18-0.253c0-0.051,0.014-0.107,0.04-0.166l0.051-0.112
			l0.123,0.011c0.054,0.005,0.088-0.002,0.097-0.012c0.001-0.001,0.021-0.024,0.021-0.106c0-0.014-0.003-0.036-0.005-0.053
			C151.854,18.346,151.808,18.344,151.669,18.396L151.669,18.396z M149.339,13.896c0,0-0.02-0.011-0.022-0.012
			c-0.012,0.071-0.017,0.145-0.068,0.195c-0.028,0.028-0.061,0.024-0.091,0.036c0.003,0.006,0.007,0.013,0.007,0.013l0.009,0.046
			c0.001,0.016,0.002,0.031,0.002,0.046c0,0.107-0.038,0.184-0.111,0.228c-0.096,0.057-0.183,0.013-0.261-0.031
			c-0.01,0.019-0.176,0.349-0.176,0.349s-0.035,0.004-0.052,0.006c-0.001,0.022-0.005,0.047-0.005,0.069
			c0,0.172,0.041,0.309,0.125,0.415l0.198,0.251l-0.358,0.027l-0.1,0.009c-0.043,0.033-0.06,0.175-0.07,0.279
			c-0.021,0.184-0.045,0.392-0.202,0.514c0,0-0.091,0.02-0.182,0.04c-0.009,0.051-0.021,0.107-0.021,0.149
			c0,0.171,0.064,0.275,0.142,0.399l0.3,0.753l-0.309-0.088c-0.169-0.025-0.293-0.008-0.348,0.048
			c-0.037,0.037-0.056,0.104-0.056,0.195c0,0.011,0.003,0.024,0.004,0.036c0.036-0.004,0.075-0.022,0.147-0.074
			c0.076-0.054,0.181-0.129,0.303-0.073c0.127,0.058,0.142,0.209,0.147,0.267l0.018,0.181l-0.182,0.009
			c-0.075,0.003-0.1,0.035-0.146,0.264c0,0-0.04,0.09-0.077,0.174c0.106,0.026,0.232,0.077,0.24,0.262l0.01,0.226l-0.16-0.046
			l-0.416-0.092c0,0-0.031-0.009-0.053-0.016c0,0.006-0.004,0.016-0.004,0.021c0,0.137,0.07,0.197,0.176,0.286l0.161,0.145
			l-0.007,0.071v1.054c0,0-0.224,0-0.261,0c0.008,0.054,0.03,0.125,0.03,0.169c0,0.124-0.027,0.207-0.049,0.274
			c0.059,0.025,0.117,0.063,0.144,0.141l0.03,0.087l-0.076,0.14c-0.049,0.064-0.116,0.078-0.209,0.076
			c0.002,0.004,0.007,0.021,0.007,0.021l0.118,0.305l-0.073,0.051l-0.103,0.195c-0.001,0.005-0.003,0.206-0.003,0.206
			c0.001,0.042,0.002,0.087,0.002,0.135c0,0.128-0.025,0.268-0.073,0.405c0.102,0.029,0.215,0.083,0.222,0.257
			c0.031,0.083,0.045,0.154,0.045,0.216c0,0.138-0.066,0.217-0.141,0.278c0.011,0.011,0.032,0.004,0.04,0.017
			c0.023,0.037,0.032,0.074,0.032,0.108c0,0.013-0.011,0.019-0.014,0.032c0.15,0.044,0.279,0.199,0.322,0.329l0.059,0.177
			l-0.182,0.045c-0.229,0.057-0.525,0.231-0.588,0.926c0.041,0.035,0.058,0.099,0.084,0.166c0.059-0.015,0.25-0.061,0.25-0.061
			l0.139,0.189c0,0,0.024,0.043,0.043,0.079c0.072,0.025,0.165,0.069,0.243,0.125c0.016-0.004,0.169-0.046,0.169-0.046l0.425-0.126
			l0.073,0.085l0.154,0.082c0.004,0,0.522,0.101,0.533,0.103c-0.018-0.101-0.045-0.189-0.104-0.281l-0.238-0.492l0.162-0.045
			c0.11-0.057,0.138-0.118,0.148-0.159c0.007-0.022,0.01-0.045,0.01-0.07c0-0.189-0.161-0.447-0.226-0.552l-0.106-0.171l0.343-0.147
			c-0.042,0-0.113-0.39-0.113-0.39c0.001,0.001,0.102-0.167,0.102-0.167s0.015-0.036,0.028-0.066
			c-0.081-0.124-0.128-0.283-0.132-0.305c-0.018-0.115-0.025-0.219-0.025-0.313c0-0.221,0.04-0.392,0.075-0.537
			c0.025-0.107,0.047-0.194,0.047-0.279c0-0.085-0.021-0.171-0.077-0.276l-0.221-0.416l0.584,0.232
			c0.026,0.014,0.045,0.003,0.068-0.008v-0.001l-0.077-0.046c-0.096-0.048-0.272-0.135-0.272-0.375c0-0.073,0.017-0.159,0.057-0.263
			l0.036-0.094l0.502-0.074c0.14-0.031,0.274-0.026,0.419-0.003c-0.007-0.041-0.032-0.111-0.032-0.141
			c0-0.077,0.027-0.125,0.094-0.162c0.132-0.074,0.233,0.037,0.288,0.098c0,0,0.055,0.048,0.098,0.085
			c0.05-0.104,0.1-0.207,0.1-0.207c0.026-0.021,0.3-0.052,0.3-0.052c0.043,0.016,0.149-0.083,0.149-0.083
			c0.096-0.101,0.252-0.251,0.461-0.269c-0.013-0.047-0.035-0.119-0.035-0.119l0.218-0.222c0,0,0.021,0.014,0.026,0.017
			c-0.034-0.051-0.068-0.118-0.106-0.219c-0.005-0.001-0.453-0.081-0.453-0.081c-0.145-0.004-0.229,0.049-0.337,0.117l-0.266,0.168
			l-0.005-0.311c0,0,0-0.043,0-0.066c-0.102,0.047-0.186,0.12-0.276,0.245c-0.111,0.149-0.276,0.295-0.516,0.369
			c0.001,0.008,0.008,0.017,0.008,0.024c0,0.082-0.029,0.158-0.088,0.222c-0.133,0.145-0.397,0.188-0.576,0.095
			c-0.108-0.056-0.17-0.155-0.17-0.269c0-0.022,0.003-0.046,0.008-0.069l0.029-0.138c0,0,0.192,0,0.231,0
			c-0.016-0.091-0.045-0.191-0.045-0.27c0-0.156,0.023-0.291,0.044-0.411l0.03-0.306l-0.021-0.135
			c-0.019-0.107-0.039-0.226-0.039-0.34c0-0.136,0.029-0.266,0.127-0.359c0.06-0.057,0.143-0.076,0.232-0.085
			c-0.012-0.132-0.087-0.212-0.179-0.295l-0.183-0.293l0.112-0.243c0.141-0.141,0.181-0.204,0.181-0.257
			c0-0.026-0.01-0.05-0.022-0.079l-0.061-0.45c0,0.001,0.107-0.174,0.107-0.174s0.011-0.025,0.021-0.05
			c-0.057-0.051-0.133-0.134-0.133-0.294c0-0.02,0.001-0.04,0.004-0.061l0.015-0.135c0,0,0.016-0.003,0.019-0.004
			c-0.014-0.066-0.032-0.164-0.032-0.164c0.001,0.002,0.13-0.183,0.13-0.183c0.002-0.008,0.003-0.017,0.003-0.026
			c0-0.055-0.037-0.132-0.037-0.132l-0.175-0.315l0.172-0.057c0.096-0.048,0.148-0.185,0.204-0.33c0,0,0.041-0.085,0.084-0.168
			c-0.059,0.044-0.126,0.085-0.213,0.049c-0.069-0.028-0.106-0.082-0.13-0.135C149.581,13.756,149.339,13.896,149.339,13.896
			L149.339,13.896z"/>
		<path fill="#FFFFFF" d="M155.226,17.688l0.183,0.043c-0.053-0.015-0.112-0.044-0.168-0.085
			C155.234,17.663,155.226,17.688,155.226,17.688L155.226,17.688z M155.441,15.86c-0.01,0.008-0.026,0.01-0.037,0.018
			c0.029,0.014,0.047,0.023,0.062,0.03c-0.013-0.018-0.021-0.031-0.022-0.049L155.441,15.86L155.441,15.86z M153.53,13.471
			c-0.007,0.026-0.019,0.048-0.019,0.078c0,0.071,0.015,0.152,0.03,0.241l0.031,0.421c0,0.001-0.145,0.564-0.145,0.564
			s-0.147,0.605-0.147,0.608c0,0.043,0.002,0.444,0.002,0.444c0.004,0.109,0.009,0.213,0.009,0.311c0,0.262-0.033,0.472-0.187,0.568
			c-0.019,0.011-0.051,0.013-0.075,0.021c0.014,0.011,0.009,0.022,0.03,0.038c0.092,0.065,0.235,0.167,0.235,0.393
			c0,0.045-0.006,0.095-0.019,0.151l-0.011,0.043l-0.177,0.197c-0.135,0.139-0.241,0.249-0.248,0.459c0.002,0,0.05,0.316,0.05,0.316
			c0.023,0.119,0.048,0.239,0.048,0.354c0,0.11-0.021,0.213-0.088,0.304c-0.058,0.08-0.186,0.105-0.297,0.143
			c0.017,0.191,0.063,0.722,0.063,0.722l0.091,0.811l-0.212,0.012c-0.086-0.013-0.098,0.003-0.155,0.09c0,0-0.042,0.044-0.083,0.088
			c0.033,0.124,0.062,0.254,0.062,0.436c0,0.229-0.02,0.5-0.041,0.804c-0.024,0.335-0.051,0.703-0.051,1.057
			c0,0.541,0.062,1.048,0.287,1.361l0.032,0.045c0,0,0,0.624,0,0.883c0.001,0,0.005,0,0.005,0c0.718-0.103,1.452-0.214,2.128-0.376
			c-0.035-0.476-0.13-0.921-0.23-1.35l-0.193-0.989c0.001,0,0.08-0.495,0.08-0.495s0.023-0.095,0.044-0.174
			c-0.04-0.022-0.083-0.046-0.083-0.046l-0.07-0.403c0,0,0.063,0.006,0.124,0.012c-0.026-0.054-0.048-0.085-0.081-0.166
			c-0.072-0.064-0.194-0.185-0.194-0.368c0-0.063,0.014-0.132,0.05-0.21c0.002-0.006,0.147-0.224,0.147-0.224
			c0.088-0.113,0.157-0.202,0.157-0.363c0-0.052-0.007-0.112-0.023-0.183l-0.073-0.32l0.453,0.179
			c0.016,0.008,0.026,0.005,0.044,0.001c-0.01-0.014-0.014-0.025-0.059-0.053l-0.215-0.236c0,0.002-0.078-0.282-0.078-0.282
			l-0.252-0.352l0.181-0.174l-0.014,0.011l0.014-0.436l0.168-0.016c0,0,0.165,0,0.296,0c0.02-0.131,0.056-0.357,0.056-0.357
			l0.098-0.758c0,0,0.112,0.079,0.121,0.085c0.016-0.076,0.046-0.15,0.084-0.21c0.056-0.087,0.086-0.144,0.088-0.197
			c-0.105-0.012-0.327-0.047-0.327-0.297v-0.186c0,0,0.216,0.017,0.222,0.017c-0.033-0.077-0.083-0.191-0.083-0.191l-0.294-0.779
			c0,0,0.083,0.051,0.155,0.096c0,0,0.009-0.082,0.009-0.082l0.21-0.142c0.166-0.108,0.259-0.208,0.313-0.339
			c-0.156-0.009-0.359-0.042-0.385-0.283l-0.017-0.161c0,0,0.429-0.075,0.442-0.077c-0.024-0.006-0.054-0.19-0.054-0.19
			s-0.03-0.171-0.053-0.304c-0.194-0.026-0.293-0.152-0.342-0.272c-0.024,0.012-0.135,0.065-0.135,0.065
			c-0.112,0.04-0.321,0.031-0.439-0.115c-0.029-0.037-0.056-0.104-0.062-0.184c-0.029,0.018-0.064,0.016-0.096,0.04
			c-0.123,0.092-0.277,0.206-0.559,0.178l-0.167-0.017l0.012-0.167c0.004-0.06-0.005-0.091-0.017-0.101
			C153.649,13.487,153.619,13.468,153.53,13.471L153.53,13.471z"/>
		<path fill="#FFFFFF" d="M163.096,21.667c0.113,0.004,0.224-0.002,0.309-0.038c0.024-0.01,0.012-0.017,0.024-0.028
			c-0.064-0.033-0.121-0.079-0.183-0.128C163.207,21.545,163.156,21.605,163.096,21.667L163.096,21.667z M159.721,20.384
			c0.051-0.075,0.084-0.149,0.095-0.244c-0.053-0.017-0.101-0.044-0.147-0.073C159.683,20.159,159.707,20.303,159.721,20.384
			L159.721,20.384z M158.368,13.466c-0.046,0.071-0.068,0.154-0.068,0.25c0,0.117,0.033,0.251,0.103,0.403l0.087,0.195l-0.21,0.045
			c-0.132,0.028-0.174,0.138-0.174,0.369c0,0.075,0.004,0.162,0.012,0.264l0.006,0.391c0,0.003-0.152,0.599-0.152,0.599
			c-0.063,0.199-0.13,0.417-0.13,0.56c0,0.067,0.016,0.118,0.054,0.141l0.264,0.162l-0.276,0.14
			c-0.091,0.047-0.174,0.124-0.174,0.313c0,0.117,0.032,0.278,0.112,0.5l0.048,0.134l-0.167,0.092l-0.168,0.101
			c-0.016,0.026-0.021,0.061-0.021,0.1c0,0.104,0.042,0.242,0.081,0.369l0.091,0.437c0,0.003-0.087,0.414-0.087,0.414l-0.063,0.437
			c0,0.001,0.05,0.111,0.05,0.111l0.146,0.55l-0.186-0.021c-0.034,0.007-0.141,0.029-0.172,0.237
			c-0.006,0.038-0.009,0.078-0.009,0.118c0,0.29,0.14,0.595,0.229,0.644l0.34,0.184l-0.363,0.131
			c-0.309,0.111-0.409,0.261-0.409,0.496c0,0.144,0.039,0.32,0.091,0.539c0.057,0.237,0.117,0.493,0.117,0.754
			c0,0.136-0.054,0.274-0.096,0.412c0.206,0.041,0.424,0.115,0.54,0.347l0.078,0.158l-0.253,0.119
			c0.016,0.008,0.085,0.085,0.216,0.198l0.296,0.272l-0.292,0.082c-0.101,0.032-0.16,0.088-0.168,0.216
			c0.111,0.167,0.324,0.262,0.557,0.355c0.238,0.096,0.471,0.212,0.644,0.409c0.143-0.01,0.611-0.041,0.611-0.041
			c0.213,0.012,0.364-0.003,0.544-0.117c0-0.006-0.001-0.01-0.001-0.016c0-0.068,0.032-0.159,0.164-0.239l0.099-0.06l0.145,0.147
			c0,0,0.007,0.004,0.008,0.005c0.006-0.078,0.021-0.166,0.103-0.225c0.043-0.032,0.116-0.063,0.223-0.034l0.075,0.021l0.034,0.069
			c0.045,0.092,0.056,0.114,0.32,0.003c0.103-0.042,0.227-0.075,0.352-0.093c-0.003-0.011-0.009-0.032-0.009-0.032
			c-0.024-0.057-0.051-0.122-0.051-0.189c0-0.041,0.01-0.082,0.036-0.123c0.024-0.037,0.097-0.065,0.177-0.081
			c-0.034-0.063-0.079-0.125-0.079-0.188c0-0.027,0.004-0.054,0.014-0.082c0.02-0.058,0.07-0.137,0.201-0.183
			c0.023-0.008,0.045-0.009,0.067-0.011c0-0.007-0.009-0.019-0.009-0.026c0-0.205,0.108-0.351,0.189-0.46l0.09-0.137l0.317,0.139
			c0.001-0.005,0.003-0.013,0.003-0.021c0-0.026-0.01-0.066-0.044-0.1l-0.119-0.04l0.131-0.107c0.005-0.026,0.008-0.052,0.008-0.078
			c0-0.128-0.063-0.253-0.136-0.37l-0.063-0.104l0.109-0.128l0.257-0.328c0,0,0.008-0.013,0.01-0.015
			c-0.148-0.063-0.27-0.162-0.33-0.342l-0.073-0.221l0.232-0.007c0.208-0.007,0.444-0.015,0.525-0.102c0,0,0.002-0.009,0.003-0.01
			c-0.222-0.016-0.435-0.048-0.57-0.196l-0.32-1.039c0,0,0.179,0.189,0.323,0.34c-0.035-0.064-0.212-0.391-0.212-0.391l0.402,0.223
			c0,0,0.069,0.029,0.14,0.058c0.044-0.193,0.158-0.317,0.259-0.393c0.052-0.039,0.05-0.076,0.075-0.108
			c-0.102-0.031-0.206-0.09-0.206-0.265l0.108-0.284c0,0,0.04-0.122,0.041-0.125c-0.005,0.011-0.17-0.079-0.17-0.079l-0.204-0.107
			c-0.076-0.053-0.078-0.121-0.087-0.182c-0.065,0.049-0.131,0.099-0.131,0.099l-0.408-0.124l0.117-0.084
			c0,0,0.037-0.097,0.069-0.178c-0.027,0.015-0.063,0.015-0.093,0.033l-0.002,0.001c-0.025,0.08-0.084,0.154-0.217,0.173
			l-0.028,0.004l-1.352-0.24l-0.671-0.066l-0.03-0.073l-0.085-0.185c-0.05-0.127-0.083-0.176-0.162-0.185
			c0.02,0.093,0.056,0.162,0.104,0.222c0.075,0.095,0.139,0.19,0.139,0.326c0,0.062-0.051,0.157-0.081,0.239
			c0.046,0.002,0.096,0.005,0.096,0.005l0.403,0.097c0.012,0.012,0.039,0.217,0.046,0.265c0.05,0.001,0.1,0.002,0.1,0.002
			c0.138-0.01,0.461-0.035,0.494,0.281c0,0,0.012,0.102,0.014,0.123c0.059,0.054,0.111,0.103,0.111,0.103
			c0.006,0.012,0.022,0.337,0.022,0.337s-0.012,0.119-0.012,0.123c0.007,0,0.06,0.04,0.06,0.04l0.234,0.256
			c0.002,0.006,0.137,0.654,0.137,0.654l0.02,0.113c0.063,0.387,0.086,0.664,0.086,0.861c0,0.37-0.081,0.462-0.146,0.497
			c0.002,0.024,0.022,0.058,0.022,0.082c0,0.186-0.067,0.329-0.122,0.446c-0.042,0.091-0.073,0.156-0.073,0.225
			c0,0.052,0.019,0.106,0.062,0.174l0.158,0.25l-0.296,0.016c-0.305,0.016-0.331,0.087-0.382,0.231
			c-0.06,0.166-0.15,0.417-0.624,0.5l-0.256,0.044l0.057-0.252c0.078-0.352-0.041-0.663-0.154-0.966l-0.14-0.428
			c0.001,0.003,0.087-0.326,0.087-0.326l0.057-0.141c-0.013-0.204-0.098-0.268-0.282-0.41l-0.251-0.208l0.114-0.299
			c0,0,0.096,0.029,0.174,0.054c-0.022-0.039-0.024-0.089-0.053-0.128c-0.06-0.083-0.104-0.192-0.13-0.308
			c-0.042,0.017-0.081,0.04-0.132,0.032c-0.159-0.021-0.249-0.17-0.304-0.28l-0.132-0.268l0.298,0.018
			c0.129,0.008,0.162-0.035,0.248-0.224c0,0,0.037-0.055,0.063-0.093c-0.097-0.016-0.196-0.024-0.294-0.015
			c-0.175,0.018-0.392,0.039-0.479-0.16l-0.071-0.164l0.34-0.136c0.201-0.077,0.392-0.15,0.473-0.295c0,0,0.158-0.282,0.208-0.371
			c-0.231-0.164-0.419-0.416-0.469-0.813c-0.01-0.079-0.015-0.16-0.015-0.24c0-0.458,0.166-0.907,0.528-1.006l0.15-0.042
			c0,0,0.02,0.071,0.038,0.136c0.015-0.193,0.034-0.387,0.034-0.576c0-0.464-0.08-0.895-0.254-1.271
			c-0.017,0.004-0.027,0.019-0.044,0.02c-0.169,0.013-0.311-0.098-0.343-0.268l-0.024-0.127l0.15-0.073l0.218-0.113
			c0.089-0.058,0.215-0.137,0.357-0.139c-0.02-0.03-0.022-0.065-0.058-0.1c0,0-0.073-0.116-0.133-0.212
			c-0.02,0.05-0.041,0.1-0.091,0.137l-0.064,0.048l-0.302-0.069c-0.232-0.045-0.495-0.097-0.622-0.327l-0.15-0.272l0.31,0.015
			c0.181,0.009,0.298-0.03,0.393-0.085c-0.019-0.122-0.094-0.182-0.263-0.266c-0.173-0.086-0.389-0.193-0.453-0.463l-0.057-0.237
			l0.242,0.024c0.207,0.021,0.393,0.171,0.574,0.317c0.044,0.036,0.102,0.082,0.155,0.121c0.038-0.062,0.092-0.115,0.147-0.157
			c0,0,0.025-0.021,0.049-0.04c-0.098-0.069-0.177-0.157-0.18-0.266c0-0.003,0-0.006,0-0.009c0-0.097,0.057-0.212,0.22-0.255
			l0.093-0.024l0.001,0.026l0.262,0.245c0.036,0.065,0.058,0.087,0.107,0.082c-0.004-0.219-0.098-0.342-0.215-0.491
			c0,0-0.079-0.122-0.143-0.221C159.044,13.064,158.536,13.205,158.368,13.466L158.368,13.466z"/>
		<path fill="#FFFFFF" d="M140.515,41.376c0,0.049,0.009,0.071,0.017,0.078c0,0,0.012,0.001,0.013,0.003
			c-0.006-0.027-0.027-0.061-0.029-0.086C140.515,41.373,140.515,41.375,140.515,41.376L140.515,41.376z M144.622,30.088
			c0,0.041,0.008,0.062,0.015,0.066c0.001,0.002,0.03,0.02,0.116,0.018c0.009-0.032,0.017-0.064,0.017-0.066
			c-0.004,0.008-0.115-0.023-0.115-0.023s-0.026-0.014-0.031-0.018C144.622,30.072,144.622,30.08,144.622,30.088L144.622,30.088z
			 M137.619,22.035c-0.001,0-0.003,0.018-0.005,0.02c0.012-0.002,0.021-0.006,0.031-0.008
			C137.638,22.043,137.622,22.033,137.619,22.035L137.619,22.035z M137.829,14.344c-0.007,0.055-0.02,0.173-0.02,0.173
			c0.001,0.032,0.002,0.065,0.002,0.099c0,0.131-0.017,0.278-0.119,0.412c0.001-0.001-0.353,0.15-0.353,0.15
			s-0.026,0.008-0.049,0.014c0.009,0.021,0.013,0.037,0.044,0.082l0.144,0.342l-0.127,0.055c-0.061,0.062-0.07,0.09-0.08,0.118
			c0.182,0.034,0.273,0.167,0.314,0.249l0.045,0.077c0,0,0.018-0.004,0.025-0.005c-0.015-0.108-0.031-0.229-0.031-0.229
			c-0.017-0.07-0.028-0.128-0.028-0.193c0-0.095,0.024-0.203,0.088-0.382l0.052-0.145l0.15,0.034c0.132,0.03,0.14,0.012,0.205-0.13
			c0.056-0.122,0.16-0.311,0.416-0.333c-0.001-0.003-0.001-0.004-0.002-0.007c-0.042-0.028-0.108-0.073-0.108-0.073l-0.322-0.203
			C137.997,14.37,137.946,14.33,137.829,14.344L137.829,14.344z M139.122,14.274c0,0,0.017-0.185,0.025-0.274L139.122,14.274
			L139.122,14.274z M143.261,11.06c0.039,0.037,0.056,0.094,0.088,0.142c0.013-0.109,0.02-0.161,0.031-0.262
			c-0.102-0.022-0.204-0.045-0.204-0.045s-0.025-0.008-0.039-0.012C143.151,10.935,143.177,10.983,143.261,11.06L143.261,11.06z
			 M141.104,10.91c-0.169,0.058-0.371,0.116-0.584-0.008c-0.068,0.096-0.112,0.23-0.148,0.39c-0.059,0.264-0.126,0.563-0.388,0.703
			l-0.204,0.108l-0.081-0.393l0.062-0.076l-0.488,0.523c-0.264,0.225-0.436,0.383-0.436,0.586c0,0.062,0.016,0.127,0.049,0.2
			c0,0-0.227,0.158-0.261,0.181c-0.007,0.157-0.019,0.358-0.171,0.465c-0.036,0.025-0.081,0.028-0.123,0.038
			c0.021,0.2,0.079,0.363,0.156,0.534c0,0,0.062,0.146,0.09,0.213c0.012-0.005,0.024-0.014,0.036-0.016
			c-0.005-0.016-0.099-0.295-0.099-0.295l0.223-0.046c0.189,0.009,0.315-0.029,0.411-0.09c-0.011-0.006-0.071-0.042-0.071-0.042
			c-0.097-0.048-0.272-0.136-0.272-0.374c0-0.073,0.016-0.16,0.057-0.263l0.043-0.114l0.122,0.003
			c0.388,0.009,0.662-0.107,0.891-0.379l0.079-0.094l0.162,0.071l0.309,0.119c0,0,0.08,0.032,0.147,0.06c0-0.001,0-0.002,0-0.002
			c0-0.195,0.022-0.442,0.275-0.503l0.135-0.033l0.062,0.125c0.065,0.134,0.192,0.204,0.297,0.296
			c0.031-0.117,0.092-0.223,0.258-0.245l0.225-0.03c0,0-0.063,0.47-0.063,0.471c0-0.01,0.211-0.012,0.211-0.012l0.437,0.018
			c0.005,0.002,0.331,0.304,0.331,0.304l0.251,0.28l-0.096,0.165l-0.051,0.045c0.002,0,0.021,0.073,0.021,0.073
			c0.018,0.058,0.042,0.134,0.042,0.228c0,0.02-0.021,0.047-0.022,0.068c0.063-0.003,0.146-0.007,0.146-0.007l0.208,0.341
			c0,0,0.007,0.02,0.012,0.033c0.033-0.016,0.059-0.042,0.098-0.046c0.17-0.017,0.319,0.094,0.353,0.262l0.035,0.176l-0.177,0.029
			c-0.138,0.022-0.213,0.107-0.309,0.214l-0.473,0.451c0,0,0-0.015,0-0.016c-0.048,0.173-0.08,0.295-0.097,0.356
			c0.034,0.343,0.152,0.587,0.363,0.738l-0.116,0.313l-0.46-0.103c-0.102-0.028-0.242-0.062-0.367-0.086
			c-0.009,0.087-0.056,0.165-0.101,0.226c0.011-0.003,0.038-0.011,0.038-0.011c0.175-0.07,0.373-0.15,0.554-0.07l0.534,0.611
			l-0.502-0.126c-0.207-0.032-0.268,0.007-0.282,0.02c-0.046,0.042-0.035,0.192-0.027,0.302c0.013,0.187,0.03,0.42-0.162,0.536
			l-0.263,0.157c0,0,0-0.341,0-0.354c-0.1,0.011-0.191,0.002-0.264-0.033c-0.001,0.15-0.16,0.201-0.377,0.267
			c0,0-0.098,0.035-0.169,0.06c0.015,0.06,0.204,0.789,0.204,0.789l-0.33-0.149l-0.208-0.056c-0.054,0-0.096-0.019-0.141-0.033
			c0.036,0.039,0.078,0.079,0.115,0.113l0.594,0.586l-0.637-0.161c0,0-0.162-0.039-0.163-0.039c0,0,0.001,0.001,0.001,0.002
			c0,0.019-0.027,0.114-0.027,0.114l-0.185,0.343l-0.616,0.047l0.148-0.194c0,0,0.022-0.06,0.046-0.117
			c-0.308,0.174-0.601,0.425-0.616,0.588c0,0.003-0.001,0.006-0.001,0.01c0,0.021,0.011,0.06,0.096,0.107l-0.096,0.324
			c-0.09-0.005-0.129,0.035-0.201,0.12l-0.285,0.174c0,0-0.065-0.037-0.118-0.066c-0.077,0.152-0.219,0.232-0.311,0.258
			c0,0-0.029,0.01-0.058,0.021c0.004,0.029,0.016,0.063,0.016,0.089c0,0.243-0.164,0.345-0.262,0.406
			c-0.069,0.043-0.102,0.063-0.102,0.116c0,0.029,0.01,0.067,0.028,0.124c0,0,0.047,0.143,0.091,0.28
			c0.006,0.005,0.028,0.026,0.028,0.026c-0.007,0.009-0.006,0.017-0.011,0.025c0.046,0.141,0.084,0.256,0.092,0.283
			c0.021,0.023,0.031,0.041,0.058,0.07c0.119,0.135,0.271,0.319,0.285,0.542c0.083-0.108,0.211-0.236,0.505-0.169l0.038,0.009
			l0.031,0.025c0.151,0.121,0.215,0.121,0.373-0.002l0.125-0.097l0.107,0.116c0.163,0.176,0.202,0.438,0.202,0.731
			c0,0.018-0.002,0.037-0.002,0.056c0.013-0.004,0.574-0.147,0.574-0.147l-0.014,0.13l0.156,0.46
			c0.056,0.213,0.108,0.412,0.228,0.501c0.019-0.004,0.02-0.024,0.042-0.025c0.352,0.101,0.661,0.264,0.885,0.522
			c0.018-0.007,0.03-0.026,0.05-0.028c0.11-0.014,0.236,0.053,0.271,0.234l0.023,0.126l-0.064,0.021c0,0-0.109,0.057-0.195,0.102
			c0.083,0.024,0.163,0.046,0.223,0.141l0.064,0.073c0.023-0.071,0.113-0.145,0.23-0.103c0.123,0.044,0.149,0.176,0.158,0.225
			l0.034,0.175c0,0-0.104,0.015-0.166,0.024c0.001,0.023,0.002,0.046,0.002,0.046l-0.028,0.3c0,0.001-0.011,0.012-0.014,0.014
			c0.08,0.041,0.156,0.097,0.223,0.16c0.081,0.076,0.191,0.18,0.259,0.176l0.572-0.428l-0.154,0.504
			c-0.013,0.036,0.043,0.142,0.076,0.205c0.068,0.13,0.146,0.277,0.081,0.432c-0.043,0.098-0.134,0.168-0.273,0.207l-0.249,0.071
			l0.036-0.29l0.021-0.178c-0.018-0.031-0.124-0.053-0.194-0.068c0,0-0.038-0.018-0.049-0.022c-0.011,0.129-0.039,0.251-0.072,0.349
			c0.024,0.004,0.05,0.008,0.077,0.026c0.055,0.038,0.075,0.083,0.075,0.133c0,0.069-0.04,0.146-0.079,0.22
			c-0.064,0.123-0.068,0.163-0.098,0.238c0.124-0.018,0.243-0.022,0.339,0.05c0.178,0.133,0.187,0.397,0.172,0.637l-0.014,0.237
			l-0.165-0.074c0,0-0.03-0.012-0.039-0.016c0.016,0.015,0.222,0.201,0.222,0.201l-0.258,0.095l-0.138,0.077
			c0,0.004,0,0.009,0,0.016c0,0.059-0.02,0.22-0.038,0.355c0.01,0.008,0.03,0.008,0.038,0.014c0.098,0.084,0.106,0.209,0.106,0.316
			c0,0.014-0.001,0.025-0.001,0.038c0,0,0.001,0.026,0.003,0.051c0.02-0.006,0.058-0.019,0.058-0.019s0.03-0.004,0.043-0.007
			c-0.006-0.002-0.009-0.011-0.009-0.024c0-0.021,0.005-0.049,0.005-0.049c0.018-0.106,0.052-0.328,0.278-0.366l0.154-0.026
			l0.042,0.15c0.023,0.088,0.033,0.163,0.033,0.229c0,0.236-0.129,0.354-0.222,0.439c-0.067,0.062-0.096,0.097-0.101,0.161
			c0.037,0.014,0.082,0.031,0.082,0.031c0.118,0.033,0.375,0.106,0.375,0.395c0,0.046-0.007,0.097-0.021,0.153l-0.059,0.232
			l-0.146-0.104l-0.322-0.203c-0.073-0.074-0.12-0.115-0.22-0.11c-0.075,0.515-0.145,1.059-0.145,1.673
			c0,0.146,0.006,0.297,0.014,0.451c0.063,0.062,0.981,0.98,0.981,0.98s-1.323,0-1.574,0c-0.002,0.037-0.007,0.076-0.007,0.111
			c0,0.455,0.133,0.775,0.293,1.108l0.159,0.335l-0.359-0.092c-0.197-0.051-0.221-0.006-0.303,0.143
			c-0.08,0.146-0.217,0.371-0.583,0.32c-0.048,0.109-0.095,0.223-0.095,0.223s-0.066,0.01-0.124,0.018c0,0.115,0,0.209,0,0.319
			c0.193,0.046,0.349,0.15,0.429,0.362l0.017,0.043l-0.024,0.096l-0.045,0.283c0.005,0.027,0.011,0.061,0.011,0.099
			c0,0.088-0.031,0.194-0.183,0.278l-0.108,0.061l-0.091-0.082c-0.122-0.11-0.145-0.249-0.145-0.366
			c0-0.038,0.002-0.075,0.005-0.107c0.002-0.033,0.004-0.062,0.004-0.085c0-0.068-0.036-0.094-0.105-0.111
			c-0.059,0.105-0.218,0.389-0.218,0.389l-0.481,0.83c0,0-0.064-0.158-0.1-0.242c-0.055,0.158-0.136,0.354-0.339,0.322l-0.042-0.008
			l-0.034-0.025c-0.145-0.107-0.24-0.094-0.498-0.041c0,0-0.245,0.033-0.41,0.055c-0.005,0.154-0.016,0.432-0.291,0.461
			c-0.241,0-0.338-0.145-0.396-0.231c-0.024-0.036-0.04-0.038-0.057-0.05c-0.018,0.084-0.051,0.165-0.128,0.217
			c-0.146,0.102-0.318,0.033-0.484-0.033c-0.171-0.066-0.346-0.136-0.491-0.065c0.027,0.079,0.06,0.153,0.06,0.226
			c0,0.039-0.01,0.076-0.034,0.114c-0.047,0.071-0.143,0.075-0.232,0.086c-0.001,0.024-0.006,0.054-0.006,0.075
			c0,0.162,0.042,0.24,0.082,0.314l0.109,0.511l-0.134,0.001c-0.052,0.023-0.099,0.029-0.206-0.021
			c0.004,0.024,0.008,0.065,0.008,0.065s-0.004,0.093-0.006,0.174c0.029-0.008,0.524-0.135,0.524-0.135l0.012,0.057
			c0.23,0.178,0.395,0.176,0.645,0.174c0,0,0.279,0.033,0.507,0.06c-0.018-0.104-0.024-0.224-0.07-0.281l-0.373-0.456
			c0,0,0.597,0.195,0.613,0.199c0.001-0.021,0.002-0.046,0.002-0.046c0-0.011,0-0.022,0-0.035c0-0.109,0.009-0.235,0.107-0.321
			c0.044-0.039,0.124-0.08,0.25-0.062l0.137,0.021l0.01,0.138c0.004,0.058,0.007,0.111,0.007,0.163c0,0.6-0.263,0.945-0.499,1.252
			c0.112,0.086,0.208,0.232,0.208,0.512c0,0.002-0.001,0.006-0.001,0.008c0.092,0.023,0.184,0.047,0.184,0.047
			c0.162,0.051,0.311,0.092,0.519,0.073c0.016-0.109,0.055-0.298,0.284-0.308c0.329,0.083,0.396,0.006,0.52-0.137l0.435-0.469
			c0,0-0.017,0.205-0.028,0.351c0.066-0.196,0.256-0.296,0.429-0.382c0.202-0.1,0.319-0.186,0.359-0.324
			c-0.112-0.133-0.221-0.189-0.343-0.23c-0.172-0.059-0.386-0.133-0.502-0.488c0,0,0-0.002,0-0.005c0-0.042-0.008-0.365-0.008-0.365
			s0.002-0.067,0.004-0.132c-0.097-0.006-0.21-0.02-0.273-0.123c-0.016-0.023-0.034-0.064-0.034-0.12
			c0-0.032,0.007-0.069,0.024-0.11c0.151-0.166,0.293-0.218,0.438-0.2c0.172,0.021,0.338,0.138,0.455,0.322l0.111,0.176
			l-0.213,0.085c0.01,0.018,0.021,0.036,0.021,0.036c0.047,0.074,0.094,0.192,0.116,0.313c0.013-0.02,0.025-0.014,0.043-0.059
			c0.046-0.115,0.114-0.291,0.325-0.335c0.344,0.011,0.435,0.256,0.488,0.402c0.012,0.03,0.017,0.034,0.026,0.056
			c0.032-0.117,0.073-0.201,0.179-0.307l0.096-0.1c0.218-0.231,0.301-0.571,0.358-0.9c-0.157-0.006-0.378-0.035-0.404-0.285
			c0.051-0.297,0.246-0.395,0.389-0.466l0.28-0.142l-0.029,0.313c-0.003,0.022-0.004,0.044-0.004,0.063
			c0,0.071,0.014,0.124,0.04,0.151c0.011,0.01,0.04,0.009,0.058,0.015c-0.001-0.044-0.002-0.096-0.002-0.096
			c-0.007-0.069-0.014-0.143-0.014-0.214c0-0.137,0.026-0.267,0.129-0.352c0.055-0.045,0.125-0.064,0.203-0.068
			c-0.004-0.071-0.038-0.11-0.103-0.17c-0.091-0.082-0.222-0.201-0.222-0.436c0-0.035,0.004-0.072,0.01-0.111l0.031-0.201
			l0.193,0.063c0.162,0.053,0.173,0.033,0.24-0.073c0.061-0.098,0.163-0.262,0.408-0.261c0.004-0.04,0.02-0.062,0.029-0.094
			c-0.047,0.021-0.091,0.045-0.175,0.029l-0.119-0.021l-0.021-0.119c-0.063-0.354-0.011-0.615,0.153-0.779
			c0.134-0.134,0.336-0.188,0.594-0.172c-0.004-0.111-0.061-0.165-0.16-0.242c-0.121-0.095-0.3-0.234-0.3-0.527
			c0-0.028,0.001-0.058,0.005-0.089l0.038-0.343l0.184,0.196l0.262,0.245c0.041,0.072,0.066,0.09,0.134,0.074
			c0.003-0.012,0.011-0.031,0.011-0.04c0-0.04-0.026-0.056-0.086-0.089l-0.436-0.486l0.315,0.001c0.12-0.03,0.198-0.081,0.241-0.155
			c0.101-0.172,0.017-0.482-0.045-0.707l-0.097-0.361l0.267,0.047c0.078,0.013,0.087,0.003,0.147-0.086c0,0,0.039-0.043,0.079-0.086
			c-0.028-0.099-0.06-0.199-0.06-0.278c0-0.103,0.017-0.188,0.031-0.263c0.003-0.016,0.002-0.023,0.004-0.036
			c-0.104,0.113-0.234,0.21-0.37,0.212c-0.07,0.002-0.241-0.022-0.319-0.267l-0.057-0.175l0.229-0.052l0.157-0.041
			c0.063-0.062,0.082-0.207,0.091-0.366c-0.038,0.127-0.121,0.351-0.424,0.313l-0.165-0.021l0.015-0.166
			c0.001-0.015,0.002-0.029,0.002-0.043c0-0.117-0.049-0.182-0.116-0.273c-0.083-0.111-0.184-0.248-0.184-0.48
			c0-0.027,0.001-0.055,0.004-0.086l0.016-0.156h0.156c0.028,0,0.033,0,0.084-0.075c0.056-0.083,0.154-0.215,0.36-0.228
			c-0.006-0.064-0.039-0.488-0.039-0.488l0.183,0.059c0,0,0.132,0,0.258,0c-0.02-0.238-0.129-0.381-0.276-0.54l-0.303-0.409
			l0.001-0.063l-0.139-0.441c-0.06-0.142-0.109-0.259-0.109-0.354c0-0.063,0.021-0.117,0.076-0.162
			c0.034-0.027,0.071-0.035,0.109-0.039c-0.036-0.049-0.083-0.093-0.141-0.144l-0.251-0.264l0.014-0.043
			c-0.001-0.03-0.002-0.06-0.002-0.089c0-0.184,0.071-0.299,0.131-0.424c-0.38-0.215-0.468-0.691-0.529-1.131
			c0,0-0.007-0.038-0.01-0.059c-0.063,0.004-0.125-0.001-0.184-0.039c-0.123-0.081-0.133-0.224-0.133-0.339
			c0-0.01,0-0.019,0.001-0.027c-0.018,0.005-0.028,0.022-0.046,0.023c-0.1,0.007-0.226-0.053-0.254-0.247
			c-0.118-0.674-0.43-0.992-1.012-1.025l-0.153-0.009l0.017-0.072l-0.022-0.34c0,0,0.002-0.014,0.002-0.018
			c-0.103,0.012-0.192,0.011-0.255-0.059c-0.047-0.04-0.061-0.094-0.061-0.152c0-0.048,0.01-0.099,0.019-0.141
			c-0.053-0.002-0.176-0.009-0.272-0.177l0,0c0-0.006-0.071-0.216-0.121-0.366c-0.187-0.022-0.489-0.092-0.621-0.383l-0.076-0.169
			l0.438-0.164c0.49-0.174,0.802-0.311,0.802-0.79c0-0.034-0.002-0.07-0.005-0.107l-0.02-0.221l0.219,0.035
			c0.122,0.02,0.152-0.013,0.231-0.101c0.091-0.099,0.225-0.233,0.493-0.214c0.021-0.093,0.045-0.199,0.045-0.199
			c0.03-0.225,0.073-0.472,0.27-0.613c-0.003-0.026-0.009-0.044-0.009-0.071c0-0.139,0.033-0.29,0.162-0.384
			c0,0.001,0.185-0.022,0.224-0.027c-0.015-0.11-0.063-0.223-0.107-0.301l-0.313-0.551l0.575,0.307
			c0.084,0.048,0.139,0.074,0.185,0.093c-0.002-0.011-0.003-0.021-0.003-0.031c0-0.11,0.09-0.177,0.162-0.229
			c-0.09-0.095-0.144-0.19-0.144-0.292c0-0.072,0.015-0.146,0.034-0.227c0,0,0.017-0.12,0.03-0.225
			c-0.114-0.02-0.275-0.066-0.275-0.284v-0.185c0,0,0.323,0.023,0.33,0.024c-0.024-0.004-0.075-0.241-0.075-0.241
			c-0.031-0.096-0.06-0.188-0.06-0.271c0-0.063,0.017-0.12,0.062-0.168c0.035-0.037,0.113-0.094,0.25-0.061
			c0.001,0,0.214,0.092,0.214,0.092c0.074,0.041,0.126,0.067,0.213,0.064c0.032-0.082,0.072-0.176,0.072-0.176
			c0.078-0.175,0.115-0.275,0.115-0.338c0-0.034-0.01-0.057-0.032-0.075l-0.113-0.096l0.056-0.174
			c0.063-0.103,0.204-0.126,0.331-0.117c0.039-0.233,0.106-0.642,0.106-0.642l-0.177-0.507l0.066-0.023
			c0.025-0.038,0.066-0.129,0.102-0.22c-0.03,0.012-0.052,0.036-0.087,0.039c-0.168,0.013-0.31-0.097-0.343-0.268l-0.024-0.125
			c0,0,0.153-0.066,0.175-0.076c0.049-0.1,0.131-0.204,0.258-0.259c-0.041-0.388-0.225-0.625-0.461-0.87l-0.246-0.257
			c0,0,0.103-0.025,0.2-0.048c-0.004-0.002-0.008-0.001-0.012-0.003c-0.08-0.045-0.102-0.134-0.107-0.227
			c-0.027,0.031-0.062,0.058-0.112,0.07c0.006,0.042,0.022,0.086,0.022,0.127c0,0.096-0.021,0.188-0.078,0.271
			c-0.087,0.124-0.236,0.194-0.454,0.215l-0.279,0.026l0.101-0.262c0.139-0.359,0.171-0.604,0.195-0.861
			c-0.048,0.033-0.1,0.052-0.127,0.061l-0.232,0.075c0,0,0.007-0.136,0.012-0.223c-0.048,0.004-0.1,0.009-0.1,0.009
			c-0.154,0.024-0.329,0.051-0.438-0.072c-0.032-0.036-0.065-0.094-0.065-0.181c0-0.033,0.005-0.071,0.017-0.113l0.026-0.093
			l0.091-0.027c0.012-0.003,0.019-0.013,0.029-0.018c-0.1,0.043-0.21,0.091-0.373,0.089c0.023,0.103,0.068,0.203,0.173,0.341
			l0.353,0.656c0,0-0.102,0.003-0.183,0.006c0.024,0.028,0.052,0.06,0.052,0.06c0.082,0.078,0.228,0.214,0.228,0.382
			c0,0.072-0.027,0.15-0.098,0.231l-0.072,0.084l-0.106-0.031c-0.214-0.063-0.324-0.218-0.373-0.416
			c-0.035,0.008-0.07,0.017-0.07,0.017c-0.063,0.031-0.158,0.078-0.262,0.032c-0.106-0.047-0.138-0.158-0.147-0.194l-0.027-0.097
			l0.07-0.072c0.082-0.083,0.116-0.173,0.116-0.273c0-0.184-0.115-0.4-0.266-0.658c0,0-0.063-0.123-0.117-0.228
			C141.318,10.872,141.104,10.91,141.104,10.91L141.104,10.91z"/>
		<path fill="#FFFFFF" d="M110.02,26.61c0.019,0.003,0.04,0.005,0.04,0.005s0-0.001,0-0.003c0-0.003,0.003-0.016,0.005-0.022
			C110.052,26.6,110.034,26.602,110.02,26.61L110.02,26.61z M110.85,24.922l0.035,0.123c-0.001,0.001-0.001,0.002-0.001,0.002
			c0,0.012,0.083-0.088,0.083-0.088c-0.051-0.035-0.098-0.083-0.144-0.129C110.831,24.861,110.845,24.895,110.85,24.922
			L110.85,24.922z M103.225,20.104c0,0,0.066-0.047,0.124-0.087c-0.061-0.021-0.283-0.097-0.283-0.097L103.225,20.104
			L103.225,20.104z M100.844,13.896c0-0.086,0.05-0.154,0.113-0.204c-0.015-0.004-0.034-0.012-0.034-0.012L100.844,13.896
			L100.844,13.896z M112.477,10.447c-0.016,0.132-0.036,0.311-0.036,0.311c-0.068,0.199-0.128,0.39-0.128,0.542
			c0,0.109,0.03,0.198,0.108,0.258l-0.11,0.311c0,0-0.168-0.065-0.234-0.09c-0.007,0.194-0.078,0.335-0.133,0.428
			c0.028,0.014,0.064,0.032,0.064,0.032l0.037,0.228c-0.002,0.01-0.186,0.224-0.186,0.224l-0.127,0.118
			c-0.064,0.162-0.104,0.378-0.104,0.575c0,0.103,0.035,0.174,0.059,0.256c0.088,0.011,0.183,0.067,0.213,0.226l0.031,0.164
			l-0.163,0.037c-0.322,0.073-0.458,0.368-0.458,1.028c0,0.082,0.002,0.169,0.006,0.263l0.004,0.084l-0.064,0.055
			c-0.246,0.213-0.311,0.476-0.311,0.777c0,0.161,0.018,0.331,0.037,0.511l0.054,0.841l-0.228-0.037l-0.081-0.007
			c0,0,0,0.002,0,0.006c0,0.035-0.021,0.205-0.021,0.205c-0.006,0.166-0.013,0.353-0.151,0.466c0,0-0.055,0.011-0.091,0.019
			c0.019,0.096,0.038,0.192,0.038,0.192c0,0.239-0.194,0.346-0.278,0.392l-0.03,0.017l-0.091,0l-0.322,0.035l-0.113-0.093
			l-0.049-0.063c-0.207-0.05-0.301-0.003-0.422,0.057l-0.414,0.1l0,0c0-0.001-0.453-0.166-0.453-0.166l-0.3-0.13
			c-0.012,0.028-0.271,0.149-0.271,0.149l-0.078,0.037l-0.017-0.071l-0.215-0.114c-0.969-0.132-2.148-0.23-2.42-0.151
			c0.001-0.001-0.37,0.014-0.37,0.014l-0.119-0.007c0.002,0-0.4-0.035-0.4-0.035c0.001-0.002-0.146,0.03-0.146,0.03
			c-0.395,0.099-1.079,0.028-1.241,0.003l-0.275-0.044c-0.055-0.012-0.084-0.003-0.084-0.003l-0.16,0.044
			c-0.203,0.051-0.685,0.095-0.873-0.095c-0.069-0.071-0.095-0.167-0.069-0.264c-0.001,0.007,0.103-0.388,0.103-0.388
			c0.104-0.357,0.151-0.52-0.087-0.951l-0.196-0.355l0.489,0.131c-0.019-0.043,0.156-0.321,0.156-0.321s0.047,0.001,0.069,0.001
			c-0.001-0.003-0.004-0.018-0.004-0.018l-0.095-0.545c0,0.005,0.15-0.357,0.15-0.357c-0.08-0.039-0.153-0.115-0.153-0.217
			c0-0.02,0.003-0.04,0.008-0.061c0-0.002,0.175-0.205,0.175-0.205s0.121-0.113,0.129-0.121c-0.009-0.002-0.011-0.084-0.011-0.084
			l-0.005-0.145c0,0.004,0.139-0.316,0.139-0.316c0.001,0,0.001,0,0.001,0c0-0.018-0.072-0.292-0.072-0.292
			s-0.063-0.301-0.063-0.301c0.004,0.002,0.171-0.22,0.171-0.22c0.072-0.053,0.113-0.082,0.117-0.186
			c0,0.001-0.038-0.066-0.038-0.066c-0.045-0.059-0.116-0.149-0.116-0.296c0-0.032,0.003-0.067,0.012-0.105l0.188-0.295
			c0.048-0.051,0.053-0.07,0.072-0.1c-0.157-0.006-0.383-0.033-0.41-0.287l-0.022-0.217l0.217,0.027
			c0.101,0.013,0.127,0.016,0.17-0.278c0,0,0.02-0.075,0.037-0.144c-0.141-0.034-0.258-0.09-0.345-0.149
			c-0.09-0.06-0.172-0.094-0.277-0.107c-0.001,0.185-0.056,0.328-0.099,0.44c-0.03,0.079-0.049,0.126-0.049,0.165
			c0,0.041,0.021,0.071,0.072,0.118l-0.187,0.286c0,0-0.021-0.006-0.042-0.013c-0.001,0.027-0.002,0.055-0.002,0.055
			c0,0.012,0,0.025,0,0.038c0,0.108-0.01,0.231-0.107,0.314c-0.003,0.002-0.013,0.003-0.017,0.005
			c0.013,0.055,0.043,0.124,0.043,0.169c0,0.076-0.013,0.14-0.023,0.194c-0.008,0.04-0.015,0.072-0.015,0.104
			c0,0.055,0.02,0.108,0.079,0.193l0.109,0.154c0,0-0.206,0.099-0.233,0.112c-0.031,0.071-0.068,0.138-0.118,0.195
			c0.056,0.034,0.105,0.089,0.125,0.194l0.022,0.122c0,0-0.162,0.073-0.176,0.079c-0.048,0.098-0.127,0.197-0.243,0.255
			c0.02,0.07,0.063,0.148,0.063,0.211c0,0.177-0.063,0.326-0.119,0.458c-0.049,0.116-0.091,0.213-0.091,0.319
			c0,0.079,0.022,0.161,0.082,0.26l0.12,0.201l-0.279,0.062l-0.087,0.021c-0.087,0.08-0.097,0.361-0.104,0.588l-0.076,0.598
			c-0.001,0.002-0.205,0.295-0.245,0.354c0.056,0.06,0.117,0.141,0.117,0.265c0,0.032-0.004,0.065-0.014,0.101
			c-0.031,0.109-0.131,0.143-0.243,0.182c0,0-0.021,0.008-0.042,0.015c0.007,0.074,0.042,0.118,0.104,0.175l0.157,0.271
			l-0.249,0.465l-0.117-0.117c-0.183-0.09-0.479-0.079-0.793-0.066c-0.334,0.013-0.713,0.028-1.082-0.068l0,0
			c0-0.001-0.215-0.185-0.215-0.185s-0.091-0.099-0.104-0.114c-0.002,0.023-0.126,0.068-0.126,0.068s-0.253,0.089-0.253,0.09v0
			c0-0.003-0.183-0.092-0.183-0.092c-0.046-0.041-0.078-0.055-0.113-0.062c-0.006,0.096-0.02,0.215-0.125,0.279l-0.264,0.161
			l-0.067-0.312c0,0,0-0.116,0-0.232c-0.379,0.07-3.779,0.701-3.779,0.701l-1.005,0.166c0,0-0.017-0.054-0.033-0.107
			c-0.058,0.017-0.116,0.03-0.182-0.003c-0.068-0.036-0.113-0.102-0.133-0.195v-0.002c0-0.075,0.104-1.006,0.104-1.006
			c0.048-0.534,0.093-1.038,0.199-1.295c0.094-0.236,0.127-0.58,0.159-0.913l0.127-0.831c0.021-0.094,0.107-0.127,0.228-0.173
			l0.116-0.049c0.015-0.062,0.091-0.619,0.091-0.739c0-0.003,0-0.005,0-0.008c-0.006-0.094-0.077-0.937-0.584-1.012
			c0.01,0.001,0.014,0.01,0.014,0.023c0,0.03-0.018,0.077-0.018,0.077c-0.022,0.08-0.096,0.206-0.228,0.278
			c0.006,0.053,0.018,0.11,0.018,0.16c0,0.375-0.151,0.668-0.277,0.914c-0.105,0.204-0.193,0.374-0.193,0.555
			c0,0.114,0.034,0.233,0.12,0.369l0.124,0.194l-0.221,0.065c-0.16,0.047-0.243,0.342-0.287,0.5l-0.041,0.13
			c-0.051,0.127-0.068,0.213-0.068,0.288c0,0.068,0.015,0.126,0.033,0.195l0.047,0.497c0,0.001-0.081,0.513-0.081,0.513
			c-0.051,0.271-0.102,0.549-0.102,0.831c0,0.122,0.009,0.246,0.033,0.369l0.012,0.061l-0.029,0.054
			c-0.174,0.324-0.552,0.363-0.885,0.397c0,0-0.498,0.109-0.499,0.109v0c0,0.008-0.045,0.114-0.045,0.114
			c-0.044,0.125-0.109,0.313-0.309,0.348l-0.227,0.039l0.039-0.342c-0.034-0.017-0.221,0.002-0.319,0.012
			c0,0-0.095-0.001-0.184-0.003c0.022,0.063,0.033,0.13,0.077,0.193c0,0,0.064,0.128,0.113,0.226
			c0.045,0.016,0.095,0.025,0.131,0.057c0.039-0.037,0.088-0.069,0.163-0.083l0.17-0.03l0.031,0.17
			c0.021,0.122,0.138,0.158,0.457,0.2c0,0,0.096,0.023,0.181,0.044c-0.02-0.04-0.042-0.084-0.042-0.139
			c0-0.028,0.005-0.059,0.02-0.089c0.045-0.107,0.153-0.14,0.189-0.151l0.113-0.035l0.117,0.149
			c0.055-0.061,0.149-0.121,0.261-0.077c0.12,0.048,0.155,0.18,0.168,0.23l0.011,0.039c0,0-0.369,1.844-0.417,2.076
			c0.108,0.022,0.257,0.07,0.266,0.269l0.008,0.211l-0.208-0.032c-0.068-0.011-0.101-0.001-0.108,0.005
			c-0.007,0.006-0.02,0.034-0.02,0.094c0,0.194,0.122,0.469,0.147,0.51l0.061,0.101l-0.032,0.039l-0.169,0.221
			c-0.07,0.055-0.113,0.088-0.119,0.189c-0.002,0.036,0.019,0.107,0.019,0.107l0.018,0.059l0.04,0.104l-0.107,0.258
			c0.006-0.016,0.087,0.132,0.087,0.132l0.123,0.286l-0.099,0.076l-0.081,0.156c-0.001,0.009-0.11,0.476-0.11,0.476l-0.041,0.14
			l-0.096,0.584l0.051,0.396c0,0,0.014,0.078,0.027,0.152c0.059,0.009,0.136,0.044,0.208,0.105c0.062-0.014,0.156-0.035,0.156-0.035
			c0.114-0.066,0.218-0.039,0.329,0.017c0.046-0.027,0.095-0.039,0.146-0.044c0.001-0.005,0.004-0.023,0.004-0.023
			c0.027-0.066,0.096-0.115,0.169-0.15c0.012-0.086,0.025-0.187,0.025-0.187l0.116-0.48c0.216-0.569,0.234-1.517,0.234-2.52v-0.359
			l0.049-1.479c0,0.001,0.085-0.258,0.085-0.258l0.063-0.187c0-0.002-0.035-0.069-0.035-0.069l-0.131-0.391l0.038-0.03l0.134-0.417
			c0-0.001,0.021-0.091,0.021-0.091c0.044-0.186,0.092-0.397,0.399-0.469l0.052-0.012l0.049,0.019
			c0.275,0.105,0.462,0.108,0.8,0.114c0,0,0.27,0.009,0.448,0.016c0.013-0.098,0.04-0.184,0.118-0.23
			c0.113-0.067,0.222-0.006,0.293,0.033l0.169,0.056c0.002,0,0.471-0.106,0.471-0.106s-0.029,0.111-0.054,0.208
			c0.061-0.032,0.114-0.076,0.175-0.129c0.134-0.119,0.299-0.267,0.6-0.267c0.178,0.014,0.247,0.12,0.292,0.204
			c0.014-0.15,0.055-0.319,0.271-0.349l0.073-0.01l0.075,0.062c0,0,0.107,0.085,0.113,0.09l0,0c0-0.017,0.071-0.109,0.071-0.109
			c0.079-0.118,0.188-0.28,0.387-0.324l0.322-0.071l-0.111,0.251c0,0-0.1,0.244-0.106,0.263c0.243,0.006,0.791,0.021,0.791,0.021
			c0.601-0.024,1.212-0.023,1.677,0.414c0.136,0.002,0.213-0.051,0.315-0.123l0.338-0.168l0.164,0.291c0,0-0.002,0.003-0.003,0.003
			c0.149,0.036,0.292,0.092,0.341,0.271c0.012,0.038,0.018,0.073,0.018,0.106c0,0.153-0.118,0.26-0.168,0.306
			c-0.009,0-0.08,0.468-0.08,0.468l-0.068,0.543c-0.001,0.004-0.163,0.214-0.163,0.214L99.279,22c0,0.004-0.001,0.274-0.001,0.274
			l0.004,0.375l-0.049,0.025c-0.274,0.28-0.314,0.64-0.314,1.054c0,0.084,0.002,0.17,0.003,0.259
			c0.001,0.092,0.003,0.185,0.003,0.279c0,0.27-0.015,0.546-0.087,0.825c-0.001,0.001-0.018,0.381-0.018,0.381l0.022,0.474
			c-0.001,0.004-0.148,0.587-0.148,0.587s-0.051,0.202-0.093,0.375c0.228-0.016,0.359,0.195,0.415,0.287l0.037,0.059
			c0.112,0.008,0.175-0.057,0.178-0.061c0,0,0.188,0.145,0.241,0.184c0.194,0.006,0.367-0.015,0.479-0.077
			c-0.029-0.14-0.059-0.281-0.059-0.413c0-0.258,0.045-0.5,0.085-0.724c0.038-0.205,0.07-0.391,0.07-0.565
			c0-0.208-0.048-0.4-0.194-0.591l-0.24-0.313c0,0,0.411,0.036,0.411,0.037c-0.009-0.029-0.031-0.057-0.031-0.086
			c0-0.041,0.012-0.081,0.039-0.12c0.04-0.058,0.112-0.063,0.18-0.075c-0.017-0.066-0.034-0.129-0.034-0.176
			c0-0.089,0.038-0.157,0.142-0.247c0,0,0.034-0.032,0.068-0.064c-0.062-0.149-0.12-0.297-0.12-0.439
			c0-0.349,0.151-0.678,0.291-0.981c0.137-0.296,0.261-0.565,0.261-0.833c0-0.13-0.029-0.26-0.101-0.394l-0.14-0.255
			c0,0,0.347,0,0.392,0c-0.016-0.139-0.032-0.286-0.032-0.286l-0.11-0.485l0.107-0.089c0.509-0.275,0.676-0.281,1.107-0.195
			c0.057-0.193,0.23-0.277,0.332-0.306l0.212-0.081l0.124-0.006l0.216,0.149c0.176,0.14,0.199,0.151,0.313,0.032
			c0,0,0.26,0.092,0.285,0.101c0.008-0.006,0.039-0.028,0.039-0.028c0.123-0.056,0.199-0.094,0.228-0.164l0.332,0.088
			c0,0-0.002,0.088-0.003,0.122c0.018-0.032,0.11-0.065,0.11-0.065c0.133-0.054,0.298-0.122,0.424-0.011
			c0.045,0.04,0.049,0.096,0.059,0.149c0.376-0.096,0.735,0.006,1.032,0.124c0.143,0.057,0.265,0.083,0.388,0.108
			c0-0.007-0.006-0.006-0.006-0.013v-0.15l0.147-0.021c0.628-0.092,0.967,0.128,1.266,0.323c0,0,0.396,0.188,0.493,0.236
			c0.137-0.094,0.313-0.097,0.445-0.086c0,0,0.124-0.003,0.178-0.004c0.007-0.113,0.02-0.216,0.104-0.28
			c0.043-0.032,0.114-0.065,0.221-0.039l0.055,0.013l0.036,0.042c0.068,0.08,0.101,0.077,0.255,0.024
			c0.067-0.023,0.158-0.053,0.258-0.054c-0.009-0.026-0.023-0.046-0.023-0.076c0-0.028,0.006-0.058,0.019-0.089
			c0.046-0.107,0.155-0.14,0.191-0.151l0.082-0.025l0.069,0.05c0.165,0.119,0.215,0.263,0.215,0.404
			c0,0.134-0.045,0.266-0.081,0.371c0,0-0.037,0.146-0.051,0.204c0.054,0.053,0.137,0.143,0.137,0.306
			c0,0.015-0.001,0.031-0.002,0.046c0,0.002-0.231,0.846-0.231,0.846s-0.18,0.646-0.198,0.71c0.065,0.054,0.142,0.132,0.142,0.282
			c0,0.026-0.001,0.053-0.007,0.083c-0.001,0.003-0.128,0.186-0.128,0.186l-0.017,0.067l0.043,0.109l0.104,0.342
			c0,0.004-0.099,0.296-0.099,0.296l0.098,0.089l-0.004,0.196c-0.021,0.043-0.085,0.048-0.132,0.08
			c0.01,0.049,0.022,0.113,0.022,0.113l0.043,0.245c0,0.16-0.082,0.25-0.151,0.298c-0.048,0.023-0.462,0.006-0.462,0.006l-0.21-0.4
			c0,0-0.007-0.026-0.012-0.041c-0.018,0.238-0.037,0.502-0.037,0.502c-0.028,0.168-0.058,0.339-0.058,0.477
			c0,0.103,0.017,0.187,0.062,0.236c0.067,0.072,0.225,0.1,0.456,0.078l0.189-0.018c0,0,0,0.391,0,0.563
			c0.056-0.008,0.111-0.024,0.161-0.022c-0.029-0.05-0.071-0.097-0.071-0.146c0-0.03,0.003-0.057,0.004-0.076l0.011-0.09
			c0,0,0.111-0.044,0.144-0.057c0.059-0.131,0.115-0.26,0.273-0.297c0.001,0,0.092,0.016,0.183,0.031
			c0.013-0.084,0.046-0.168,0.085-0.237c-0.102-0.056-0.265-0.154-0.265-0.318c0-0.033,0.007-0.069,0.022-0.107l0.029-0.069
			l0.075-0.031c0.039-0.014,0.094,0.01,0.137,0.021c-0.023-0.094-0.066-0.172-0.207-0.322l-0.173-0.184l0.233-0.095
			c0.121-0.05,0.3-0.106,0.451-0.025c0.04,0.022,0.056,0.059,0.081,0.089c-0.021-0.053-0.055-0.096-0.055-0.166
			c0-0.014,0.001-0.029,0.002-0.044l0.023-0.32c0,0,0.277,0.214,0.279,0.215c-0.003-0.067-0.006-0.139-0.006-0.139l-0.037-0.137
			l0.015-0.306l0.026-0.085l0.125-0.909c0.014-0.268,0.045-0.542,0.123-0.817c-0.114-0.023-0.255-0.073-0.255-0.277v-0.176
			l0.175,0.002c0.055,0,0.075,0,0.118-0.223c0.027-0.14,0.078-0.369,0.273-0.464c-0.011-0.145-0.029-0.28-0.088-0.351l-0.295-0.361
			l0.459,0.081c0.14,0.024,0.156-0.001,0.208-0.09c0.049-0.08,0.148-0.247,0.381-0.203c0,0,0.021,0.004,0.041,0.008
			c0.02-0.109,0.061-0.217,0.172-0.282c0.107-0.063,0.242-0.067,0.399-0.012l0.144,0.05l-0.052,0.24
			c0.032,0.042,0.249,0.052,0.377,0.004c0.003,0,0.077-0.079,0.077-0.079l0.241-0.256l0.051,0.032h0.5
			c0.298-0.011,0.593-0.006,0.83,0.076c0.029-0.104,0.085-0.217,0.263-0.224l0.097-0.004l0.054,0.08
			c0.027,0.04,0.031,0.046,0.178,0.009c0.126-0.031,0.31-0.036,0.505,0.042c0.105-0.096,0.249-0.134,0.393-0.13
			c-0.018-0.056-0.045-0.114-0.045-0.179c0-0.027,0.004-0.054,0.016-0.083c0.049-0.121,0.184-0.156,0.234-0.169l0.114-0.029
			c0,0,0.082,0.115,0.085,0.119c0.002-0.012,0.067-0.04,0.067-0.04c0.075-0.038,0.176-0.089,0.286-0.042
			c0.01,0.004,0.167,0.197,0.167,0.197l0.055,0.092c0.025-0.136,0.149-0.344,0.465-0.302c0.135,0.023,0.158,0.144,0.172,0.217
			l0.041,0.142c-0.01-0.052,0.07-0.088,0.07-0.088l1.086-0.348l-0.044,0.26c-0.001,0.011-0.001,0.022-0.001,0.032
			c0,0.083,0.044,0.143,0.081,0.208c0.052-0.016,0.108-0.034,0.108-0.034l0.186-0.095l0.061,0.017l0.32-0.003l0.047,0.017
			l0.114,0.182c0,0,0.067,0.141,0.067,0.143c0,0,0.008-0.003,0.012-0.005c0.031-0.157,0.139-0.704,0.139-0.704
			c0.078-0.284,0.154-0.556,0.154-0.902c0-0.063-0.007-0.132-0.012-0.199c-0.57-0.235-1.527-0.235-2.393-0.226
			c0,0-1.233-0.026-1.355-0.029c-0.347,0.301-0.903,0.354-1.45,0.395c0,0-0.444,0.041-0.472,0.043
			c-0.44,0.319-0.933,0.388-1.456,0.441c-0.422,0.043-0.858,0.089-1.298,0.28l-0.172,0.074c0,0-0.024-0.077-0.046-0.146
			c-0.058,0.017-0.116,0.03-0.182-0.004c-0.068-0.035-0.112-0.101-0.133-0.195l-0.018-0.083l0.038-0.039l0.273-0.321
			c0.151-0.145,0.271-0.259,0.29-0.485c-0.005,0.026-0.165-0.267-0.165-0.267c-0.134-0.201-0.26-0.391-0.204-0.571
			c0.019-0.061,0.064-0.142,0.183-0.19l0.136-0.055l0.137,0.224c0.006-0.029,0.075-0.2,0.075-0.33c0-0.025-0.003-0.049-0.009-0.07
			c0,0.002-0.068-0.059-0.068-0.059l-0.313-0.302l0.104-0.068c0.26-0.441,0.485-0.903,0.631-1.449
			c-0.059,0.026-0.126,0.052-0.207,0.016c-0.106-0.047-0.138-0.158-0.147-0.194l-0.028-0.101l0.076-0.071
			c0.144-0.138,0.23-0.314,0.211-0.43c-0.005-0.025-0.019-0.103-0.162-0.167l0.111-0.327c0.108,0.027,0.119,0.013,0.182-0.076
			c0.055-0.078,0.154-0.177,0.316-0.211c-0.024-0.141-0.056-0.281-0.056-0.424c0-0.322,0.053-0.65,0.106-0.989
			c0,0,0.071-0.651,0.099-0.895c-0.13-0.016-0.258-0.051-0.363-0.095C112.536,10.346,112.519,10.366,112.477,10.447L112.477,10.447z
			"/>
		<path fill="#FFFFFF" d="M22.403,17.443c0,0-0.082,0-0.159-0.001c-0.001,0.027-0.001,0.07-0.001,0.07s0.001,0.193,0.001,0.213
			c0.01-0.017,0.067-0.031,0.067-0.031l0.151-0.032c0,0,0.023,0.051,0.045,0.096c0.034-0.057,0.073-0.109,0.119-0.15
			c0.007-0.042,0.029-0.179,0.029-0.183C22.654,17.443,22.403,17.443,22.403,17.443L22.403,17.443z M9.535,14.104
			c-0.071,0.036-0.065,0.144-0.056,0.204c0.056,0.054,0.257-0.006,0.374-0.066c-0.037-0.035-0.082-0.079-0.082-0.079
			C9.698,14.089,9.594,14.075,9.535,14.104L9.535,14.104z M33.813,9.991l-0.506,0.342l-0.081-0.16
			c-0.074-0.117-0.422-0.089-0.701-0.067c0,0-0.377-0.001-0.536-0.002c-0.171,0.253-0.387,0.229-0.568,0.185
			c0,0-0.139-0.01-0.276-0.02c0.013,0.012,0.351,0.318,0.351,0.318l-0.239,0.085c-0.54,0.298-0.891,0.039-1.201-0.19
			c0,0-0.023-0.017-0.037-0.027c-0.221,0.26-0.618,0.273-0.948,0.248l-0.371-0.009l-0.48,0.143l-0.558,0.151l-0.313-0.083
			l-0.271-0.064l-0.927,0.157c-0.839,0.152-0.846,0.15-0.909,0.126l-0.16-0.061c0,0,0.081-0.218,0.083-0.222
			c-0.01-0.001-0.054-0.006-0.054-0.006c-0.261-0.07-0.343-0.002-0.467,0.098c-0.116,0.095-0.261,0.212-0.522,0.201
			c-0.581,0.092-1.199,0.008-1.746-0.066l-0.749-0.081c0.004,0-0.221,0.058-0.221,0.058l-0.45,0.111l-0.052-0.118l-0.071-0.065
			c-0.2-0.047-0.395,0.011-0.553,0.057c-0.156,0.046-0.304,0.089-0.434-0.002c-0.061-0.044-0.096-0.105-0.116-0.17
			c-0.534,0.096-1.026,0.039-1.581-0.047c-0.542-0.084-1.156-0.18-1.93-0.117L16,10.712l0.034-0.217
			c0.008-0.05,0.003-0.081-0.006-0.09c-0.052-0.055-0.306-0.028-0.428-0.015c0,0-0.303,0.01-0.304,0.01l-1.016-0.292
			c-0.288-0.022-0.567,0.051-0.752,0.1l-0.277,0.047c-0.089,0.001-0.149-0.071-0.182-0.109c-0.032-0.037-0.035-0.041-0.078-0.038
			c-0.771,0.078-1.002,0.284-1.203,0.525l-0.05,0.06l-0.019-0.01l-0.418,0.011c0,0-0.061-0.003-0.121-0.006
			c0.011,0.017,0.033,0.019,0.042,0.036c0.024,0.051,0.036,0.105,0.036,0.159c0,0.052-0.011,0.103-0.033,0.151
			c-0.052,0.122-0.176,0.119-0.284,0.105c0.001,0.047,0.002,0.155,0.002,0.155c-0.113,0.456-0.498,1.006-0.705,1.302
			c0,0-0.011,0.015-0.021,0.029c0.01,0.09,0.019,0.18,0.019,0.26c0,0.269-0.047,0.486-0.092,0.699c0,0-0.083,0.504-0.084,0.512
			c0.096-0.079,0.2-0.164,0.2-0.164l-0.048,0.425c-0.002,0.021-0.004,0.039-0.004,0.055c0,0.094,0.056,0.124,0.315,0.168
			c0,0,0.055,0.01,0.096,0.018c0.116-0.048,0.323-0.133,0.323-0.133s0.142-0.054,0.23-0.088c-0.068-0.293-0.119-0.586-0.119-0.867
			c0-0.813,0.277-1.537,0.784-1.95c0.459-0.192,0.649-0.036,0.757,0.109c0.031-0.07,0.078-0.135,0.159-0.169
			c0.066-0.029,0.175-0.043,0.315,0.048c0.01,0.006,0.352,0.428,0.352,0.428l0.301,0.455l-0.3,0.023
			c-0.215,0.009-0.299,0.271-0.38,0.585l-0.05,0.178c0,0-0.077,0.173-0.077,0.173c-0.056,0.107-0.088,0.172-0.063,0.33l0.038,0.234
			l-0.234-0.034c-0.086-0.013-0.097,0.003-0.156,0.09c0,0-0.045,0.048-0.09,0.096c-0.004,0.059-0.012,0.176-0.012,0.176
			c-0.019,0.353-0.065,0.801-0.457,0.916c-0.001,0.007-0.006,0.014-0.006,0.021c0,0.053,0.032,0.111,0.089,0.2
			c0.047,0.074,0.104,0.161,0.104,0.259c0,0.029-0.005,0.06-0.017,0.091c-0.053,0.14-0.211,0.185-0.263,0.2
			c0,0-0.09,0.025-0.139,0.04c-0.087,0.388-0.126,0.76-0.138,1.141l-0.039,0.724c-0.038,0.209-0.167,0.302-0.287,0.37
			c0.002,0.044,0.007,0.089,0.007,0.132c0,0.458-0.143,0.845-0.28,1.222c-0.13,0.353-0.254,0.691-0.254,1.075
			c0,0.161,0.022,0.33,0.075,0.511l0.066,0.229l-0.238-0.007c-0.107-0.003-0.175,0.043-0.249,0.085l0.001,0.008l-0.121,0.414
			l-0.046,0.102c-0.002,0.007-0.055,0.3-0.055,0.3l-0.102,0.458c-0.006,0.012-0.241,0.157-0.241,0.157s-0.025,0.009-0.05,0.018
			c-0.004,0.033-0.008,0.068-0.008,0.068l0.033,0.436l-0.031,0.323l-0.154-0.02c0,0-0.105,0-0.211,0
			c0.026,0.086,0.055,0.179,0.055,0.179l-0.132,0.453c-0.07,0.147-0.138,0.287-0.138,0.493l0.017,0.223l-0.26,0.27l-0.203,0.194
			c0.042-0.023,0.166,0.209,0.166,0.209l0.058,0.108l-0.077-0.023L8.78,25.964l-0.2,0.194c0,0.002-0.274,0.676-0.274,0.676
			c-0.011,0.158-0.143,0.232-0.236,0.281c0.016,0.03,0.047,0.055,0.047,0.09c0,0.048-0.02,0.204-0.266,0.217
			c-0.046,0.1-0.127,0.209-0.258,0.261c0.002,0.024,0.011,0.056,0.011,0.078c0,0.31-0.189,0.406-0.403,0.458l-0.131,0.045
			c0,0.002-0.11,0.172-0.11,0.172l-0.173,0.26c-0.345,0.314-0.689,0.269-1.021,0.225l-0.519-0.038l-0.061-0.101
			c-0.104-0.257-0.309-0.375-0.545-0.512l-0.442-0.311C4.1,27.885,4.127,27.744,4.145,27.65l0,0c0-0.004-0.266-0.162-0.266-0.162
			l0,0c0-0.002-0.107-0.363-0.107-0.363s-0.052-0.248-0.053-0.25c-0.002,0.002-0.075-0.088-0.075-0.088l-0.229-0.389
			C3.417,26.398,3.417,26,3.417,26l0.001-0.321c0,0.001-0.098-0.127-0.098-0.127c-0.091-0.102-0.218-0.246-0.218-0.423
			c0-0.046,0.009-0.094,0.028-0.145c0,0-0.009-0.598-0.011-0.732c-0.104-0.077-0.255-0.187-0.255-0.187
			c-0.103-0.103-0.157-0.121-0.285-0.069c-0.012,0.166-0.021,0.329-0.021,0.481c0,0.453,0.043,0.862,0.089,1.289
			c0,0,0.063,1.247,0.076,1.491c0.104,0.016,0.291,0.057,0.301,0.279c-0.004,0.035-0.007,0.068-0.007,0.101
			c0,0.319,0.201,0.511,0.413,0.714c0.188,0.18,0.411,0.393,0.411,0.682c0,0.004-0.005,0.01-0.005,0.014
			c0.029-0.016,0.061-0.013,0.093-0.033l0.326-0.214l-0.06,0.385c-0.006,0.037-0.009,0.069-0.009,0.099
			c0,0.182,0.11,0.233,0.338,0.322c0.176,0.069,0.375,0.193,0.476,0.421c0.392,0.04,0.721,0.14,1.033,0.241
			c0,0,0.462,0.131,0.586,0.166c0.359-0.371,0.8-0.724,1.34-1.071c0-0.128,0-0.63,0-0.63l0.203-0.038l0.195-0.054
			c0.072-0.049,0.174-0.102,0.314-0.111c0.008-0.144,0.063-0.242,0.112-0.316l0.075-0.266l0.052-0.104L9.17,27.68
			c0,0,0.148-0.123,0.229-0.188c0-0.004-0.005-0.005-0.005-0.009c0-0.092,0.026-0.181,0.036-0.209
			c0.056-0.17,0.173-0.262,0.309-0.307c0.005-0.083,0.013-0.242,0.013-0.242C9.75,26.682,9.75,26.637,9.75,26.592
			c0-0.236,0.02-0.48,0.166-0.636c0.061-0.075,0.158-0.067,0.271-0.053c0.016-0.137,0.047-0.393,0.047-0.393l0.083-0.66
			c0.001,0.003,0.148-0.227,0.148-0.227l0.144-0.208c0.082-0.324,0.196-0.492,0.429-0.621c-0.003-0.044-0.009-0.091-0.009-0.132
			c0-0.237,0.049-0.422,0.097-0.604c0.044-0.166,0.086-0.326,0.086-0.526c0-0.075-0.006-0.156-0.02-0.245l-0.036-0.229
			c0,0,0.332,0.045,0.334,0.045c-0.001,0-0.002-0.002-0.002-0.006c0-0.027,0.024-0.143,0.024-0.143l0.166-0.39
			c0,0,0.062-0.013,0.12-0.025c0.025-0.153,0.069-0.422,0.069-0.422c0.04-0.155,0.079-0.304,0.079-0.491
			c0-0.075-0.006-0.155-0.021-0.245l-0.037-0.223c0,0,0.351,0.036,0.354,0.037c-0.019-0.002-0.029-0.208-0.029-0.208l0.02-0.442
			c0.049-0.107,0.165-0.126,0.249-0.14c0,0,0.023-0.005,0.045-0.011c-0.006-0.023-0.018-0.068-0.018-0.068v-0.949l0.047-0.05
			c0.234-0.25,0.27-0.517,0.308-0.8s0.11-0.596,0.37-0.874c-0.04-0.137-0.073-0.264-0.073-0.351c0-0.16,0.063-0.252,0.17-0.342
			l0.078-0.088c-0.002,0.004-0.014-0.187-0.014-0.187l0.005-0.38c0,0.001,0.146-0.213,0.146-0.213l0.144-0.211
			c0.085-0.341,0.199-0.513,0.456-0.643c0.004-0.013,0.009-0.026,0.009-0.04c0-0.059-0.032-0.118-0.077-0.193
			c-0.034-0.057-0.076-0.128-0.076-0.205c0-0.036,0.009-0.073,0.032-0.11c0.05-0.082,0.148-0.094,0.252-0.101
			c0.021-0.629,0.11-1.082,0.305-1.397l0.058-0.094l0.629,0.072c0.688,0.072,1.388,0.157,1.843,0.518
			c0.316-0.125,0.638-0.045,0.926,0.051l0.387,0.107c0.001,0,1.268,0.144,1.268,0.144c0.714,0.067,1.39,0.13,1.982,0.3l0.228,0.065
			l-0.108,0.149l-0.211,0.319c0,0-0.03,0.032-0.043,0.044c0.008,0.001,0.014,0.011,0.024,0.021c0.222,0.083,0.244,0.052,0.309-0.1
			c0.041-0.098,0.139-0.228,0.3-0.297c-0.01-0.04-0.02-0.08-0.02-0.08c-0.022-0.044-0.053-0.104-0.053-0.173
			c0-0.028,0.006-0.058,0.019-0.089c0.046-0.107,0.155-0.141,0.19-0.151l0.119-0.036l0.072,0.101
			c0.129,0.178,0.416,0.241,0.721,0.307l0.958,0.321l-0.227,0.18c-0.3,0.313-0.34,0.937-0.38,1.54
			c-0.027,0.412-0.056,0.837-0.167,1.182c-0.052,0.128-0.165,0.134-0.29,0.125c0.001,0.113,0.003,0.252,0.003,0.252
			c0.01,0.088,0.02,0.187,0.02,0.283c0,0.182-0.064,0.333-0.213,0.417c0.031,0.063,0.044,0.132,0.048,0.173l0.004,0.045
			l-0.019,0.042c-0.275,0.618-0.299,1.25-0.299,1.867c0,0.063,0.001,0.311,0.001,0.372c0,0.449-0.013,0.875-0.135,1.265
			l-0.198,0.315c-0.08,0.093-0.121,0.144-0.121,0.209c0,0.027,0.008,0.058,0.021,0.095l0.015,0.036c0,0-0.004,0.064-0.004,0.076
			c0,0.135,0.053,0.211,0.124,0.314l0.219,0.434l-0.091,0.052c-0.17,0.193-0.233,0.399-0.233,0.622c0,0.271,0.093,0.569,0.196,0.906
			c0.114,0.368,0.241,0.778,0.241,1.207c0,0.003-0.001,0.005-0.001,0.008c0.366-0.075,0.563,0.078,0.707,0.229
			c0.1,0.103,0.203,0.183,0.359,0.23c-0.038-0.041-0.078-0.091-0.078-0.157c0-0.024,0.005-0.051,0.016-0.078
			c0.048-0.121,0.183-0.156,0.234-0.168l0.146-0.038l0.07,0.177c0,0,0.093,0.003,0.094,0.003v0c0-0.006,0.131-0.102,0.131-0.102
			c0.097-0.099,0.241-0.234,0.527-0.208c0.027-0.072,0.032-0.17,0.096-0.201c0.047-0.023,0.123-0.005,0.204,0.015
			c0.004-0.013,0.11-0.327,0.11-0.327c0,0,0.251-0.176,0.251-0.176s0.086-0.066,0.172-0.133c-0.074-0.08-0.125-0.169-0.156-0.239
			l-0.111-0.245c0,0,0.471,0,0.644,0c-0.004-0.018-0.166-0.658-0.166-0.658l0.244,0.072c0.083,0.006,0.117-0.025,0.194-0.115
			l0.285-0.176c0,0,0.041,0.021,0.055,0.029c-0.015-0.128-0.033-0.251-0.101-0.346l-0.179-0.251c0,0,0.337-0.023,0.34-0.023
			c-0.001-0.001-0.254-0.376-0.254-0.376l0.422,0.088c0.148,0.037,0.216,0.019,0.23,0.005s0.033-0.083-0.001-0.239l-0.113-0.51
			c0,0,0.42,0.362,0.429,0.37c0.047-0.088,0.132-0.155,0.268-0.19c0-0.169,0-0.471,0-0.616c-0.146-0.081-0.312-0.124-0.538-0.094
			l-0.21,0.027l0.015-0.211c0.004-0.06-0.006-0.091-0.016-0.101c-0.004-0.004-0.045-0.027-0.166-0.016
			c-0.041,0.047-0.094,0.106-0.094,0.106c-0.412,0.468-0.803,0.911-1,1.542l-0.022,0.07l-0.132,0.051l-0.091,0.045
			c0,0-0.106,0.027-0.212,0.054c-0.032,0.249-0.143,0.421-0.247,0.55c-0.108,0.132-0.192,0.236-0.192,0.43
			c0,0.053,0.007,0.113,0.021,0.182l0.032,0.163l-0.161,0.04c-0.194,0.048-0.322,0.162-0.47,0.294l-0.555,0.414l-0.059-0.227
			c-0.188-0.48-0.241-0.982-0.241-1.489c0-0.35,0.025-0.702,0.051-1.049l0.032-0.469l-0.065-0.31l-0.082-0.419
			c0,0.004,0.116-0.279,0.116-0.279c0.034-0.046,0.086-0.287,0.086-0.287s0.207-0.671,0.237-0.768
			c-0.017-0.121-0.026-0.237-0.026-0.343c0-0.418,0.108-0.724,0.199-0.981l0.123-0.441l-0.008-0.391l0.01-0.504
			c0.037-0.182,0.175-0.258,0.258-0.303c0.025-0.034,0.036-0.066,0.036-0.1c0-0.054-0.028-0.11-0.065-0.179l-0.137-0.472
			l0.106,0.083l0.25-0.045c0,0,0.01,0,0.011,0c0.024-0.182,0.09-0.67,0.09-0.67l0.038-0.366l0.041-0.204
			c0.063-0.313,0.109-0.539,0.109-0.858c0-0.067-0.002-0.139-0.007-0.216l-0.017-0.3l0.268,0.136c0.208,0.105,0.433,0,0.691-0.123
			l0.527-0.188c0.003,0,0.559,0.077,0.559,0.077s0.174,0.034,0.268,0.053c0.068-0.066,0.146-0.115,0.176-0.124
			c0.013-0.003,0.213-0.008,0.213-0.008l0.108,0.002c0.007,0,5.577-0.572,5.702-0.584c0.228-0.223,0.563-0.307,0.908-0.365
			c0.477-0.081,0.76-0.168,0.834-0.464c-0.174-0.154-0.286-0.356-0.286-0.638c0-0.094,0.01-0.194,0.029-0.302l0.025-0.143
			c0,0,0.284,0,0.412,0c0-0.183,0-0.447,0-0.653c-0.028,0.004-0.071,0.011-0.071,0.011c-0.216,0.036-0.37,0.063-0.463-0.071
			c-0.028-0.041-0.04-0.084-0.04-0.13c0-0.043,0.043-0.104,0.061-0.152C34.307,9.627,34.073,9.795,33.813,9.991L33.813,9.991z"/>
		<path fill="#FFFFFF" d="M171.448,15.569c0.082-0.078,0.16-0.132,0.234-0.166c-0.05-0.052-0.099-0.114-0.106-0.141l-0.011-0.039
			c0,0,0.002-0.009,0.004-0.018C171.517,15.283,171.451,15.464,171.448,15.569L171.448,15.569z M170.28,2.404
			c-0.005,0.017-0.01,0.034-0.01,0.034c-0.049,0.165-0.078,0.253-0.109,0.33c0.011,0.016,0.101,0.155,0.101,0.155l0.22,0.43
			l-0.037,0.02c-0.034,0.142-0.16,0.145-0.301,0.135c0,0.118,0,0.292,0,0.292s0.008,0.302,0.01,0.379
			c0.031,0.013,0.063,0.026,0.063,0.026l0.009,0.137c0,0.046-0.059,0.23-0.141,0.39c0.059,0.05,0.09,0.107,0.09,0.16v0.056
			l-0.051,0.1c-0.074,0.103-0.198,0.09-0.302,0.075c-0.006,0.082-0.028,0.153-0.075,0.208c0.009,0.04,0.043,0.078,0.043,0.118
			c0,0.099-0.022,0.194-0.043,0.275l-0.032,0.229c0,0.002,0.05,0.079,0.05,0.079l0.096,0.261l-0.156,0.26
			c0,0-0.14,0.199-0.143,0.204c0.01,0,0.035,0.165,0.035,0.165c0.018,0.066,0.039,0.148,0.039,0.231
			c0,0.098-0.033,0.196-0.134,0.273c0.002,0.023,0.021,0.048,0.021,0.071c0,0.259-0.111,0.509-0.213,0.74
			c-0.102,0.23-0.177,0.411-0.177,0.571c0,0.146,0.063,0.274,0.225,0.404l0.177,0.142l-0.184,0.133
			c-0.182,0.131-0.286,0.286-0.304,0.447c-0.002,0.017-0.003,0.033-0.003,0.05c0,0.139,0.063,0.28,0.188,0.422l0.255,0.289
			c0,0-0.459,0-0.534,0c-0.095,0.438-0.149,0.877-0.149,1.15c0,0.108,0.008,0.19,0.022,0.237c0.076,0.251,0.101,0.438,0.101,0.596
			c0,0.149-0.022,0.272-0.045,0.398c0,0-0.015,0.171-0.029,0.323l0.006-0.001c0.063-0.031,0.155-0.077,0.26-0.033
			c0.104,0.045,0.139,0.151,0.149,0.186l0.045,0.142l-0.199,0.083l-0.091,0.045c0,0-0.094,0.023-0.188,0.047
			c0,0.152,0,0.541,0,0.742c0.009,0,0.03,0.001,0.03,0.001c0.192-0.001,0.485-0.002,0.552,0.271l0.05,0.205l-0.424,0.018
			c0,0-0.047,0.004-0.09,0.007c0.004,0.004,0.02,0.02,0.02,0.02c0.183,0.167,0.396,0.363,0.396,0.655
			c0,0.022-0.02,0.054-0.022,0.078c0.004,0,0.294-0.066,0.294-0.066l-0.006,0.325c0,0-0.003,0.013-0.004,0.015
			c0.035-0.018,0.072-0.015,0.112-0.041l0.288-0.188c0,0-0.022,0.365-0.022,0.375c0,0.119,0.046,0.195,0.117,0.3
			c0,0,0.027,0.04,0.05,0.071c0.01,0,0.013,0,0.023,0c-0.007-0.036-0.032-0.087-0.032-0.118c0-0.175,0.101-0.275,0.232-0.381
			l0.419-0.391l0.071,0.318c0,0,0.007,0.037,0.014,0.074c0.021-0.092,0.045-0.188,0.045-0.188c0.034-0.05,0.053-0.087,0.057-0.14
			c-0.104-0.012-0.208-0.041-0.296-0.119c-0.111-0.099-0.175-0.228-0.175-0.347c0-0.03,0.004-0.059,0.013-0.088
			c0.035-0.122,0.141-0.206,0.289-0.231l0.167-0.028c0,0,0.036,0.191,0.036,0.193c0.11-0.154,0.236-0.323,0.42-0.313l0.344,0.017
			l-0.006,0.007c0.046-0.022,0.096-0.048,0.134-0.061c0,0,0.043-0.019,0.081-0.035c0-0.115,0-0.375,0-0.58
			c-0.007,0.002-0.026,0.006-0.026,0.006c-0.063,0.031-0.157,0.078-0.261,0.032c-0.106-0.047-0.138-0.158-0.147-0.194l-0.028-0.104
			c0,0,0.191-0.169,0.194-0.171c-0.011,0.02-0.24-0.135-0.24-0.135l-0.528-0.455l0.228-0.055c0.174-0.127,0.272-0.336,0.327-0.598
			c-0.186-0.063-0.27-0.231-0.297-0.332l-0.046-0.124l0.244-0.246c0.038,0.04,0.065,0.053,0.073,0.052
			c0.016-0.002,0.061-0.046,0.123-0.132c-0.017-0.012-0.044-0.007-0.058-0.022c-0.079-0.082-0.102-0.189-0.102-0.303
			c0-0.088,0.013-0.181,0.027-0.268c0,0,0.002-0.034,0.003-0.049c-0.182,0.104-0.386,0.127-0.476,0.133l-0.106,0.008l-0.078-0.18
			l-0.033-0.056l-0.11-0.204l0.294-0.155c0.116,0.118,0.16,0.098,0.352-0.017c0.102-0.06,0.229-0.117,0.372-0.15
			c-0.007-0.175-0.021-0.512-0.021-0.512c-0.009-0.144-0.017-0.274-0.017-0.399c0-0.225,0.044-0.454,0.138-0.721
			c-0.065-0.01-0.133-0.02-0.133-0.02c-0.091,0.016-0.26,0.045-0.381-0.178L171.24,8.59l0.134-0.132l0.123-0.141
			c0.067-0.104,0.188-0.226,0.38-0.277c0.012-0.128,0.041-0.455,0.041-0.455c0.001-0.226,0.003-0.439,0.11-0.661
			c0.001-0.002,0.21-0.195,0.231-0.213c-0.057-0.093-0.091-0.194-0.097-0.273c-0.021,0-0.641-0.019-0.641-0.019l0.237-0.267
			l0.151-0.236c0.088-0.165,0.226-0.374,0.54-0.318c0-0.227,0-0.5,0-0.722c-0.102,0.001-0.198-0.027-0.282-0.089
			c-0.119-0.09-0.189-0.236-0.189-0.376c0-0.032,0.003-0.063,0.011-0.094c0.035-0.141,0.149-0.235,0.301-0.266
			c-0.05-0.073-0.104-0.143-0.104-0.245c0-0.051,0.047-0.134,0.067-0.198c-0.112-0.025-0.243-0.078-0.243-0.275V3.158
			c0,0,0.376,0,0.549,0c-0.028-0.104-0.059-0.212-0.059-0.212c-0.008-0.115-0.02-0.272-0.064-0.311c0,0-0.016-0.002-0.025-0.003
			c-0.036,0.056-0.098,0.151-0.098,0.151c-0.087,0.17-0.216,0.428-0.57,0.428h-0.104l-0.049-0.092
			c-0.038-0.07-0.053-0.134-0.053-0.193c-0.029-0.003-0.059-0.006-0.085-0.018c-0.063-0.028-0.17-0.106-0.177-0.305l-0.005-0.173
			l0.173-0.006c0.171-0.005,0.269-0.071,0.334-0.171c-0.097,0.064-0.225,0.143-0.4,0.062c-0.095-0.038-0.119-0.121-0.119-0.22
			c0-0.058,0.008-0.122,0.017-0.185c0,0,0.003-0.026,0.005-0.046c-0.082,0.004-0.221,0.012-0.221,0.012l-0.392,0.007
			c-0.016-0.003-0.02-0.019-0.032-0.025C170.611,2.078,170.412,2.297,170.28,2.404L170.28,2.404z"/>
		<path fill="#FFFFFF" d="M31.677,21.058c0-0.374,0.171-0.749,0.338-1.115l0.17-0.389c0-0.001,0.139-0.553,0.139-0.553l0.383-1.343
			l0.199,0.22c0.234,0.222,0.349,0.571,0.349,1.066c0,0.025-0.001,0.051-0.001,0.077c0.016,0.043,0.037,0.086,0.037,0.125
			c0,0.042-0.009,0.081-0.026,0.118c-0.052,0.108-0.153,0.145-0.245,0.168c0.044,0.091,0.088,0.186,0.088,0.186l-0.052,0.368
			c-0.046,0.252-0.114,0.632-0.114,0.975c0,0.243,0.034,0.467,0.136,0.614l0.152,0.224l-0.267,0.045
			c-0.195,0.033-0.234,0.239-0.253,0.717c-0.018,0.44-0.04,1.042-0.655,1.046l-0.199,0.002l0.026-0.197
			c0.053-0.406-0.061-0.577-0.204-0.794c-0.188-0.285-0.402-0.609-0.234-1.421l0.049-0.236c0,0,0.184,0.115,0.188,0.118
			C31.68,21.072,31.677,21.065,31.677,21.058L31.677,21.058z M32.965,16.035c0,0-0.303,0.087-0.304,0.088
			c-0.003,0-0.464,0.017-0.464,0.017c-0.252-0.002-0.489,0.014-0.729,0.102c-0.028,0.47-0.286,0.749-0.716,0.842
			c-0.01,0.135-0.037,0.55-0.037,0.55c-0.023,0.455-0.046,0.745-0.247,1.265c0.005,0.033,0.052,0.35,0.052,0.35
			c0.021,0.099,0.044,0.202,0.044,0.306c0,0.18-0.068,0.358-0.333,0.509l-0.234,0.133c0,0-0.015-0.167-0.021-0.232
			c-0.061,0.054-0.136,0.086-0.225,0.11c0.012,0.083,0.03,0.171,0.03,0.247c0,0.35-0.104,0.624-0.2,0.874l-0.145,0.497
			c0,0.001,0.052,0.224,0.052,0.224l0.096,0.341c0,0.004-0.121,0.394-0.121,0.394c-0.048,0.09-0.071,0.141-0.071,0.185
			c0,0.024,0.008,0.046,0.022,0.072l-0.061-0.062c0.267,0.16,0.4,0.419,0.4,0.773c0,0.033-0.007,0.071-0.009,0.105
			c0.391,0.039,0.532-0.148,0.697-0.388l0.312,0.139l-0.166,0.418c-0.084,0.169-0.159,0.321-0.159,0.548
			c0,0.075,0.011,0.16,0.029,0.253c0.084,0.103,0.286,0.352,0.286,0.352s0.052,0.079,0.089,0.135
			c0.239,0.039,0.346-0.033,0.482-0.14l0.338-0.228l0.068,0.101l0.229,0.237c0.156,0.182,0.269,0.314,0.54,0.311
			c0.206,0.031,0.317-0.124,0.445-0.33l0.238-0.25c0.112-0.028,0.189,0.031,0.26,0.083c0.001-0.002,0.005-0.013,0.005-0.013
			c0.044-0.157,0.104-0.373,0.278-0.488c0.082-0.05,0.164-0.028,0.245,0c-0.039-0.062-0.045-0.121-0.045-0.147v0
			c0-0.125,0.089-0.239,0.217-0.277c0.03-0.008,0.063-0.009,0.098-0.009c0.001-0.065,0.003-0.143,0.003-0.143
			c-0.001-0.054-0.002-0.107-0.002-0.161c0-0.355,0.025-0.701,0.243-0.902c0.085-0.078,0.209-0.099,0.334-0.118
			c-0.01-0.19-0.018-0.379-0.018-0.561c0-0.612,0.046-1.177,0.091-1.728c0.045-0.545,0.091-1.104,0.091-1.707
			c0-0.179-0.004-0.363-0.013-0.55l-0.01-0.188l0.188,0.006c0.1,0.003,0.165-0.042,0.235-0.081
			c-0.016-0.068-0.049-0.144-0.049-0.205c0-0.128,0.028-0.241,0.054-0.341l0.027-0.331c-0.001,0.001-0.133-0.134-0.133-0.134
			c-0.138-0.118-0.348-0.3-0.348-0.599c0-0.005,0.003-0.012,0.003-0.018c-0.179,0.002-0.431,0.007-0.431,0.007l-0.728-0.013
			l-0.353-0.195l-0.199-0.094C33.219,15.978,32.965,16.035,32.965,16.035L32.965,16.035z"/>
		<path fill="#FFFFFF" d="M41.449,26.873c0.109,0.201,0.211,0.273,0.248,0.271c0.011-0.001,0.032-0.02,0.053-0.042
			c-0.137-0.016-0.271-0.068-0.312-0.248C41.441,26.859,41.449,26.873,41.449,26.873L41.449,26.873z M39.989,18.702
			c-0.153-0.185-0.212-0.371-0.212-0.551c0-0.38,0.262-0.734,0.455-0.997l0.223-0.323l0.084-0.024
			c0.554-0.077,0.872,0.094,1.151,0.245l0.216,0.114v0.14l0.006,0.428l-0.006,0.601c-0.001,0.002-0.235,0.278-0.235,0.278
			s-0.067,0.058-0.078,0.067c0.003,0.001,0.004,0.009,0.004,0.022c0,0.041-0.009,0.121-0.009,0.121l-0.158,0.439
			c0,0-0.131,0.026-0.256,0.051c-0.016,0.667-0.392,0.985-0.73,1.264c-0.284,0.234-0.53,0.437-0.59,0.83l-0.03,0.203l-0.194-0.064
			c-0.281-0.093-0.344-0.262-0.344-0.411c0-0.076,0.017-0.146,0.028-0.199l0.019-0.122l-0.196-0.127l0.142-0.172
			c0.436-0.37,0.581-1.062,0.714-1.808L39.989,18.702L39.989,18.702z M39.57,15.906c0.001,0.014,0.003,0.03,0.003,0.042
			c0,0.47-0.324,0.632-0.547,0.744c-0.056,0.017-0.472-0.075-0.472-0.075s-0.035-0.01-0.064-0.02
			c-0.087,0.368-0.21,0.745-0.554,0.922c-0.025,0.545-0.122,0.932-0.319,1.18l-0.149,0.188c0,0-0.171-0.267-0.179-0.279
			c-0.056,0.367-0.084,0.764-0.084,1.188c0,0.205,0.003,0.413,0.007,0.618l0.003,1.037l-0.046,0.045
			c-0.19,0.208-0.29,0.45-0.352,0.715c0.088-0.058,0.182-0.119,0.182-0.119c0.264-0.025,0.502-0.031,0.593,0.139
			c0.017,0.032,0.021,0.064,0.024,0.096c0.063-0.018,0.152-0.018,0.192-0.053l0.36-0.312l-0.076,0.471
			c-0.005,0.031-0.008,0.057-0.008,0.08c0,0.109,0.068,0.142,0.316,0.195c0.18,0.038,0.398,0.113,0.509,0.315
			c0.064-0.002,0.132-0.02,0.191-0.018c0,0,0.35-0.029,0.373-0.031c0,0,0,0,0,0c0-0.013,0.046-0.065,0.046-0.065l0.258-0.227
			l0.345,0.001c0,0,0.093,0.004,0.154,0.008c0.008-0.111,0.024-0.213,0.11-0.274c0.036-0.025,0.113-0.064,0.227-0.029
			c0.125-0.018,0.221,0.051,0.323,0.104c0.003-0.113,0.075-0.271,0.197-0.364c0.059-0.045,0.186-0.098,0.352-0.063
			c-0.008-0.049-0.03-0.098-0.03-0.146c0-0.204,0.08-0.396,0.342-0.544l0.176-0.099c0,0,0.035,0.092,0.057,0.15
			c0.072-0.109,0.159-0.231,0.308-0.219l0.152,0.012l0.007,0.153c0.05,1.117-0.168,1.87-0.397,2.668l-0.358,1.41l-0.071,0.045
			c-0.263,0.137-0.46,0.325-0.69,0.556l-0.053,0.053l-0.075-0.002c-0.224-0.006-0.382,0.029-0.47,0.105l-0.232,0.199l-0.051-0.303
			c-0.022-0.136-0.108-0.214-0.218-0.313c0,0-0.069-0.072-0.125-0.131c-0.381-0.011-0.64,0.05-0.822,0.157
			c0.032,0.082,0.048,0.173,0.048,0.263c0,0.011-0.001,0.021-0.002,0.03c0.168,0.066,0.286,0.184,0.35,0.279l0.078,0.104
			c0.148,0.009,0.238,0.086,0.262,0.227c-0.003-0.014-0.025-0.053-0.066-0.07c0.535,0.26,0.94,0.215,1.5,0.153l0.292-0.031
			c0,0,0.011,0.021,0.021,0.041c-0.002-0.024-0.016-0.153-0.016-0.153l0.56-0.068c0.132-0.031,0.252-0.021,0.427,0.023
			c0.093-0.154,0.286-0.477,0.286-0.477c0.262-0.385,0.51-0.75,0.51-1.368c0-0.048-0.002-0.099-0.005-0.15l-0.004-0.066l0.076-0.085
			l0.257-0.329c0,0,0.059-0.09,0.102-0.155c-0.064-0.15-0.119-0.301-0.119-0.451c0-0.27,0.08-0.536,0.154-0.782l0.122-0.508
			l-0.076-0.309l-0.071-0.269c0,0.006,0.083-0.177,0.083-0.177c0.045-0.055,0.075-0.096,0.075-0.16c0-0.014-0.003-0.03-0.006-0.046
			c-0.043-0.061-0.088-0.134-0.143-0.283c-0.015-0.006-0.157-0.344-0.157-0.344c0.002,0,0.088-0.499,0.088-0.499
			s0.06-0.25,0.06-0.25c-0.001,0-0.068-0.345-0.068-0.345l-0.079-0.379c0,0.003,0.087-0.39,0.087-0.39l0.061-0.209
			c0,0.002-0.037-0.067-0.037-0.067l-0.107-0.395c0.002,0,0.104-0.171,0.104-0.171l0.041-0.097c-0.001,0-0.036-0.313-0.036-0.313
			c-0.02-0.115-0.04-0.238-0.04-0.366c0-0.038,0.022-0.08,0.026-0.119l-0.652,0.165l0.119-0.282c0.01-0.042,0.015-0.077,0.015-0.106
			c0-0.086-0.043-0.123-0.119-0.189c-0.101-0.086-0.239-0.206-0.239-0.451c0-0.041,0.019-0.097,0.027-0.145
			c-0.156-0.077-0.42-0.207-0.42-0.207c-0.325-0.193-0.605-0.359-1.131-0.304l-0.155,0.017l-0.066-0.321l0.001-0.014
			C40.553,15.459,40.09,15.684,39.57,15.906L39.57,15.906z"/>
		<g>
			<path fill="#FFFFFF" d="M60.508,17.497c-0.007-0.099-0.021-0.306-0.023-0.337c-0.052,0.11-0.089,0.242-0.089,0.386
				c0,0.016,0.001,0.032,0.002,0.048C60.415,17.549,60.472,17.531,60.508,17.497z"/>
			<path fill="#FFFFFF" d="M65.701,17.877c-0.057-0.09-0.082-0.199-0.082-0.304c0-0.003,0.001-0.005,0.001-0.007
				c-0.107-0.025-0.209-0.069-0.233-0.182c-0.002-0.011-0.004-0.026-0.004-0.042c0-0.029,0.013-0.066,0.033-0.102
				c-0.069-0.084-0.161-0.194-0.161-0.194c-0.177-0.151-0.388-0.333-0.388-0.714c0-0.024,0.008-0.056,0.01-0.082
				c-0.024-0.003-0.063-0.007-0.063-0.007c-0.742-0.086-1.327-0.153-2.054,0.022c-0.098,0.047-0.18,0.166-0.276,0.303l-0.726,0.718
				l0.055-0.459c0.009-0.466,0.313-0.658,0.558-0.813c0.091-0.057,0.151-0.126,0.222-0.191c-0.104-0.038-0.219,0.009-0.454,0.187
				c-0.244,0.185-0.544,0.412-0.946,0.41c-0.07,0.092-0.112,0.237-0.148,0.389c-0.046,0.195-0.103,0.391-0.229,0.54
				c0.005-0.001,0.024-0.006,0.024-0.006v1.274c0,0-0.583,0-0.767,0c-0.062,0.186-0.104,0.374-0.104,0.567
				c0,0.29,0.052,0.584,0.103,0.874c0.049,0.283,0.101,0.572,0.101,0.853c0,0.178-0.021,0.353-0.074,0.521l-0.023,0.073l-0.12,0.069
				l-0.015,0.006c-0.001,0.059-0.164,0.372-0.164,0.372s-0.065,0.007-0.126,0.014c-0.181,1.132-0.252,2.299-0.252,3.483
				c0,1.64,0.126,3.309,0.251,4.944c0,0,0.011,0.146,0.014,0.188c0.165,0.151,0.242,0.402,0.278,0.645c0,0,0.004,0.017,0.004,0.021
				c0.028-0.041,0.278-0.402,0.278-0.402l0.029,0.514l0.01,0.236h0.815c-0.005-0.177-0.014-0.348-0.014-0.529
				c0-0.214,0.005-0.433,0.014-0.654c-0.26-0.185-0.305-0.552-0.305-0.924c0-0.061,0.002-0.299,0.002-0.358
				c0-0.249-0.013-0.483-0.102-0.604l-0.098-0.133l0.127-0.104c0.159-0.13,0.344-0.424,0.378-0.764
				c0.002-0.035,0.004-0.07,0.004-0.104c0-0.301-0.102-0.545-0.21-0.803l-0.076-0.188l-0.012-1.887l0.019-0.016l0.185-0.218
				l0.093-0.173c0.054-0.326,0.063-0.708,0.063-1.099c0-0.132-0.005-0.668-0.005-0.801c0-0.63,0.04-1.196,0.232-1.6l-0.004,0
				l0.01-0.379c0.007-0.386,0.038-0.875,0.421-1.037c-0.008-0.062-0.021-0.127-0.021-0.182c0-0.348,0.148-0.576,0.273-0.767
				c0.093-0.141,0.158-0.242,0.158-0.365c0-0.074-0.024-0.156-0.082-0.259l-0.102-0.182l0.236-0.075l0.415-0.14
				c0.191-0.094,0.412-0.192,0.749-0.172c0-0.122,0-0.411,0-0.411l0.162-0.012c0.344-0.024,0.521,0.135,0.664,0.263
				c0.115,0.104,0.2,0.179,0.372,0.177l0.14-0.002l0.031,0.136c0.063,0.271,0.095,0.541,0.095,0.801c0,0.57-0.149,1.092-0.436,1.476
				c-0.309,0.416-0.782,0.65-1.356,0.705c-0.411,0.435-0.738,0.586-1.37,0.485c0.026,0.111,0.051,0.222,0.051,0.308
				c0,0.095-0.011,0.177-0.021,0.251c-0.008,0.061-0.015,0.114-0.015,0.167c0,0.091,0.021,0.181,0.097,0.306
				c0.024,0.021,0.043,0.024,0.221-0.031c0.146-0.045,0.344-0.096,0.596-0.061c0.179-0.248,0.474-0.469,0.779-0.536
				c0.183-0.041,0.341,0.01,0.495,0.068c0.073-0.215,0.174-0.401,0.281-0.57l0.438-0.704c0,0,0.002,0.356,0.002,0.499
				c0.021-0.041,0.047-0.093,0.047-0.093c0.042-0.059,0.131-0.073,0.214-0.091c0.027-0.306,0.151-0.521,0.275-0.698
				c0,0,0.102-0.165,0.138-0.222c-0.053-0.167-0.092-0.327-0.092-0.465C65.235,18.406,65.457,18.123,65.701,17.877z"/>
		</g>
	</g>
	<text transform="matrix(1 0 0 1 4 44.9297)" opacity="0.7" fill="#FFFFFF" font-family="'Helvetica-Light'" font-size="11">Cобери деньги для детей</text>
</g>
</svg>
