<?xml version="1.0" encoding="utf-8"?>
<!-- Generator: Adobe Illustrator 16.0.0, SVG Export Plug-In . SVG Version: 6.00 Build 0)  -->
<!DOCTYPE svg PUBLIC "-//W3C//DTD SVG 1.1//EN" "http://www.w3.org/Graphics/SVG/1.1/DTD/svg11.dtd">
<svg version="1.1" id="Слой_1" xmlns="http://www.w3.org/2000/svg" xmlns:xlink="http://www.w3.org/1999/xlink" x="0px" y="0px"
	 width="318px" height="86px" viewBox="0 0 318 86" enable-background="new 0 0 318 86" xml:space="preserve">
<g>
	<g>
		<path fill="#EC2227" d="M314.94,37.183c0.126,0.055,0.28,0.123,0.28,0.123c0.1,0.009,0.161-0.003,0.178-0.022
			c0.002-0.002,0.016-0.072,0.025-0.133C315.225,37.165,315.114,37.172,314.94,37.183L314.94,37.183z M311.963,37.54
			c0,0-0.17,0.043-0.312,0.08c-0.005,0.022-0.023,0.063-0.023,0.079c0,0.075,0.052,0.104,0.162,0.165l1.02,1.092l-0.936-0.201
			l-0.574-0.048c0.002,0.022,0.003,0.044,0.003,0.067c0,0.188-0.142,0.36-0.422,0.448c0,0.2,0.061,0.336,0.139,0.511
			c0.09,0.201,0.196,0.437,0.196,0.778c0,0.13-0.016,0.275-0.054,0.441l-0.082,0.359l-0.239-0.111c0,0-0.058-0.022-0.078-0.03
			c0.032,0.029,0.364,0.331,0.364,0.331s-0.439,0.207-0.485,0.229c-0.001,0.016-0.019,0.431-0.019,0.431s0,0.063,0,0.108
			c0.464,0.093,0.938,0.311,1.211,0.801c0.129,0.077,0.216,0.18,0.266,0.303c0.021-0.042,0.016-0.103,0.05-0.137
			c0.191-0.193,0.442-0.134,0.709-0.071c0,0,0.579,0.065,0.8,0.09c0.217-0.322,0.264-0.61,0.28-0.93
			c0.017-0.305,0.089-0.651,0.276-1.02c-0.051-0.036-0.109-0.027-0.155-0.075c-0.179-0.192-0.318-0.495-0.318-0.787
			c0-0.094,0.015-0.185,0.045-0.272c0.086-0.235,0.287-0.39,0.552-0.422l0.338-0.042l0.02,0.388l0.029,0.477
			c0.081-0.079,0.49-0.647,0.422-0.984c0-0.006-0.182-0.258-0.182-0.258l-0.68-1.03l0.66,0.092c0,0,0.061-0.001,0.115-0.002
			c-0.001-0.005-0.009-0.021-0.009-0.021s-0.224-1.075-0.244-1.175c-0.021,0.002-0.106,0.008-0.106,0.008
			c-0.473,0.064-0.872,0.076-1.398-0.28C312.934,37.252,312.442,37.428,311.963,37.54L311.963,37.54z"/>
		<path fill="#EC2227" d="M94.309,28.979c-0.091,0.215-0.195,0.459-0.195,0.459s-0.122,0.018-0.229,0.033c0,0.364,0,1.672,0,1.672
			l-0.299,0.02c-0.09,0.006-0.133,0.057-0.168,0.526c-0.024,0.34-0.053,0.726-0.335,0.954l-1.489,0.335l0.629-0.698
			c0.156-0.21,0.232-0.469,0.232-0.797c0-0.057-0.008-0.123-0.014-0.184c-0.123-0.081-0.207-0.231-0.247-0.464
			c-0.609-0.095-1.119-0.602-1.495-1.026c0,0-0.197-0.209-0.274-0.293l-0.009,0.002c-0.589,0.209-0.835,0.179-1.143-0.005
			c0,0.36,0,0.576,0,0.793c0.501,0.132,0.674,0.604,0.77,0.921l0.22,0.488l0.095,0.219l0.133,0.507
			c0.084,0.193,0.185,0.421,0.185,0.749c0,0.017-0.005,0.039-0.007,0.057c0.078,0.017,0.163,0.021,0.227,0.064
			c0.261,0.179,0.294,0.497,0.32,0.752l0.057,0.299l0.133,0.101l0.038,0.194l-0.022,0.655c-0.031,1.154-0.095,2.317-0.775,2.949
			c0.076,0.252,0.144,0.512,0.144,0.792c0,0.403-0.077,0.813-0.23,1.161c-0.209,0.477-0.537,0.811-0.949,0.966l-0.362,0.136
			c0,0-0.041-0.24-0.057-0.338c-0.024,0.014-0.06,0.035-0.06,0.035c-0.209,0.141-0.468,0.317-0.739,0.186
			c-0.269-0.13-0.292-0.458-0.299-0.566l-0.011-0.137l0.38-0.418c0.408-0.434,0.77-0.82,0.77-1.587c0-0.104-0.02-0.227-0.032-0.345
			c-1.049-0.412-1.713,0.256-2.396,0.997l-0.938,0.941l-0.181-0.414c-0.672-1.334-0.678-3.059-0.019-5.125l0.075-0.238l0.249,0.015
			c0.202,0.012,0.331-0.073,0.475-0.16c0-0.316,0-1.669,0-1.669l0.243-0.061c0.185-0.046,0.26-0.216,0.387-0.592
			c0.134-0.4,0.347-0.958,1.021-1.03c0.021-0.28,0.049-0.653,0.049-0.653s-0.035-0.608-0.053-0.909
			c-0.778-0.048-1.343,0.099-1.619,0.44c-0.169,0.194-0.408,0.155-0.601,0.124c0.001-0.069-0.304,0.402-0.304,0.402l-0.175,0.28
			c-0.001,0.002-0.576,0.586-0.576,0.586l-0.232,0.222c0.019-0.039,0.045,0.203,0.045,0.203l-0.01,0.546l-0.612,0.648
			c0.008-0.008-0.198,0.182-0.229,0.21c0.035,0.068,0.1,0.139,0.1,0.206c0,0.015-0.002,0.029-0.003,0.043
			c-0.026,0.241-0.226,0.377-0.421,0.507l-0.262,0.215l0.262,0.438l-0.459,0.1c-0.318,0.029-0.506,0.09-0.627,0.161
			c0.149,0.144,0.262,0.308,0.339,0.455l0.276,0.525c0,0-1.051-0.104-1.052-0.104c0.013,0.001,0.017,0.396,0.017,0.396l-0.033,0.79
			c-0.001,0.002-0.355,0.409-0.355,0.409c-0.128,0.085-0.171,0.113-0.171,0.307c-0.001,0.056-0.002,0.112-0.002,0.164
			c0,1.055,0.165,1.224,0.173,1.23c0.088,0.037,0.577,0.311,0.577,0.311c0.014,0.02,0.065,0.675,0.065,0.675
			s-0.01,0.083-0.019,0.145c0.881,0.271,1.39,0.839,1.39,1.794c0,0.014-0.002,0.031-0.002,0.046c0.088,0.021,0.18,0.043,0.18,0.043
			c0.411,0.085,0.878,0.182,1.119,0.582l0.056,0.095l-0.013,0.11c-0.014,0.103-0.02,0.191-0.02,0.265
			c0,0.223,0.05,0.326,0.084,0.371c0,0,0.032,0.015,0.053,0.024c0.203-0.293,0.497-0.489,0.928-0.478l0.963,0.055
			c1.352,0.092,2.519,0.17,3.447-0.533l0.145-0.108l0.094,0.046c0,0,0.098,0.038,0.193,0.075c-0.006-0.029-0.035-0.049-0.035-0.077
			c0-0.061,0.014-0.123,0.049-0.187c0.128-0.234,0.404-0.228,0.688-0.182c-0.006-0.024-0.223-0.886-0.223-0.886l0.165-0.03
			c0.349-0.289,0.567-0.33,0.866-0.16c0,0,0.066,0.014,0.11,0.023c0-0.027-0.001-0.054-0.001-0.083c0-0.358,0.043-0.816,0.508-0.929
			l0.499-0.122l-0.109,0.501c-0.013,0.056-0.021,0.098-0.021,0.13c0,0.087,0.067,0.107,0.319,0.169
			c0.27,0.067,0.722,0.18,0.791,0.672l0.01,0.065l-0.018,0.064c-0.018,0.066-0.029,0.112-0.029,0.146
			c0,0.069,0.042,0.097,0.15,0.169c0.113,0.075,0.251,0.218,0.34,0.42c0.364,0.143,0.537,0.137,0.841,0.069l1.137-0.173l0.013,0.405
			l0.019,0.168c0.069,0.082,0.36,0.102,0.573,0.117c0,0,0.256,0.067,0.506,0.135c0.218-0.571,0.649-0.693,1.02-0.769
			c0,0,0.174-0.061,0.346-0.122c0.003-0.235,0.103-0.496,0.277-0.631c0.005-0.003,0.533-0.073,0.533-0.073l0.145,0.013l0,0
			c0-0.007,0.254-0.198,0.254-0.198c0.127-0.165,0.297-0.3,0.568-0.341c-0.017-0.242-0.098-0.413-0.226-0.611
			c0,0-0.101-0.208-0.19-0.393c-1.216-0.04-2.463-0.072-2.765,0.627l-0.083,0.192H95.6l0.095-0.395
			c0.017-0.068,0.024-0.144,0.024-0.223c0-0.433-0.219-0.996-0.369-1.39l-0.196-0.831c0.052-0.229,0.279-0.271,0.431-0.299
			l0.224-0.06c-0.217-0.157-0.315-0.302-0.315-0.463c0-0.095,0.035-0.196,0.101-0.309c0,0,0.019-0.081,0.035-0.152
			c-0.14-0.04-0.28-0.109-0.38-0.242c-0.083-0.111-0.124-0.245-0.124-0.402c0-0.073,0.009-0.151,0.027-0.233c0-0.004,0-0.01,0-0.014
			c0-0.326,0.261-0.5,0.418-0.605c0.11-0.073,0.152-0.102,0.152-0.175c0-0.035-0.01-0.079-0.026-0.142
			c-0.01-0.092-0.213-0.851-0.213-0.851c-0.116-0.327-0.224-0.623-0.224-0.874c0-0.106,0.019-0.205,0.064-0.294
			c0,0,0.122-0.102,0.216-0.181c-0.05-0.09-0.102-0.188-0.102-0.188s0.138,0.021,0.274,0.043c0.083-0.07,0.229-0.192,0.229-0.192
			S95.94,32.05,95.94,32.14c0.013,0.002,0.066,0.01,0.066,0.01s0.129,0,0.257,0c0.041-0.425,0.121-1.244,0.121-1.244
			c0.081-0.356,0.158-0.698,0.158-1.116c0-0.098-0.016-0.21-0.024-0.318c-0.211-0.046-0.599-0.13-0.599-0.13
			c-0.457-0.065-0.9-0.212-1.232-0.503C94.596,28.911,94.473,28.964,94.309,28.979L94.309,28.979z"/>
		<path fill="#EC2227" d="M138.469,34.618c0,0-0.006,0.004-0.01,0.008c0.096-0.01,0.216-0.023,0.216-0.023L138.469,34.618
			L138.469,34.618z M128.471,28.428c-0.087,0.132-0.239,0.237-0.498,0.271c-0.04,0.101-0.08,0.202-0.08,0.202l-0.765,1.746
			l-0.198-0.025c0,0-0.439,0-0.758,0c-0.021,0.437-0.189,0.728-0.342,0.961c0,0-0.06,0.117-0.118,0.232
			c0.066,0.044,0.14,0.092,0.14,0.092l1.045,0.848l-0.263,0.193c-0.348,0.417-0.354,1.005-0.36,1.627l-0.119,1.237
			c-0.002,0.005-0.297,0.563-0.297,0.563l-0.236,0.479c-0.002,0.008-0.008,0.925-0.008,0.925l0.009,0.963
			c-0.908,1.737-1.1,4.119-1.284,6.423c0,0-0.038,0.48-0.057,0.713c0.273,0.158,0.489,0.375,0.645,0.65
			c0.32-0.003,0.563-0.064,0.71-0.193l0.601-0.52l-0.071,0.791c-0.011,0.122,0.009,0.176,0.023,0.189
			c0.004,0.002,0.081,0.069,0.413,0.01l-0.238,0.191c0.089-0.213,0.239-0.279,0.402-0.318c0-0.002-0.002-0.004-0.002-0.006
			l0.226-0.539l0.524-0.145c-0.111,0.006,0.154-0.189,0.154-0.189c0.169-0.173,0.412-0.412,0.886-0.396
			c0.085-0.275,0.289-0.437,0.428-0.506c0.108-0.055,0.157-0.078,0.157-0.146c0-0.048-0.023-0.116-0.066-0.23l-0.35-0.938
			c0,0,0.941,0.637,0.957,0.647c-0.004-0.002-0.009-0.004-0.009-0.011c0-0.063,0.122-0.283,0.122-0.283
			c0.179-0.382,0.507-1.046,1.306-0.961c0.229-0.688,0.694-1.174,1.468-1.322c-0.092,0.041-0.044-0.238-0.044-0.238
			c0.027-0.282,0.077-0.805,0.618-0.853c0,0-0.002,0-0.002-0.001c0-0.023,0.334-0.293,0.334-0.293
			c0.197-0.241,0.456-0.553,1.004-0.555c0-0.388,0-1.309,0-1.309l0.371-0.009l0.308-0.012l0.078-0.269l0.085-0.346
			c0.002-0.003,0.842-0.897,0.842-0.897l0.304-0.278c-0.002,0.003,0.37-0.327,0.37-0.327c0.339-0.27,0.452-0.381,0.365-0.73
			l-0.252-1.01l0.801,0.717c0.088-0.183,0.275-0.566,0.275-0.566s0.228-0.025,0.42-0.045c0.004-0.022,0.046-0.269,0.046-0.269
			c0.028-0.281,0.079-0.803,0.62-0.852l0.412-0.037l-0.068,0.409c-0.42,2.513-0.809,5.264-0.809,8.356v0.153l-0.12,0.096
			c-0.376,0.303-0.439,1.044-0.503,1.759c0,0-0.113,0.739-0.165,1.078c0.237,0.138,0.697,0.14,1.133,0.128
			c0,0,0.117-0.003,0.231-0.006c-0.027-0.098-0.128-0.461-0.128-0.461l0.09-0.262c0.122-0.122,0.278-0.112,0.487-0.092
			c0.09-0.533,0.109-1.2,0.113-1.931l0.121-2.406c0,0.002,0.139-0.656,0.139-0.656c0.132-0.54,0.28-1.152,0.143-1.657l-0.071-0.26
			l0.242-0.115c0.264-0.124,0.27-0.248,0.15-0.64l-0.036-0.552c0.086-0.26,0.385-0.219,0.582-0.192c0,0,0.02,0.002,0.026,0.002
			c0.012-0.06,0.026-0.109,0.026-0.203c0-0.296-0.046-0.711-0.071-0.952l-0.043-0.742l0.269-1.509
			c0.163-0.78,0.317-1.526,0.317-2.31c0-0.164-0.016-0.332-0.031-0.5c-0.097-0.01-0.137,0.032-0.204,0.152l-0.82,0.747l-0.06-0.505
			c0,0-0.043-0.095-0.08-0.177c-0.02,0.015-0.046,0.034-0.046,0.034c-0.19,0.154-0.484,0.383-0.9,0.395
			c-0.058,0.708-0.471,1.126-0.727,1.351l-0.144,0.133c-0.438,0.503-0.659,0.85-0.738,1.458l-0.021,0.168l-0.188,0.092l-0.486,0.247
			c0,0-0.268,0.132-0.44,0.217c-0.151,0.563-0.67,1.912-1.31,1.979c-0.056,0.106-0.118,0.222-0.118,0.222
			c-0.229,0.172-0.28,0.334-0.35,0.558l-0.436,0.774c-0.163,0.164-0.392,0.118-0.559,0.085c-0.039,0.059-0.422,0.571-0.422,0.571
			s-0.145-0.009-0.274-0.018c-0.029,0.712-0.487,1.005-0.76,1.165l-0.169,0.108c0,0.001-0.332,0.411-0.332,0.411
			c-0.224,0.315-0.526,0.695-0.979,0.747c-0.033,0.394-0.093,0.758-0.283,0.981l-0.092,0.106l-0.141,0.005
			c-0.368,0.013-0.661,0.283-0.943,0.543l-0.219,0.195l-0.303,0.359c-0.258,0.35-0.588,0.77-1.208,0.789
			c0.041-0.008,0.083-0.017,0.083-0.017l0.014-0.012l-0.057,0.306c-0.026,0.255-0.06,0.572-0.321,0.75
			c-0.174,0.119-0.394,0.138-0.672,0.059l-0.252-0.072l0.218-2.749l0.085-1.519l0.2-0.069c0.259-0.09,0.357-0.39,0.49-0.87
			c0.113-0.412,0.293-0.828,0.648-1.103c-0.01-0.121-0.021-0.242-0.021-0.353c0-0.503,0.089-0.911,0.177-1.308
			c0.082-0.378,0.161-0.742,0.161-1.183c0-0.166-0.011-0.342-0.037-0.535l-0.046-0.337l0.339-0.026
			c0.06-0.004,0.091-0.044,0.144-0.403c0.04-0.281,0.091-0.631,0.366-0.832c0,0,0.142-0.025,0.275-0.05
			c0.003-0.735,0.155-1.319,0.306-1.883c0.147-0.556,0.289-1.088,0.289-1.761c0-0.169-0.018-0.355-0.036-0.544
			c-0.213-0.11-0.365-0.322-0.452-0.64c-0.363,0.019-0.596-0.105-0.768-0.207C128.779,28.456,128.671,28.403,128.471,28.428
			L128.471,28.428z"/>
		<path fill="#EC2227" d="M228.49,44.645c0.043-0.004,0.08-0.006,0.088-0.008c-0.01-0.002-0.031-0.045-0.048-0.072
			C228.511,44.604,228.505,44.613,228.49,44.645L228.49,44.645z M230.784,25.836c-0.159,0.191-0.337,0.409-0.63,0.383
			c-0.073-0.007-0.125-0.068-0.189-0.103c0.162,0.198,0.369,0.461,0.369,0.868c0,0.027-0.001,0.055-0.002,0.084l-0.021,0.322
			l-0.322-0.024c-0.249-0.019-0.311,0.053-0.446,0.514l-0.411,0.771l-0.516-0.319c0.062-0.279,0.03-0.403,0.001-0.432
			c-0.017-0.017-0.066-0.035-0.161-0.035c0.003,0.042,0.011,0.092,0.011,0.132c0,0.423-0.097,0.746-0.185,1.04
			c-0.081,0.274-0.156,0.521-0.156,0.837c0,0.114,0.011,0.238,0.032,0.375l0.02,0.11l-0.055,0.097
			c-0.139,0.251-0.438,0.289-0.679,0.319c0,0-0.147,0.027-0.187,0.033c0.048,0.016,0.065,0.238,0.065,0.238
			c0.016,0.112,0.032,0.234,0.032,0.354c0,0.195-0.045,0.386-0.208,0.52c-0.104,0.083-0.225,0.107-0.341,0.111
			c0,0.556,0,2.668,0,2.668l-0.33-0.01c-0.175-0.005-0.286,0.074-0.407,0.138c0.026,0.09,0.099,0.204,0.099,0.279
			c0,0.303-0.185,0.491-0.304,0.611l-0.096,0.109c0.001-0.007,0.15,0.237,0.15,0.237l0.298,0.487l-0.544,0.039
			c-0.338,0-0.774,0.461-0.893,0.83c0.163,0.019,0.34,0.124,0.394,0.418l0.022,0.123l-0.147,0.195l-0.244,0.389
			c-0.063,0.137-0.137,0.289-0.242,0.426c0.204,0.199,0.346,0.447,0.346,0.791c0,0.014-0.004,0.218-0.004,0.218l-0.215,0.128
			c-0.344,0.205-0.521,0.365-0.725,0.669c0.078,0.104,0.131,0.229,0.131,0.356c0,0.022-0.001,0.044-0.005,0.066
			c-0.012,0.051-0.413,0.355-0.413,0.355s-0.101,0.046-0.173,0.08c-0.027,0.129-0.23,1.063-0.23,1.063s-0.157,0.693-0.235,1.034
			c0.153,0.096,0.309,0.191,0.309,0.191l0.223,0.171c0.746,0.19,0.82,0.558,0.834,0.886c0.006,0.146,0.008,0.186,0.102,0.254
			c0.002-0.004,0.342-0.023,0.342-0.023c0.287-0.037,0.643-0.086,0.845,0.174c0.074,0.096,0.097,0.203,0.102,0.311
			c0.189-0.029,0.347-0.085,0.514-0.194c0.245-0.161,0.542-0.354,1.031-0.348c0.104-0.507,0.318-1.011,0.868-1.254
			c-0.021-0.05-0.062-0.137-0.062-0.137s0.131,0.014,0.262,0.027c0.175-0.062,0.609-0.215,0.609-0.215s-0.07,0.145-0.133,0.269
			c0.386,0.035,0.511-0.146,0.704-0.458c0,0,0.523-0.6,0.524-0.603c0.01,0.001,0.63-0.31,0.63-0.31
			c0.186-0.069,0.288-0.164,0.409-0.253c-0.018-0.045-0.05-0.141-0.05-0.141l0.145-0.212c0.104-0.119,0.325-0.157,0.538-0.188
			c-0.025-0.106-0.077-0.224-0.077-0.317c0-0.156,0.046-0.289,0.163-0.389c0.105-0.088,0.232-0.089,0.363-0.075
			c-0.006-0.016-0.025-0.075-0.025-0.075l0.49-0.419c0.177,0.206,0.192,0.194,0.449-0.013c0.144-0.117,0.43-0.287,0.754-0.217
			c0.135-0.376,0.311-0.708,0.504-1.007l0.456-0.734c0,0,0.058,0.072,0.092,0.118c0.103-0.288,0.248-0.62,0.59-0.76
			c0.138-0.057,0.292-0.042,0.449-0.018c0.155-0.857,0.872-1.651,1.542-1.813c0.018-0.005,0.033-0.004,0.049-0.006
			c-0.004-0.039-0.034-0.046-0.034-0.09c0-0.056,0.004-0.115,0.015-0.18l0.038-0.272l0.183,0.012l0.826-0.007
			c0.111,0.013,0.279,0.03,0.412,0.032c-0.021-0.056-0.041-0.112-0.041-0.169c0-0.179,0.106-0.373,0.209-0.569
			c-0.182,0.022-0.354,0.032-0.51-0.048c-0.24-0.125-0.354-0.365-0.301-0.626c0.072-0.487,0.556-0.54,0.931-0.533
			c0.347-0.92,1.15-1.334,1.834-1.547c0.068-0.186,0.13-0.355,0.13-0.474c0-0.234-0.132-0.394-0.387-0.702l-0.257-0.311l0.494-0.213
			l0.151-0.076l1.19-0.316l-0.197,0.459l-0.107,0.744c-0.026,0.145-0.036,0.246-0.048,0.355c0.186-0.032,0.769-0.134,0.769-0.134
			l-0.074,0.331c0.012,0.082,0.016,0.161,0.016,0.236c0,0.469-0.188,0.809-0.319,1.044c0,0-0.113,0.235-0.114,0.238
			c0.008-0.014,0.236,0.132,0.236,0.132l0.297,0.19l-0.243,0.36l-0.47,0.598c0,0-0.113,0.171-0.195,0.296
			c0.044,0.127,0.108,0.251,0.108,0.386c0,0.39-0.158,0.81-0.323,1.244c-0.184,0.484-0.372,0.983-0.372,1.484
			c0,0.098,0.007,0.195,0.022,0.293l0.032,0.197l-0.295,0.17l-0.263,0.187c0,0-0.131,0.087-0.263,0.175
			c0.026,0.106,0.342,1.328,0.342,1.328l-0.375-0.061c-0.214,0.025-0.252,0.029-0.234,0.512l-0.034,0.599
			c-0.001-0.001-0.289,0.464-0.289,0.464l-0.259,0.373c0,0.073-0.152,2.104-0.152,2.104s-0.078,1.381-0.098,1.711
			c0.134,0.104,0.249,0.264,0.262,0.563c0.057,0.01,0.246,0.044,0.246,0.044c0.277,0.027,0.793,0.078,0.841,0.609
			c-0.001-0.015,0.041,0.294,0.041,0.294s0,0.878,0,1.17c0.065-0.035,0.174-0.031,0.221-0.084c0.134-0.154,0.202-0.402,0.202-0.738
			c0-0.097-0.006-0.199-0.018-0.31l-0.046-0.466l0.451,0.125c0.188,0.052,0.194,0.043,0.302-0.118
			c0.068-0.104,0.195-0.228,0.365-0.321c-0.016-0.201-0.035-0.402-0.035-0.6c0-1.021,0.204-1.982,0.39-2.852
			c0.161-0.758,0.317-1.488,0.317-2.167c0-0.303-0.03-0.595-0.105-0.875l-0.061-0.225l0.197-0.127
			c0.623-0.402,0.836-1.284,1.06-2.217c0.172-0.718,0.353-1.459,0.743-2.025c-0.184-0.292-0.326-0.626-0.326-0.879
			c0-0.025,0.001-0.05,0.005-0.073c-0.003,0.039,0.269-0.36,0.269-0.36s0.311-0.3,0.315-0.304c0,0-0.001-0.003-0.001-0.008
			c0-0.088,0.124-0.834,0.124-0.834l0.124-0.74l0.084-0.217c0.498-1.317,0.828-2.187,0.453-3.369l-0.062-0.195l0.152-0.138
			c0.188-0.172,0.179-0.719,0.169-1.201l-0.002-0.467c-0.033,0.003-0.367-0.262-0.594-0.272c0.043,0.077,0.1,0.147,0.105,0.243
			c0.002,0.014,0.002,0.027,0.002,0.041c0,0.295-0.2,0.532-0.499,0.581l-0.241,0.04l-0.121-0.278l-0.107-0.235
			c-0.083-0.148-0.175-0.352-0.189-0.629c-0.668-0.01-1.235,0.233-1.351,0.439c-0.016,0.026-0.032,0.059,0.036,0.145l0.438,0.539
			l-0.693-0.017c-0.359-0.008-0.587,0.063-0.757,0.167c0,0.233,0,0.854,0,0.854l-0.25,0.057c-0.311,0.071-0.481,0.285-0.694,0.557
			c-0.214,0.27-0.516,0.547-0.955,0.692c0,0.27,0,1.128,0,1.128l-0.354,0.069c0,0-0.556,0.142-0.731,0.186c0,0.288,0,1.224,0,1.224
			s-0.749-0.115-0.775-0.119c0.019,0.01,0.024,0.075,0.024,0.118c0,0.02,0,0.033,0,0.033l-0.11,0.578
			c0-0.006-0.635,0.295-0.635,0.295l-0.141,0.042c0.016,0.074,0.03,0.156,0.03,0.238c0,0.102-0.024,0.205-0.108,0.292
			c-0.119,0.117-0.266,0.123-0.424,0.107c0.009,0.015,0.005,0.016,0.016,0.033c0.052,0.087,0.123,0.206,0.123,0.342
			c0,0.053-0.012,0.108-0.039,0.165c-0.095,0.208-0.322,0.247-0.396,0.26c-0.07,0.004-0.68-0.127-0.68-0.127
			s-0.091-0.027-0.119-0.036c0,0,0.002,0.004,0.003,0.006c0.013,0.02,0.062,0.029,0.068,0.047c0.022,0.052,0.031,0.101,0.031,0.148
			c0,0.169-0.115,0.32-0.22,0.456c-0.081,0.106-0.214,0.28-0.214,0.376c0,0.005,0.001,0.011,0.001,0.016l0.898,0.877l-0.965-0.136
			c-0.885-0.157-1.066,0.264-1.344,0.9c0,0-0.573,0.958-0.578,0.966c0.013,0.038,0.06,0.054,0.06,0.097
			c0,0.029-0.003,0.059-0.01,0.089c-0.051,0.24-0.271,0.325-0.378,0.361c-0.017,0.027-0.064,0.106-0.064,0.106
			s-0.006-0.064-0.008-0.077c-0.027,0.009-0.057,0.018-0.057,0.018l-0.092-0.025c-0.27-0.076-0.346-0.024-0.494,0.078
			c0,0-0.318,0.076-0.564,0.136c-0.518,0.738-1.143,1.562-1.912,2.17c-0.172,0.138-0.385,0.096-0.54,0.065
			c0.005,0.011,0.01,0.036,0.01,0.066c0,0.117-0.062,0.342-0.368,0.459c0,0-0.389,0.016-0.508,0.021
			c0.038,0.1,0.049,0.214,0.114,0.313l0.411,0.597l-0.719-0.098c-0.538-0.075-0.607,0.043-0.763,0.304l-0.339,0.435l-0.726,0.426
			l-1.261,0.76l0.107-0.687c0.087-0.373,0.013-0.545-0.094-0.784l-0.283-1.182l0.459,0.093c0,0,0.063,0.002,0.127,0.003
			c-0.021-0.049-0.041-0.101-0.041-0.101l-0.162-0.764c0-0.005,0-0.011,0-0.016c0-0.114,0.146-0.178,0.381-0.283l0.268-0.127
			c0.134-0.148,0.165-0.431,0.165-0.752c0-0.146-0.007-0.302-0.014-0.456l0.001-1.065l0.319,0.031c0,0,0.384,0,0.705,0
			c-0.016-0.112-0.06-0.234-0.06-0.337c0-0.628,0.295-1.115,0.584-1.589c0.311-0.512,0.633-1.039,0.633-1.813
			c0-0.082-0.003-0.166-0.011-0.253l-0.031-0.359l0.556,0.019c-0.01-0.025-0.013-0.069-0.013-0.121c0-0.183,0.044-0.474,0.044-0.474
			c0,0.011,0.32-0.361,0.32-0.361s0.211-0.187,0.227-0.201c-0.041-0.003-0.173-0.41-0.173-0.41l-0.335-0.59l0.52-0.021
			c0.116-0.007,0.156-0.059,0.268-0.346c0.094-0.242,0.297-0.597,0.742-0.693c-0.032-0.166-0.081-0.335-0.081-0.494
			c0-0.797,0.431-1.482,1.188-2.049c-0.046-0.154-0.106-0.308-0.106-0.461c0-0.247,0.045-0.489,0.087-0.715l0.051-0.813
			c-0.002,0.01-0.248-0.215-0.248-0.215c-0.198-0.153-0.391-0.336-0.442-0.585C231.041,25.572,230.918,25.673,230.784,25.836
			L230.784,25.836z"/>
		<path fill="#EC2227" d="M273.6,38.323c0,0,0.032-0.341,0.048-0.505L273.6,38.323L273.6,38.323z M277.536,32.381
			c-0.224,0.086-0.519,0.188-0.896,0.167c0.002,0.071,0.05,0.101,0.157,0.161c0,0,0.951,1.018,0.969,1.037
			c-0.016-0.042-0.027-0.043-0.043-0.09c-0.22-0.101-0.333-0.264-0.333-0.467c0-0.095,0.025-0.198,0.075-0.308l0.094-0.207
			l0.227,0.021c0.1,0.009,0.162-0.003,0.178-0.022c0.002-0.002,0.04-0.045,0.04-0.195c0-0.025-0.007-0.066-0.01-0.098
			C277.879,32.288,277.793,32.284,277.536,32.381L277.536,32.381z M273.229,24.061c0,0-0.036-0.02-0.042-0.022
			c-0.021,0.131-0.03,0.269-0.126,0.361c-0.053,0.051-0.111,0.044-0.168,0.066c0.006,0.012,0.014,0.024,0.014,0.024l0.015,0.086
			c0.002,0.029,0.005,0.058,0.005,0.085c0,0.198-0.07,0.34-0.207,0.421c-0.177,0.106-0.337,0.024-0.481-0.057
			c-0.019,0.034-0.325,0.646-0.325,0.646s-0.064,0.007-0.096,0.011c-0.002,0.042-0.009,0.087-0.009,0.127
			c0,0.317,0.077,0.571,0.231,0.767l0.366,0.465l-0.662,0.05l-0.186,0.016c-0.078,0.061-0.108,0.324-0.13,0.516
			c-0.038,0.339-0.083,0.724-0.373,0.95c0,0-0.168,0.036-0.336,0.073c-0.016,0.094-0.038,0.197-0.038,0.275
			c0,0.316,0.12,0.509,0.262,0.737l0.554,1.392l-0.569-0.163c-0.313-0.046-0.542-0.014-0.643,0.089
			c-0.068,0.068-0.103,0.192-0.103,0.361c0,0.02,0.005,0.045,0.006,0.066c0.066-0.007,0.139-0.042,0.273-0.137
			c0.141-0.101,0.334-0.238,0.559-0.135c0.235,0.107,0.264,0.387,0.273,0.493l0.033,0.334l-0.337,0.017
			c-0.138,0.007-0.185,0.065-0.269,0.488c0,0-0.074,0.166-0.142,0.321c0.195,0.048,0.429,0.143,0.442,0.484l0.019,0.417
			l-0.296-0.085l-0.769-0.17c0,0-0.058-0.017-0.099-0.029c0,0.011-0.006,0.029-0.006,0.04c0,0.252,0.129,0.363,0.323,0.527
			l0.299,0.269l-0.013,0.131v1.949c0,0-0.414,0-0.482,0c0.015,0.1,0.057,0.231,0.057,0.313c0,0.228-0.05,0.383-0.09,0.506
			c0.107,0.046,0.217,0.117,0.265,0.261l0.057,0.161l-0.142,0.258c-0.09,0.119-0.215,0.143-0.387,0.14
			c0.004,0.008,0.014,0.039,0.014,0.039l0.219,0.563l-0.137,0.095l-0.189,0.36c0,0.01-0.006,0.38-0.006,0.38
			c0.003,0.078,0.006,0.162,0.006,0.25c0,0.236-0.048,0.494-0.138,0.748c0.189,0.053,0.397,0.154,0.411,0.475
			c0.059,0.153,0.083,0.286,0.083,0.399c0,0.255-0.123,0.401-0.26,0.513c0.021,0.02,0.059,0.008,0.074,0.032
			c0.043,0.069,0.059,0.136,0.059,0.2c0,0.024-0.021,0.035-0.024,0.06c0.277,0.083,0.517,0.368,0.596,0.608l0.108,0.328
			l-0.336,0.083c-0.423,0.105-0.972,0.426-1.087,1.71c0.075,0.064,0.105,0.184,0.154,0.308c0.11-0.028,0.464-0.112,0.464-0.112
			l0.255,0.348c0,0,0.046,0.08,0.08,0.147c0.134,0.046,0.306,0.127,0.449,0.231c0.028-0.008,0.313-0.084,0.313-0.084l0.784-0.233
			l0.136,0.157l0.284,0.152c0.007,0,0.967,0.186,0.987,0.189c-0.034-0.186-0.084-0.35-0.192-0.52l-0.439-0.908l0.299-0.084
			c0.204-0.105,0.255-0.219,0.275-0.295c0.011-0.04,0.017-0.084,0.017-0.129c0-0.35-0.297-0.827-0.417-1.02l-0.196-0.316
			l0.634-0.271c-0.078-0.001-0.209-0.722-0.209-0.722c0.001,0.002,0.187-0.308,0.187-0.308s0.028-0.067,0.054-0.124
			c-0.15-0.229-0.238-0.522-0.244-0.564c-0.032-0.212-0.047-0.404-0.047-0.579c0-0.408,0.074-0.724,0.139-0.992
			c0.048-0.199,0.086-0.358,0.086-0.516s-0.038-0.315-0.141-0.511l-0.408-0.769l1.079,0.428c0.049,0.027,0.083,0.006,0.127-0.015
			v-0.002l-0.144-0.085c-0.178-0.088-0.504-0.25-0.504-0.692c0-0.135,0.03-0.295,0.104-0.487l0.067-0.174l0.929-0.138
			c0.258-0.058,0.506-0.048,0.774-0.006c-0.014-0.075-0.061-0.206-0.061-0.26c0-0.143,0.051-0.23,0.174-0.299
			c0.243-0.136,0.432,0.068,0.533,0.18c0,0,0.101,0.09,0.18,0.158c0.092-0.192,0.184-0.383,0.184-0.383
			c0.049-0.04,0.556-0.096,0.556-0.096c0.079,0.03,0.275-0.154,0.275-0.154c0.177-0.187,0.466-0.464,0.853-0.496
			c-0.025-0.086-0.065-0.221-0.065-0.221l0.403-0.409c0,0,0.038,0.026,0.047,0.032c-0.062-0.094-0.126-0.218-0.195-0.405
			c-0.009-0.002-0.837-0.15-0.837-0.15c-0.27-0.008-0.426,0.091-0.624,0.216l-0.492,0.31l-0.009-0.574c0,0,0-0.08,0-0.122
			c-0.187,0.086-0.341,0.222-0.511,0.453c-0.206,0.276-0.511,0.546-0.952,0.682c0.001,0.015,0.014,0.031,0.014,0.045
			c0,0.151-0.054,0.293-0.163,0.411c-0.245,0.267-0.732,0.347-1.064,0.175c-0.201-0.103-0.314-0.287-0.314-0.497
			c0-0.042,0.005-0.084,0.014-0.127l0.055-0.254c0,0,0.355,0,0.428,0c-0.027-0.168-0.082-0.353-0.082-0.499
			c0-0.289,0.043-0.539,0.082-0.76l0.055-0.566l-0.039-0.249c-0.033-0.198-0.07-0.418-0.07-0.629c0-0.252,0.055-0.491,0.233-0.664
			c0.111-0.104,0.265-0.14,0.431-0.157c-0.022-0.244-0.161-0.392-0.331-0.545l-0.337-0.542l0.207-0.449
			c0.26-0.261,0.334-0.378,0.334-0.475c0-0.049-0.019-0.092-0.041-0.146c0,0-0.112-0.831-0.112-0.832
			c0,0.002,0.199-0.322,0.199-0.322s0.02-0.046,0.037-0.092c-0.104-0.094-0.245-0.247-0.245-0.544c0-0.036,0.002-0.073,0.007-0.112
			l0.028-0.249c0,0,0.028-0.006,0.033-0.007c-0.024-0.123-0.06-0.303-0.06-0.303c0.003,0.005,0.24-0.338,0.24-0.338
			c0.003-0.015,0.005-0.03,0.005-0.047c0-0.101-0.068-0.244-0.068-0.244l-0.323-0.583l0.318-0.105
			c0.177-0.088,0.273-0.342,0.377-0.61c0,0,0.077-0.156,0.155-0.311c-0.108,0.081-0.232,0.157-0.395,0.091
			c-0.127-0.052-0.195-0.151-0.239-0.249C273.676,23.803,273.229,24.061,273.229,24.061L273.229,24.061z"/>
		<path fill="#EC2227" d="M284.11,31.071l0.339,0.081c-0.098-0.027-0.209-0.081-0.311-0.157
			C284.127,31.025,284.11,31.071,284.11,31.071L284.11,31.071z M284.511,27.693c-0.02,0.014-0.049,0.018-0.069,0.032
			c0.054,0.027,0.088,0.043,0.113,0.056c-0.022-0.034-0.037-0.058-0.041-0.09L284.511,27.693L284.511,27.693z M280.978,23.275
			c-0.013,0.047-0.034,0.088-0.034,0.145c0,0.13,0.026,0.281,0.056,0.445l0.058,0.779c0,0.003-0.267,1.043-0.267,1.043
			s-0.273,1.119-0.273,1.124c0,0.08,0.003,0.822,0.003,0.822c0.008,0.201,0.018,0.394,0.018,0.575c0,0.484-0.062,0.873-0.347,1.051
			c-0.033,0.021-0.093,0.024-0.138,0.039c0.025,0.021,0.016,0.042,0.057,0.07c0.17,0.12,0.434,0.308,0.434,0.726
			c0,0.083-0.01,0.176-0.033,0.28l-0.02,0.08l-0.328,0.364c-0.25,0.257-0.445,0.46-0.459,0.849l0.094,0.585
			c0.043,0.219,0.089,0.442,0.089,0.653c0,0.203-0.041,0.394-0.163,0.563c-0.107,0.146-0.344,0.194-0.549,0.264
			c0.03,0.354,0.115,1.334,0.115,1.334l0.168,1.499l-0.392,0.021c-0.16-0.023-0.18,0.005-0.288,0.167c0,0-0.076,0.082-0.152,0.163
			c0.062,0.229,0.113,0.469,0.113,0.805c0,0.425-0.036,0.926-0.076,1.486c-0.045,0.621-0.094,1.3-0.094,1.955
			c0,0.999,0.114,1.938,0.531,2.516l0.061,0.084c0,0,0,1.153,0,1.632h0.008c1.326-0.19,2.686-0.396,3.934-0.697
			c-0.063-0.878-0.24-1.703-0.427-2.496l-0.355-1.828l0.146-0.915c0,0,0.044-0.177,0.082-0.323
			c-0.074-0.041-0.153-0.086-0.153-0.086l-0.13-0.745c0,0,0.114,0.011,0.229,0.022c-0.049-0.1-0.089-0.157-0.151-0.307
			c-0.132-0.119-0.358-0.341-0.358-0.681c0-0.115,0.026-0.244,0.092-0.387c0.004-0.011,0.273-0.414,0.273-0.414
			c0.161-0.208,0.291-0.373,0.291-0.671c0-0.097-0.014-0.207-0.043-0.338l-0.138-0.592l0.839,0.331
			c0.028,0.015,0.049,0.008,0.08,0.001c-0.018-0.026-0.024-0.046-0.108-0.098l-0.396-0.437c0.001,0.003-0.145-0.522-0.145-0.522
			l-0.465-0.65l0.334-0.322l-0.025,0.02l0.025-0.806l0.311-0.03c0,0,0.304,0,0.546,0c0.037-0.243,0.104-0.66,0.104-0.66l0.182-1.401
			c0,0,0.208,0.147,0.223,0.158c0.029-0.141,0.085-0.278,0.155-0.389c0.104-0.161,0.159-0.266,0.163-0.363
			c-0.195-0.023-0.605-0.087-0.605-0.55v-0.344c0,0,0.399,0.031,0.41,0.031c-0.062-0.141-0.154-0.354-0.154-0.354l-0.543-1.44
			c0,0,0.153,0.095,0.288,0.177c0-0.001,0.016-0.152,0.016-0.152l0.389-0.263c0.307-0.199,0.479-0.383,0.577-0.627
			c-0.289-0.017-0.665-0.079-0.711-0.523l-0.031-0.297c0,0,0.793-0.138,0.818-0.142c-0.046-0.011-0.1-0.351-0.1-0.351
			s-0.055-0.317-0.098-0.562c-0.359-0.048-0.541-0.281-0.633-0.503c-0.045,0.022-0.248,0.121-0.248,0.121
			c-0.207,0.073-0.595,0.056-0.812-0.212c-0.055-0.067-0.103-0.191-0.115-0.339c-0.053,0.032-0.118,0.03-0.177,0.073
			c-0.229,0.169-0.513,0.381-1.031,0.329l-0.309-0.031l0.02-0.31c0.008-0.11-0.009-0.168-0.029-0.186
			C281.197,23.306,281.142,23.27,280.978,23.275L280.978,23.275z"/>
		<path fill="#EC2227" d="M298.66,38.428c0.21,0.008,0.413-0.004,0.571-0.071c0.044-0.019,0.021-0.032,0.045-0.052
			c-0.119-0.061-0.225-0.146-0.338-0.237C298.866,38.203,298.772,38.314,298.66,38.428L298.66,38.428z M292.42,36.056
			c0.096-0.14,0.157-0.277,0.177-0.451c-0.099-0.031-0.186-0.081-0.272-0.134C292.352,35.64,292.396,35.907,292.42,36.056
			L292.42,36.056z M289.92,23.266c-0.083,0.131-0.126,0.285-0.126,0.462c0,0.216,0.062,0.464,0.189,0.745l0.161,0.361l-0.387,0.084
			c-0.244,0.052-0.322,0.255-0.322,0.683c0,0.138,0.008,0.299,0.021,0.488l0.01,0.722c0,0.006-0.28,1.108-0.28,1.108
			c-0.115,0.369-0.241,0.771-0.241,1.034c0,0.124,0.029,0.218,0.1,0.261l0.487,0.299l-0.511,0.26
			c-0.168,0.086-0.32,0.229-0.32,0.579c0,0.217,0.059,0.513,0.206,0.925l0.089,0.248l-0.308,0.17l-0.312,0.187
			c-0.029,0.048-0.039,0.111-0.039,0.184c0,0.191,0.078,0.448,0.149,0.682l0.168,0.808c0,0.006-0.16,0.764-0.16,0.764l-0.115,0.808
			c0,0.002,0.091,0.205,0.091,0.205l0.271,1.018l-0.344-0.039c-0.063,0.013-0.26,0.054-0.317,0.439
			c-0.01,0.07-0.016,0.145-0.016,0.217c0,0.537,0.258,1.101,0.422,1.19l0.628,0.34l-0.671,0.243
			c-0.57,0.205-0.757,0.483-0.757,0.916c0,0.267,0.071,0.593,0.168,0.997c0.105,0.439,0.217,0.912,0.217,1.396
			c0,0.251-0.1,0.506-0.176,0.76c0.38,0.075,0.783,0.213,0.996,0.641l0.145,0.292l-0.467,0.22c0.029,0.016,0.157,0.158,0.398,0.367
			l0.547,0.503l-0.539,0.151c-0.186,0.06-0.296,0.164-0.311,0.4c0.207,0.31,0.599,0.484,1.028,0.657
			c0.44,0.178,0.871,0.394,1.19,0.755c0.264-0.017,1.13-0.074,1.13-0.074c0.395,0.02,0.674-0.006,1.006-0.217
			c0-0.01-0.001-0.02-0.001-0.029c0-0.127,0.059-0.295,0.303-0.442l0.182-0.11l0.269,0.272c0,0,0.011,0.008,0.014,0.009
			c0.011-0.144,0.04-0.306,0.189-0.415c0.079-0.059,0.215-0.116,0.411-0.063l0.14,0.038l0.063,0.129
			c0.083,0.17,0.104,0.21,0.592,0.006c0.188-0.078,0.418-0.139,0.65-0.172c-0.006-0.02-0.018-0.061-0.018-0.061
			c-0.044-0.104-0.094-0.225-0.094-0.348c0-0.076,0.018-0.152,0.068-0.227c0.045-0.068,0.177-0.121,0.325-0.15
			c-0.063-0.115-0.146-0.231-0.146-0.349c0-0.05,0.008-0.099,0.025-0.151c0.036-0.107,0.13-0.252,0.372-0.338
			c0.044-0.014,0.084-0.016,0.124-0.021c0-0.014-0.016-0.036-0.016-0.049c0-0.379,0.2-0.648,0.351-0.851l0.165-0.253l0.586,0.257
			c0.004-0.009,0.006-0.023,0.006-0.04c0-0.049-0.017-0.123-0.08-0.186l-0.22-0.074l0.24-0.197c0.011-0.047,0.015-0.096,0.015-0.144
			c0-0.237-0.117-0.468-0.251-0.683l-0.117-0.191l0.202-0.237l0.475-0.607c0,0,0.016-0.024,0.018-0.027
			c-0.272-0.116-0.498-0.3-0.608-0.632l-0.136-0.409l0.43-0.013c0.385-0.012,0.821-0.026,0.972-0.189c0,0,0.003-0.015,0.005-0.018
			c-0.409-0.029-0.803-0.088-1.054-0.363l-0.593-1.919c0,0,0.33,0.349,0.598,0.629c-0.066-0.119-0.392-0.723-0.392-0.723
			l0.743,0.413c0,0,0.129,0.053,0.258,0.107c0.082-0.356,0.293-0.586,0.479-0.727c0.096-0.071,0.093-0.14,0.141-0.199
			c-0.189-0.058-0.381-0.167-0.381-0.489l0.199-0.524c0,0,0.074-0.226,0.075-0.23c-0.009,0.02-0.313-0.146-0.313-0.146l-0.377-0.199
			c-0.141-0.098-0.145-0.223-0.162-0.337c-0.119,0.09-0.242,0.184-0.242,0.184l-0.754-0.229l0.217-0.156
			c0,0,0.069-0.179,0.129-0.329c-0.052,0.028-0.115,0.027-0.171,0.062l-0.004,0.002c-0.047,0.148-0.155,0.285-0.402,0.321
			l-0.051,0.008l-2.499-0.444l-1.241-0.122l-0.055-0.135l-0.158-0.341c-0.092-0.234-0.153-0.326-0.299-0.343
			c0.036,0.173,0.103,0.299,0.192,0.411c0.141,0.176,0.257,0.352,0.257,0.602c0,0.115-0.093,0.291-0.15,0.443
			c0.086,0.004,0.177,0.008,0.177,0.008l0.746,0.179c0.021,0.022,0.072,0.401,0.085,0.49c0.091,0.001,0.185,0.004,0.185,0.004
			c0.254-0.02,0.852-0.065,0.914,0.519c0,0,0.021,0.189,0.025,0.228c0.107,0.099,0.205,0.19,0.205,0.19
			c0.012,0.021,0.041,0.624,0.041,0.624s-0.021,0.22-0.021,0.226c0.012,0.001,0.108,0.074,0.108,0.074l0.435,0.473
			c0.004,0.013,0.252,1.209,0.252,1.209l0.036,0.209c0.116,0.717,0.16,1.228,0.16,1.593c0,0.684-0.15,0.854-0.271,0.917
			c0.004,0.045,0.042,0.108,0.042,0.151c0,0.344-0.124,0.608-0.226,0.824c-0.078,0.169-0.135,0.289-0.135,0.416
			c0,0.096,0.034,0.196,0.113,0.323l0.292,0.462l-0.547,0.029c-0.563,0.03-0.611,0.162-0.706,0.427
			c-0.109,0.307-0.276,0.771-1.154,0.926l-0.471,0.081l0.104-0.467c0.144-0.65-0.077-1.225-0.286-1.785l-0.258-0.792
			c0.002,0.006,0.162-0.603,0.162-0.603l0.104-0.26c-0.023-0.376-0.181-0.496-0.521-0.757l-0.464-0.383l0.21-0.554
			c0,0,0.178,0.054,0.322,0.099c-0.041-0.072-0.045-0.165-0.098-0.237c-0.109-0.152-0.193-0.354-0.24-0.568
			c-0.077,0.031-0.148,0.073-0.244,0.06c-0.293-0.04-0.46-0.314-0.561-0.518l-0.244-0.496l0.551,0.033
			c0.238,0.014,0.299-0.065,0.459-0.414c0,0,0.068-0.102,0.116-0.171c-0.179-0.03-0.364-0.045-0.545-0.028
			c-0.323,0.033-0.724,0.072-0.885-0.296l-0.133-0.302l0.629-0.251c0.372-0.143,0.724-0.278,0.874-0.545
			c0,0,0.291-0.521,0.384-0.686c-0.429-0.303-0.774-0.768-0.867-1.503c-0.018-0.146-0.026-0.295-0.026-0.444
			c0-0.848,0.306-1.677,0.977-1.86l0.277-0.076c0,0,0.036,0.13,0.07,0.25c0.027-0.357,0.064-0.716,0.064-1.065
			c0-0.858-0.148-1.653-0.471-2.349c-0.03,0.007-0.049,0.034-0.081,0.037c-0.312,0.023-0.573-0.18-0.634-0.496l-0.045-0.235
			l0.279-0.135l0.402-0.21c0.164-0.107,0.397-0.252,0.659-0.257c-0.036-0.056-0.04-0.121-0.106-0.185c0,0-0.134-0.215-0.244-0.392
			c-0.037,0.093-0.076,0.185-0.168,0.254l-0.119,0.089l-0.559-0.128c-0.429-0.084-0.914-0.179-1.15-0.605l-0.277-0.503l0.573,0.028
			c0.333,0.017,0.55-0.056,0.726-0.157c-0.034-0.225-0.174-0.336-0.486-0.491c-0.32-0.16-0.718-0.357-0.838-0.856l-0.104-0.438
			l0.448,0.044c0.381,0.039,0.727,0.317,1.061,0.586c0.082,0.066,0.188,0.151,0.288,0.224c0.069-0.115,0.169-0.213,0.272-0.289
			c0,0,0.047-0.039,0.09-0.075c-0.18-0.128-0.326-0.291-0.333-0.492c0-0.005,0-0.011,0-0.017c0-0.179,0.105-0.391,0.407-0.471
			l0.17-0.045l0.003,0.048l0.485,0.453c0.066,0.12,0.104,0.162,0.197,0.151c-0.008-0.405-0.18-0.633-0.398-0.907
			c0,0-0.145-0.225-0.262-0.408C291.17,22.524,290.232,22.783,289.92,23.266L289.92,23.266z"/>
		<path fill="#EC2227" d="M256.915,74.863c0,0.09,0.017,0.133,0.03,0.145c0,0,0.022,0.004,0.023,0.004
			c-0.011-0.049-0.051-0.109-0.054-0.156C256.915,74.857,256.915,74.861,256.915,74.863L256.915,74.863z M264.508,53.994
			c0,0.078,0.015,0.114,0.027,0.125c0.002,0.002,0.057,0.035,0.216,0.03c0.015-0.059,0.029-0.118,0.029-0.12
			c-0.007,0.014-0.212-0.045-0.212-0.045s-0.049-0.025-0.059-0.031C264.509,53.967,264.508,53.981,264.508,53.994L264.508,53.994z
			 M251.563,39.107c-0.002,0.001-0.005,0.033-0.009,0.037c0.021-0.003,0.038-0.011,0.058-0.016
			C251.596,39.124,251.567,39.105,251.563,39.107L251.563,39.107z M251.951,24.89c-0.013,0.102-0.037,0.32-0.037,0.32
			c0.002,0.059,0.004,0.12,0.004,0.184c0,0.242-0.03,0.513-0.221,0.762c0.002-0.003-0.652,0.277-0.652,0.277
			s-0.049,0.014-0.089,0.025c0.016,0.039,0.022,0.068,0.081,0.151l0.266,0.632l-0.234,0.102c-0.113,0.115-0.131,0.166-0.149,0.218
			c0.337,0.063,0.506,0.309,0.582,0.461l0.083,0.142c0,0,0.033-0.007,0.047-0.01c-0.027-0.2-0.058-0.424-0.058-0.424
			c-0.03-0.129-0.052-0.237-0.052-0.357c0-0.174,0.044-0.375,0.162-0.706l0.096-0.268l0.277,0.063
			c0.244,0.056,0.26,0.022,0.38-0.241c0.103-0.224,0.296-0.575,0.769-0.615c-0.001-0.005-0.002-0.007-0.003-0.012
			c-0.078-0.052-0.2-0.135-0.2-0.135l-0.597-0.375C252.26,24.937,252.168,24.864,251.951,24.89L251.951,24.89z M254.34,24.76
			c0,0,0.031-0.341,0.048-0.505L254.34,24.76L254.34,24.76z M261.991,18.818c0.073,0.067,0.104,0.174,0.163,0.263
			c0.024-0.203,0.035-0.298,0.059-0.485c-0.189-0.042-0.378-0.083-0.378-0.083s-0.048-0.014-0.072-0.021
			C261.79,18.587,261.836,18.676,261.991,18.818L261.991,18.818z M258.004,18.542c-0.313,0.108-0.687,0.214-1.079-0.015
			c-0.126,0.176-0.209,0.426-0.275,0.721c-0.107,0.488-0.231,1.041-0.717,1.299l-0.378,0.2l-0.148-0.727l0.113-0.141l-0.902,0.967
			c-0.488,0.416-0.805,0.709-0.805,1.084c0,0.114,0.028,0.235,0.09,0.369c0,0-0.42,0.292-0.482,0.335
			c-0.013,0.289-0.035,0.661-0.316,0.859c-0.065,0.046-0.148,0.052-0.228,0.069c0.038,0.37,0.146,0.671,0.29,0.986
			c0,0,0.113,0.271,0.166,0.395c0.021-0.009,0.044-0.025,0.066-0.028c-0.009-0.029-0.183-0.545-0.183-0.545l0.412-0.086
			c0.35,0.017,0.583-0.054,0.76-0.167c-0.021-0.012-0.132-0.078-0.132-0.078c-0.178-0.088-0.504-0.25-0.504-0.691
			c0-0.135,0.029-0.295,0.104-0.486l0.08-0.211l0.226,0.006c0.717,0.018,1.224-0.198,1.646-0.701l0.146-0.174l0.3,0.131l0.57,0.22
			c0,0,0.148,0.06,0.272,0.11c0-0.001,0-0.004,0-0.005c0-0.359,0.042-0.816,0.509-0.929l0.25-0.061l0.113,0.231
			c0.12,0.248,0.355,0.377,0.549,0.548c0.057-0.216,0.17-0.412,0.478-0.454l0.413-0.056c0,0-0.115,0.869-0.115,0.872
			c0.001-0.019,0.392-0.022,0.392-0.022l0.806,0.032c0.011,0.003,0.612,0.563,0.612,0.563l0.465,0.517l-0.178,0.304l-0.094,0.084
			l0.037,0.135c0.033,0.107,0.078,0.249,0.078,0.421c0,0.036-0.037,0.087-0.041,0.125c0.118-0.006,0.269-0.014,0.269-0.014
			l0.385,0.631c0,0,0.013,0.037,0.021,0.061c0.063-0.028,0.109-0.078,0.181-0.085c0.315-0.031,0.592,0.173,0.652,0.485l0.064,0.325
			l-0.326,0.053c-0.253,0.042-0.394,0.198-0.571,0.396l-0.873,0.833c0,0,0-0.027,0-0.03c-0.088,0.32-0.148,0.546-0.179,0.659
			c0.064,0.634,0.281,1.085,0.673,1.364l-0.217,0.579l-0.85-0.19c-0.188-0.051-0.447-0.114-0.68-0.159
			c-0.016,0.161-0.103,0.305-0.186,0.417c0.02-0.006,0.07-0.021,0.07-0.021c0.324-0.13,0.689-0.277,1.024-0.13l0.987,1.129
			l-0.929-0.234c-0.382-0.06-0.494,0.012-0.52,0.036c-0.086,0.077-0.065,0.356-0.051,0.559c0.023,0.346,0.055,0.777-0.301,0.991
			l-0.485,0.291c0,0,0-0.631,0-0.656c-0.186,0.021-0.354,0.004-0.486-0.061c-0.004,0.279-0.298,0.371-0.699,0.494
			c0,0-0.18,0.065-0.311,0.112c0.027,0.11,0.376,1.458,0.376,1.458l-0.61-0.275l-0.383-0.104c-0.1,0.001-0.179-0.035-0.262-0.061
			c0.068,0.072,0.146,0.146,0.213,0.208l1.099,1.084l-1.178-0.298l-0.301-0.072c0,0,0.001,0.001,0.001,0.005
			c0,0.035-0.049,0.211-0.049,0.211l-0.342,0.633l-1.14,0.088l0.273-0.359c0,0,0.043-0.111,0.085-0.217
			c-0.567,0.322-1.108,0.786-1.138,1.087c0,0.005-0.001,0.012-0.001,0.019c0,0.041,0.019,0.111,0.175,0.199l-0.177,0.599
			c-0.166-0.01-0.238,0.065-0.37,0.221l-0.528,0.322c0,0-0.122-0.067-0.218-0.122c-0.143,0.28-0.405,0.429-0.575,0.477
			c0,0-0.054,0.019-0.105,0.039c0.006,0.053,0.028,0.117,0.028,0.164c0,0.45-0.303,0.638-0.483,0.75
			c-0.128,0.08-0.188,0.117-0.188,0.214c0,0.053,0.018,0.124,0.052,0.229c0,0,0.085,0.264,0.168,0.518
			c0.011,0.01,0.052,0.049,0.052,0.049c-0.012,0.018-0.01,0.031-0.019,0.047c0.085,0.26,0.153,0.473,0.169,0.523
			c0.038,0.044,0.058,0.075,0.106,0.13c0.221,0.25,0.501,0.589,0.526,1.002c0.152-0.2,0.391-0.438,0.934-0.313l0.072,0.017
			l0.057,0.046c0.279,0.224,0.396,0.224,0.689-0.003l0.23-0.18l0.199,0.214c0.302,0.325,0.373,0.81,0.373,1.352
			c0,0.033-0.003,0.068-0.003,0.103c0.022-0.006,1.062-0.272,1.062-0.272l-0.026,0.242l0.29,0.851c0.102,0.393,0.2,0.761,0.42,0.926
			c0.035-0.008,0.036-0.046,0.078-0.048c0.65,0.187,1.223,0.489,1.635,0.966c0.034-0.013,0.057-0.048,0.094-0.052
			c0.204-0.026,0.438,0.098,0.499,0.433l0.043,0.233l-0.118,0.037c0,0-0.202,0.105-0.361,0.189c0.152,0.043,0.302,0.086,0.412,0.26
			l0.118,0.135c0.044-0.131,0.21-0.268,0.427-0.189c0.227,0.082,0.275,0.325,0.292,0.417l0.063,0.322c0,0-0.191,0.028-0.307,0.045
			c0.002,0.043,0.004,0.085,0.004,0.085l-0.053,0.555c0,0.002-0.021,0.021-0.026,0.026c0.149,0.073,0.289,0.178,0.413,0.296
			c0.148,0.141,0.354,0.332,0.479,0.324l1.058-0.791l-0.286,0.932c-0.023,0.066,0.08,0.262,0.142,0.379
			c0.126,0.24,0.271,0.514,0.149,0.797c-0.079,0.182-0.248,0.313-0.506,0.385L261.379,50l0.066-0.536l0.037-0.329
			c-0.031-0.057-0.229-0.098-0.359-0.125c0,0-0.069-0.033-0.09-0.043c-0.02,0.238-0.073,0.465-0.133,0.645
			c0.045,0.007,0.092,0.014,0.141,0.049c0.102,0.072,0.14,0.154,0.14,0.246c0,0.127-0.073,0.269-0.146,0.406
			c-0.119,0.229-0.126,0.301-0.18,0.44c0.229-0.033,0.448-0.042,0.626,0.092c0.327,0.246,0.345,0.733,0.317,1.178l-0.026,0.438
			l-0.305-0.139c0,0-0.056-0.021-0.071-0.027c0.028,0.027,0.409,0.372,0.409,0.372l-0.476,0.175l-0.255,0.143
			c0,0.006,0,0.016,0,0.028c0,0.108-0.037,0.407-0.071,0.659c0.019,0.012,0.057,0.013,0.071,0.025
			c0.18,0.154,0.196,0.385,0.196,0.584c0,0.023-0.002,0.047-0.002,0.07c0,0,0.002,0.047,0.005,0.094
			c0.036-0.012,0.107-0.034,0.107-0.034s0.056-0.009,0.08-0.013c-0.013-0.004-0.019-0.021-0.019-0.045
			c0-0.041,0.011-0.09,0.011-0.09c0.031-0.198,0.097-0.607,0.515-0.678l0.284-0.049l0.078,0.277
			c0.044,0.162,0.063,0.302,0.063,0.424c0,0.438-0.239,0.656-0.41,0.813c-0.125,0.113-0.178,0.178-0.186,0.3
			c0.067,0.025,0.15,0.056,0.15,0.056c0.22,0.063,0.693,0.197,0.693,0.73c0,0.084-0.013,0.178-0.037,0.283l-0.108,0.43l-0.271-0.193
			l-0.597-0.377c-0.135-0.137-0.22-0.213-0.404-0.203c-0.14,0.951-0.269,1.957-0.269,3.094c0,0.27,0.011,0.549,0.025,0.833
			c0.116,0.114,1.815,1.813,1.815,1.813s-2.447,0-2.912,0c-0.003,0.068-0.011,0.141-0.011,0.205c0,0.842,0.245,1.434,0.54,2.05
			l0.295,0.62l-0.665-0.172c-0.363-0.094-0.407-0.009-0.559,0.266c-0.148,0.271-0.401,0.685-1.078,0.591
			c-0.088,0.203-0.176,0.412-0.176,0.412s-0.122,0.018-0.229,0.032c0,0.214,0,0.387,0,0.59c0.357,0.086,0.645,0.278,0.793,0.669
			l0.03,0.079l-0.044,0.18l-0.084,0.523c0.009,0.049,0.021,0.111,0.021,0.182c0,0.162-0.059,0.359-0.338,0.516l-0.2,0.111
			l-0.17-0.153c-0.225-0.203-0.267-0.46-0.267-0.676c0-0.071,0.005-0.14,0.009-0.198c0.004-0.063,0.009-0.114,0.009-0.158
			c0-0.126-0.068-0.174-0.196-0.205c-0.107,0.193-0.402,0.719-0.402,0.719l-0.889,1.533c0,0-0.12-0.291-0.186-0.447
			c-0.102,0.292-0.251,0.655-0.627,0.596l-0.077-0.014l-0.063-0.046c-0.266-0.198-0.443-0.175-0.919-0.076
			c0,0-0.453,0.06-0.759,0.101c-0.009,0.285-0.029,0.797-0.538,0.852c-0.446,0.002-0.626-0.267-0.733-0.428
			c-0.045-0.067-0.073-0.07-0.104-0.093c-0.034,0.155-0.094,0.306-0.238,0.403c-0.271,0.186-0.588,0.061-0.896-0.063
			c-0.314-0.123-0.638-0.252-0.908-0.121c0.051,0.146,0.111,0.283,0.111,0.416c0,0.072-0.019,0.141-0.063,0.212
			c-0.086,0.132-0.265,0.138-0.43,0.159c-0.002,0.044-0.012,0.1-0.012,0.138c0,0.302,0.078,0.444,0.152,0.583l0.203,0.943
			l-0.248,0.002c-0.096,0.043-0.183,0.054-0.381-0.038c0.006,0.046,0.014,0.121,0.014,0.121s-0.006,0.171-0.012,0.32
			c0.055-0.015,0.971-0.249,0.971-0.249l0.021,0.104c0.426,0.329,0.73,0.327,1.191,0.323c0,0,0.518,0.06,0.937,0.109
			c-0.031-0.193-0.044-0.412-0.13-0.52l-0.688-0.844c0,0,1.103,0.359,1.133,0.37C252.998,72.305,253,72.26,253,72.26
			c0-0.021-0.002-0.043-0.002-0.064c0-0.202,0.018-0.436,0.199-0.594c0.082-0.072,0.23-0.148,0.463-0.113l0.253,0.038l0.018,0.254
			c0.008,0.104,0.013,0.205,0.013,0.302c0,1.109-0.484,1.746-0.924,2.314c0.209,0.158,0.386,0.43,0.386,0.944
			c0,0.006-0.001,0.013-0.001,0.017c0.17,0.042,0.339,0.086,0.339,0.086c0.3,0.094,0.574,0.168,0.959,0.135
			c0.028-0.201,0.102-0.549,0.525-0.566c0.608,0.152,0.732,0.008,0.96-0.254l0.803-0.865c0,0-0.03,0.377-0.052,0.646
			c0.122-0.362,0.473-0.548,0.792-0.705c0.375-0.186,0.591-0.344,0.665-0.602c-0.208-0.246-0.408-0.348-0.633-0.426
			c-0.317-0.107-0.713-0.244-0.928-0.902c0,0,0-0.002,0-0.01c0-0.078-0.017-0.674-0.017-0.674s0.005-0.126,0.008-0.242
			c-0.178-0.012-0.387-0.038-0.506-0.229c-0.028-0.045-0.063-0.121-0.063-0.223c0-0.061,0.013-0.129,0.045-0.205
			c0.281-0.307,0.542-0.402,0.809-0.369c0.319,0.037,0.625,0.254,0.841,0.596l0.206,0.325l-0.394,0.155
			c0.019,0.033,0.04,0.068,0.04,0.068c0.087,0.137,0.174,0.355,0.216,0.58c0.022-0.037,0.046-0.026,0.079-0.108
			c0.085-0.214,0.211-0.538,0.602-0.62c0.635,0.02,0.803,0.473,0.902,0.744c0.021,0.055,0.031,0.063,0.048,0.103
			c0.062-0.216,0.137-0.371,0.331-0.567l0.176-0.184c0.402-0.428,0.557-1.057,0.663-1.663c-0.29-0.013-0.697-0.065-0.746-0.528
			c0.094-0.548,0.454-0.729,0.718-0.861l0.518-0.261l-0.054,0.576c-0.005,0.042-0.006,0.081-0.006,0.118
			c0,0.133,0.024,0.229,0.073,0.279c0.02,0.019,0.074,0.017,0.106,0.027c-0.003-0.082-0.005-0.176-0.005-0.176
			c-0.012-0.129-0.024-0.264-0.024-0.396c0-0.254,0.048-0.493,0.239-0.651c0.101-0.083,0.23-0.118,0.375-0.125
			c-0.008-0.133-0.071-0.205-0.189-0.314c-0.168-0.152-0.409-0.373-0.409-0.805c0-0.064,0.005-0.133,0.017-0.207l0.059-0.373
			l0.357,0.117c0.299,0.098,0.32,0.063,0.443-0.135c0.111-0.182,0.302-0.484,0.755-0.482c0.007-0.074,0.036-0.114,0.054-0.175
			c-0.085,0.04-0.168,0.084-0.322,0.056l-0.221-0.039l-0.039-0.221c-0.115-0.654-0.019-1.139,0.285-1.443
			c0.246-0.246,0.621-0.345,1.098-0.314c-0.008-0.208-0.113-0.307-0.296-0.449c-0.226-0.176-0.556-0.432-0.556-0.975
			c0-0.053,0.003-0.107,0.01-0.164l0.071-0.635l0.339,0.363l0.484,0.453c0.074,0.135,0.122,0.166,0.247,0.137
			c0.005-0.021,0.021-0.059,0.021-0.073c0-0.075-0.051-0.103-0.16-0.165l-0.805-0.898l0.583,0.002
			c0.221-0.057,0.366-0.15,0.445-0.286c0.186-0.319,0.031-0.892-0.083-1.31l-0.179-0.668l0.493,0.088
			c0.146,0.023,0.161,0.006,0.271-0.159c0,0,0.074-0.079,0.147-0.157c-0.052-0.184-0.109-0.369-0.109-0.516
			c0-0.189,0.03-0.35,0.057-0.486c0.005-0.027,0.004-0.041,0.008-0.066c-0.193,0.21-0.434,0.388-0.685,0.393
			c-0.13,0.002-0.446-0.042-0.591-0.494l-0.104-0.322l0.421-0.096l0.291-0.076c0.118-0.113,0.152-0.383,0.168-0.676
			c-0.07,0.234-0.224,0.647-0.783,0.576l-0.305-0.038l0.027-0.308c0.002-0.027,0.003-0.054,0.003-0.079
			c0-0.218-0.089-0.337-0.215-0.507c-0.153-0.206-0.341-0.457-0.341-0.887c0-0.051,0.003-0.104,0.009-0.159l0.029-0.288h0.289
			c0.051,0,0.062,0,0.155-0.141c0.102-0.152,0.285-0.396,0.665-0.419c-0.01-0.12-0.072-0.905-0.072-0.905l0.337,0.109
			c0,0,0.246,0,0.478,0c-0.036-0.439-0.239-0.703-0.51-0.998l-0.56-0.758l0.001-0.116l-0.256-0.815
			c-0.11-0.262-0.203-0.479-0.203-0.656c0-0.117,0.041-0.217,0.142-0.299c0.063-0.051,0.132-0.064,0.201-0.072
			c-0.066-0.092-0.152-0.172-0.26-0.266l-0.464-0.488l0.026-0.079c-0.003-0.056-0.005-0.11-0.005-0.165
			c0-0.338,0.132-0.551,0.241-0.783c-0.701-0.396-0.864-1.277-0.979-2.09c0,0-0.011-0.07-0.017-0.109
			c-0.115,0.008-0.23-0.002-0.341-0.072c-0.226-0.15-0.245-0.414-0.245-0.627c0-0.018,0-0.034,0.001-0.049
			c-0.031,0.008-0.051,0.04-0.083,0.043c-0.185,0.013-0.418-0.1-0.47-0.458c-0.218-1.246-0.795-1.833-1.871-1.896l-0.283-0.017
			l0.031-0.133l-0.042-0.628c0,0,0.003-0.025,0.005-0.033c-0.19,0.023-0.356,0.021-0.473-0.108c-0.086-0.073-0.111-0.174-0.111-0.28
			c0-0.089,0.019-0.182,0.034-0.26c-0.097-0.003-0.325-0.017-0.504-0.328l0,0c0-0.011-0.132-0.399-0.224-0.675
			c-0.345-0.041-0.904-0.171-1.147-0.709l-0.142-0.312l0.811-0.304c0.907-0.322,1.482-0.575,1.482-1.46
			c0-0.063-0.004-0.129-0.01-0.198l-0.035-0.409l0.405,0.065c0.225,0.036,0.28-0.025,0.427-0.187
			c0.168-0.183,0.415-0.431,0.911-0.396c0.038-0.171,0.083-0.367,0.083-0.367c0.056-0.416,0.137-0.874,0.498-1.133
			c-0.004-0.048-0.015-0.082-0.015-0.132c0-0.257,0.062-0.537,0.298-0.709c0,0.002,0.343-0.041,0.415-0.05
			c-0.026-0.204-0.118-0.411-0.2-0.557l-0.577-1.019l1.063,0.568c0.155,0.088,0.257,0.136,0.342,0.171
			c-0.004-0.02-0.006-0.04-0.006-0.058c0-0.203,0.166-0.328,0.301-0.423c-0.166-0.176-0.266-0.353-0.266-0.541
			c0-0.132,0.027-0.271,0.063-0.419c0,0,0.03-0.221,0.056-0.416c-0.211-0.037-0.509-0.122-0.509-0.524v-0.343
			c0,0,0.598,0.043,0.609,0.044c-0.045-0.007-0.139-0.445-0.139-0.445c-0.057-0.177-0.109-0.348-0.109-0.501
			c0-0.115,0.03-0.221,0.114-0.311c0.063-0.068,0.209-0.173,0.462-0.112c0.002,0,0.396,0.169,0.396,0.169
			c0.136,0.075,0.233,0.125,0.392,0.119c0.062-0.15,0.135-0.325,0.135-0.325c0.145-0.324,0.214-0.508,0.214-0.624
			c0-0.063-0.019-0.105-0.06-0.139l-0.211-0.177l0.104-0.322c0.114-0.189,0.376-0.232,0.611-0.216
			c0.071-0.43,0.196-1.186,0.196-1.186l-0.326-0.938l0.122-0.042c0.048-0.071,0.123-0.239,0.188-0.406
			c-0.056,0.021-0.095,0.067-0.159,0.072c-0.311,0.023-0.573-0.18-0.634-0.496l-0.046-0.23c0,0,0.283-0.124,0.324-0.141
			c0.089-0.184,0.241-0.377,0.476-0.479c-0.075-0.716-0.415-1.156-0.852-1.607l-0.455-0.475c0,0,0.189-0.046,0.369-0.09
			c-0.007-0.003-0.014-0.001-0.021-0.005c-0.147-0.084-0.187-0.248-0.198-0.419c-0.051,0.057-0.113,0.108-0.207,0.13
			c0.011,0.078,0.041,0.159,0.041,0.235c0,0.178-0.038,0.348-0.146,0.501c-0.16,0.229-0.435,0.358-0.839,0.396l-0.516,0.049
			l0.186-0.484c0.257-0.664,0.316-1.118,0.362-1.592c-0.089,0.062-0.185,0.097-0.236,0.113l-0.43,0.139c0,0,0.013-0.251,0.021-0.412
			c-0.088,0.008-0.184,0.018-0.184,0.018c-0.285,0.044-0.607,0.094-0.812-0.134c-0.06-0.067-0.119-0.174-0.119-0.334
			c0-0.061,0.009-0.131,0.03-0.208l0.048-0.172l0.169-0.051c0.021-0.006,0.034-0.024,0.054-0.032
			c-0.184,0.081-0.388,0.168-0.689,0.164c0.043,0.19,0.127,0.375,0.318,0.631l0.652,1.212c0,0-0.188,0.006-0.338,0.011
			c0.046,0.053,0.096,0.11,0.096,0.11c0.152,0.144,0.421,0.397,0.421,0.706c0,0.133-0.05,0.277-0.18,0.427l-0.134,0.155
			l-0.197-0.057c-0.396-0.115-0.6-0.403-0.689-0.768c-0.064,0.015-0.131,0.031-0.131,0.031c-0.116,0.058-0.291,0.145-0.483,0.06
			c-0.196-0.087-0.254-0.292-0.272-0.359l-0.05-0.179l0.13-0.132c0.152-0.152,0.214-0.32,0.214-0.506c0-0.34-0.212-0.74-0.49-1.217
			c0,0-0.118-0.226-0.217-0.42C258.4,18.471,258.004,18.542,258.004,18.542L258.004,18.542z"/>
		<path fill="#EC2227" d="M200.54,47.566c0.034,0.004,0.073,0.01,0.073,0.01s-0.001-0.002-0.001-0.006
			c0-0.006,0.007-0.029,0.011-0.043C200.599,47.545,200.566,47.55,200.54,47.566L200.54,47.566z M202.073,44.445l0.064,0.227
			c-0.001,0.002-0.001,0.004-0.001,0.004c0,0.023,0.152-0.164,0.152-0.164c-0.094-0.064-0.18-0.152-0.266-0.238
			C202.04,44.332,202.064,44.395,202.073,44.445L202.073,44.445z M187.977,35.539c0,0,0.123-0.087,0.23-0.161
			c-0.112-0.039-0.524-0.179-0.524-0.179L187.977,35.539L187.977,35.539z M183.576,24.062c0-0.16,0.091-0.285,0.208-0.376
			c-0.025-0.009-0.062-0.022-0.062-0.022L183.576,24.062L183.576,24.062z M205.082,17.685c-0.029,0.244-0.067,0.574-0.067,0.574
			c-0.127,0.367-0.236,0.721-0.236,1.002c0,0.202,0.056,0.367,0.2,0.476l-0.205,0.576c0,0-0.311-0.121-0.433-0.167
			c-0.013,0.359-0.145,0.62-0.245,0.792c0.052,0.025,0.12,0.059,0.12,0.059l0.067,0.421c-0.004,0.019-0.344,0.414-0.344,0.414
			l-0.233,0.218c-0.119,0.3-0.194,0.7-0.194,1.063c0,0.189,0.065,0.321,0.109,0.473c0.162,0.02,0.338,0.124,0.394,0.417l0.058,0.303
			l-0.301,0.068c-0.597,0.136-0.848,0.681-0.848,1.901c0,0.151,0.003,0.313,0.011,0.486l0.007,0.155l-0.118,0.102
			c-0.456,0.393-0.575,0.88-0.575,1.436c0,0.296,0.033,0.612,0.068,0.944l0.1,1.556l-0.42-0.069l-0.15-0.014c0,0,0,0.004,0,0.011
			c0,0.064-0.04,0.379-0.04,0.379c-0.011,0.306-0.022,0.653-0.279,0.861c0,0-0.101,0.021-0.168,0.035
			c0.034,0.178,0.069,0.356,0.069,0.356c0,0.442-0.359,0.64-0.513,0.724l-0.057,0.031l-0.168-0.002l-0.596,0.065l-0.209-0.172
			l-0.09-0.116c-0.383-0.093-0.558-0.005-0.78,0.104l-0.766,0.186l0,0c0-0.002-0.838-0.307-0.838-0.307l-0.554-0.24
			c-0.022,0.052-0.501,0.276-0.501,0.276l-0.145,0.068l-0.03-0.131l-0.396-0.211c-1.792-0.244-3.974-0.426-4.476-0.28
			c0.003-0.001-0.684,0.025-0.684,0.025l-0.221-0.013c0.005,0-0.74-0.065-0.74-0.065c0.003-0.003-0.268,0.055-0.268,0.055
			c-0.73,0.183-1.995,0.051-2.295,0.006l-0.511-0.083c-0.101-0.021-0.154-0.005-0.154-0.005l-0.295,0.083
			c-0.376,0.094-1.267,0.175-1.614-0.177c-0.129-0.131-0.176-0.309-0.129-0.488c-0.002,0.013,0.189-0.717,0.189-0.717
			c0.191-0.66,0.281-0.961-0.16-1.758l-0.362-0.657l0.904,0.242c-0.034-0.081,0.288-0.594,0.288-0.594s0.087,0.001,0.129,0.002
			c-0.002-0.005-0.008-0.032-0.008-0.032l-0.176-1.009c0,0.009,0.278-0.66,0.278-0.66c-0.148-0.072-0.282-0.212-0.282-0.402
			c0-0.036,0.004-0.073,0.015-0.113c0-0.003,0.321-0.379,0.321-0.379s0.226-0.209,0.239-0.223c-0.017-0.003-0.021-0.156-0.021-0.156
			l-0.01-0.267c0.002,0.007,0.258-0.585,0.258-0.585c0.002,0.001,0.002,0,0.002-0.001c0-0.033-0.134-0.539-0.134-0.539
			s-0.115-0.557-0.115-0.558c0.007,0.005,0.315-0.406,0.315-0.406c0.135-0.098,0.21-0.152,0.217-0.344
			c0,0.003-0.07-0.123-0.07-0.123c-0.083-0.108-0.215-0.276-0.215-0.548c0-0.06,0.006-0.125,0.021-0.194l0.349-0.545
			c0.088-0.094,0.096-0.129,0.132-0.184c-0.29-0.012-0.707-0.062-0.757-0.529l-0.042-0.401l0.4,0.05
			c0.187,0.023,0.236,0.029,0.313-0.514c0,0,0.037-0.139,0.07-0.266c-0.261-0.063-0.477-0.167-0.639-0.275
			c-0.165-0.111-0.317-0.174-0.513-0.198c-0.001,0.341-0.103,0.606-0.181,0.813c-0.057,0.145-0.091,0.233-0.091,0.304
			c0,0.076,0.04,0.132,0.132,0.219l-0.344,0.528c0,0-0.039-0.012-0.078-0.023c-0.002,0.051-0.004,0.102-0.004,0.102
			c0,0.023,0,0.047,0,0.07c0,0.2-0.017,0.429-0.197,0.582c-0.006,0.005-0.024,0.005-0.031,0.01c0.023,0.102,0.08,0.229,0.08,0.313
			c0,0.141-0.024,0.258-0.043,0.359c-0.016,0.073-0.027,0.133-0.027,0.192c0,0.101,0.034,0.199,0.146,0.357l0.201,0.284
			c0,0-0.381,0.184-0.431,0.208c-0.059,0.13-0.128,0.255-0.22,0.361c0.104,0.063,0.196,0.165,0.231,0.359l0.041,0.225
			c0,0-0.299,0.136-0.324,0.147c-0.089,0.18-0.234,0.365-0.449,0.471c0.036,0.129,0.116,0.274,0.116,0.39
			c0,0.327-0.119,0.603-0.221,0.846c-0.092,0.214-0.168,0.395-0.168,0.59c0,0.145,0.041,0.298,0.15,0.479l0.224,0.372l-0.517,0.114
			l-0.16,0.04c-0.162,0.146-0.18,0.667-0.193,1.086l-0.142,1.105c-0.001,0.005-0.379,0.546-0.453,0.654
			c0.104,0.11,0.217,0.26,0.217,0.49c0,0.059-0.008,0.121-0.026,0.186c-0.058,0.202-0.24,0.264-0.449,0.335
			c0,0-0.039,0.015-0.077,0.029c0.014,0.136,0.077,0.218,0.192,0.322l0.289,0.502l-0.459,0.858l-0.217-0.216
			c-0.338-0.166-0.887-0.145-1.466-0.123c-0.618,0.024-1.319,0.052-2.001-0.125l0,0c0-0.002-0.397-0.342-0.397-0.342
			s-0.168-0.183-0.192-0.211c-0.003,0.043-0.232,0.125-0.232,0.125l-0.47,0.166l0.001,0c0-0.007-0.338-0.17-0.338-0.17
			c-0.084-0.075-0.144-0.101-0.209-0.115c-0.012,0.178-0.036,0.397-0.231,0.517l-0.487,0.297l-0.124-0.577c0,0,0-0.215,0-0.429
			c-0.701,0.13-6.986,1.296-6.986,1.296l-1.859,0.306c0,0-0.03-0.1-0.062-0.197c-0.105,0.031-0.215,0.056-0.335-0.007
			c-0.127-0.065-0.21-0.187-0.245-0.36v-0.002c0-0.139,0.191-1.861,0.191-1.861c0.088-0.987,0.172-1.918,0.369-2.394
			c0.173-0.437,0.233-1.072,0.292-1.687l0.237-1.536c0.037-0.173,0.197-0.234,0.42-0.32l0.213-0.09
			c0.027-0.114,0.169-1.145,0.169-1.366c0-0.005,0-0.01,0-0.014c-0.011-0.174-0.143-1.732-1.079-1.87
			c0.018,0.001,0.025,0.018,0.025,0.042c0,0.055-0.032,0.143-0.032,0.143c-0.042,0.147-0.178,0.38-0.422,0.514
			c0.012,0.099,0.034,0.203,0.034,0.296c0,0.693-0.28,1.235-0.515,1.688c-0.194,0.377-0.357,0.69-0.357,1.026
			c0,0.211,0.065,0.431,0.223,0.682l0.229,0.359l-0.407,0.12c-0.297,0.088-0.449,0.633-0.53,0.926l-0.076,0.24
			c-0.094,0.234-0.126,0.394-0.126,0.532c0,0.126,0.026,0.233,0.061,0.361l0.087,0.918c0,0.001-0.149,0.948-0.149,0.948
			c-0.094,0.501-0.188,1.014-0.188,1.535c0,0.227,0.017,0.454,0.062,0.683l0.021,0.112l-0.054,0.1
			c-0.322,0.599-1.02,0.671-1.636,0.735c0,0-0.921,0.201-0.922,0.202v0.001c0,0.015-0.084,0.211-0.084,0.211
			c-0.08,0.23-0.201,0.58-0.57,0.643l-0.418,0.072l0.071-0.632c-0.063-0.032-0.407,0.004-0.591,0.022c0,0-0.175-0.002-0.338-0.005
			c0.041,0.117,0.06,0.241,0.142,0.357c0,0,0.118,0.237,0.209,0.417c0.084,0.03,0.175,0.046,0.241,0.105
			c0.073-0.068,0.163-0.128,0.303-0.153l0.314-0.056l0.057,0.316c0.04,0.225,0.256,0.292,0.846,0.369c0,0,0.177,0.043,0.335,0.081
			c-0.036-0.074-0.078-0.156-0.078-0.257c0-0.053,0.009-0.108,0.035-0.165c0.083-0.197,0.284-0.259,0.352-0.279l0.209-0.064
			l0.217,0.276c0.101-0.113,0.276-0.223,0.481-0.142c0.223,0.088,0.287,0.333,0.311,0.426l0.02,0.072c0,0-0.683,3.409-0.77,3.838
			c0.2,0.041,0.474,0.129,0.489,0.498l0.016,0.39l-0.384-0.06c-0.128-0.02-0.188-0.002-0.201,0.01
			c-0.014,0.011-0.037,0.062-0.037,0.174c0,0.359,0.227,0.866,0.273,0.942l0.111,0.187l-0.059,0.072l-0.312,0.41
			c-0.132,0.102-0.211,0.162-0.222,0.35c-0.004,0.066,0.035,0.199,0.035,0.199l0.032,0.109l0.073,0.192l-0.199,0.477
			c0.012-0.028,0.162,0.244,0.162,0.244l0.228,0.527l-0.183,0.141l-0.15,0.289c-0.001,0.016-0.204,0.879-0.204,0.879l-0.075,0.258
			l-0.177,1.079l0.094,0.733c0,0,0.024,0.145,0.051,0.283c0.108,0.016,0.251,0.08,0.385,0.193c0.114-0.025,0.288-0.063,0.288-0.063
			c0.211-0.124,0.402-0.073,0.607,0.03c0.086-0.051,0.177-0.073,0.271-0.081c0.001-0.01,0.007-0.044,0.007-0.044
			c0.052-0.121,0.178-0.213,0.313-0.278c0.021-0.157,0.047-0.345,0.047-0.345l0.215-0.889c0.399-1.051,0.432-2.804,0.432-4.659
			v-0.663l0.092-2.734c0,0.002,0.156-0.477,0.156-0.477l0.116-0.346c0-0.003-0.064-0.128-0.064-0.128l-0.243-0.722l0.07-0.057
			l0.249-0.77c0-0.002,0.039-0.169,0.039-0.169c0.08-0.345,0.17-0.735,0.738-0.867l0.095-0.021l0.092,0.035
			c0.508,0.195,0.854,0.201,1.478,0.211c0,0,0.499,0.017,0.828,0.029c0.024-0.181,0.075-0.34,0.22-0.425
			c0.21-0.124,0.408-0.012,0.541,0.061l0.313,0.104c0.003,0,0.869-0.197,0.869-0.197s-0.053,0.206-0.099,0.384
			c0.112-0.059,0.212-0.14,0.324-0.239c0.246-0.22,0.552-0.493,1.107-0.493c0.329,0.026,0.458,0.221,0.54,0.376
			c0.025-0.278,0.101-0.589,0.501-0.645l0.136-0.019l0.141,0.114c0,0,0.198,0.158,0.209,0.166h-0.002
			c0-0.031,0.134-0.202,0.134-0.202c0.146-0.218,0.347-0.517,0.714-0.598l0.597-0.131l-0.206,0.464c0,0-0.184,0.451-0.197,0.486
			c0.449,0.012,1.463,0.038,1.463,0.038c1.11-0.045,2.24-0.042,3.1,0.766c0.251,0.004,0.393-0.094,0.583-0.227l0.625-0.31
			l0.303,0.537l-0.005,0.006c0.275,0.067,0.54,0.171,0.629,0.501c0.022,0.069,0.034,0.134,0.034,0.196
			c0,0.283-0.218,0.481-0.311,0.565c-0.017,0-0.148,0.867-0.148,0.867l-0.126,1.003c-0.003,0.008-0.301,0.396-0.301,0.396
			l-0.23,0.371c0,0.008-0.002,0.508-0.002,0.508l0.007,0.692l-0.09,0.047c-0.508,0.518-0.581,1.184-0.581,1.948
			c0,0.156,0.003,0.316,0.006,0.479c0.002,0.169,0.006,0.342,0.006,0.515c0,0.499-0.027,1.009-0.162,1.525
			c-0.001,0.003-0.031,0.706-0.031,0.706l0.04,0.875c-0.001,0.008-0.274,1.084-0.274,1.084s-0.093,0.374-0.172,0.695
			c0.422-0.03,0.666,0.36,0.768,0.528l0.07,0.111c0.206,0.013,0.323-0.107,0.327-0.113c0,0,0.35,0.266,0.446,0.34
			c0.359,0.01,0.679-0.028,0.884-0.143c-0.054-0.26-0.106-0.521-0.106-0.764c0-0.479,0.081-0.924,0.155-1.338
			c0.07-0.379,0.132-0.723,0.132-1.045c0-0.384-0.089-0.739-0.361-1.094l-0.444-0.577c0,0,0.761,0.065,0.761,0.067
			c-0.016-0.055-0.058-0.105-0.058-0.159c0-0.075,0.021-0.149,0.072-0.222c0.074-0.106,0.207-0.117,0.333-0.139
			c-0.032-0.122-0.063-0.238-0.063-0.326c0-0.165,0.07-0.29,0.262-0.457c0,0,0.063-0.06,0.126-0.118
			c-0.114-0.274-0.223-0.548-0.223-0.811c0-0.646,0.28-1.254,0.539-1.814c0.252-0.548,0.481-1.045,0.481-1.541
			c0-0.241-0.055-0.481-0.187-0.728l-0.257-0.472c0,0,0.64,0,0.724,0c-0.028-0.256-0.06-0.528-0.06-0.528l-0.205-0.896l0.199-0.165
			c0.941-0.508,1.249-0.519,2.047-0.36c0.104-0.357,0.427-0.512,0.614-0.565l0.392-0.15l0.23-0.012l0.398,0.276
			c0.325,0.259,0.368,0.28,0.577,0.06c0,0,0.48,0.17,0.526,0.187c0.017-0.01,0.072-0.051,0.072-0.051
			c0.229-0.104,0.37-0.173,0.421-0.303l0.615,0.163c0,0-0.005,0.163-0.006,0.225c0.033-0.059,0.204-0.121,0.204-0.121
			c0.245-0.1,0.55-0.225,0.782-0.02c0.085,0.074,0.092,0.178,0.108,0.276c0.695-0.178,1.36,0.012,1.909,0.23
			c0.264,0.105,0.49,0.153,0.717,0.2c0-0.013-0.012-0.011-0.012-0.023v-0.277l0.273-0.04c1.161-0.17,1.787,0.237,2.34,0.597
			c0,0,0.731,0.349,0.912,0.436c0.252-0.173,0.576-0.179,0.822-0.158c0,0,0.229-0.005,0.328-0.008
			c0.014-0.208,0.038-0.398,0.193-0.519c0.08-0.059,0.213-0.12,0.41-0.071l0.1,0.024l0.067,0.078
			c0.126,0.146,0.187,0.141,0.47,0.044c0.126-0.043,0.294-0.098,0.478-0.1c-0.017-0.049-0.043-0.085-0.043-0.141
			c0-0.052,0.01-0.107,0.033-0.165c0.085-0.197,0.288-0.259,0.354-0.279l0.151-0.046l0.129,0.092
			c0.306,0.219,0.397,0.486,0.397,0.748c0,0.248-0.083,0.492-0.15,0.686c0,0-0.067,0.269-0.095,0.376
			c0.101,0.097,0.255,0.264,0.255,0.565c0,0.028-0.003,0.056-0.005,0.085c0,0.005-0.428,1.564-0.428,1.564s-0.333,1.193-0.367,1.313
			c0.121,0.101,0.263,0.244,0.263,0.522c0,0.048-0.003,0.097-0.013,0.152c-0.001,0.006-0.236,0.343-0.236,0.343l-0.031,0.125
			l0.079,0.202l0.193,0.632c0,0.008-0.183,0.547-0.183,0.547l0.181,0.165l-0.006,0.363c-0.041,0.08-0.159,0.088-0.244,0.146
			c0.018,0.092,0.04,0.208,0.04,0.208l0.08,0.453c0,0.296-0.151,0.463-0.278,0.551c-0.089,0.042-0.855,0.012-0.855,0.012
			l-0.388-0.741c0,0-0.013-0.048-0.021-0.075c-0.033,0.44-0.069,0.93-0.069,0.93c-0.054,0.311-0.107,0.627-0.107,0.881
			c0,0.189,0.03,0.346,0.114,0.438c0.124,0.133,0.416,0.184,0.844,0.145l0.349-0.032c0,0,0,0.721,0,1.04
			c0.104-0.015,0.207-0.047,0.298-0.043c-0.053-0.092-0.131-0.18-0.131-0.268c0-0.058,0.006-0.107,0.008-0.142l0.02-0.167
			c0,0,0.205-0.081,0.265-0.104c0.109-0.243,0.214-0.481,0.505-0.55c0.002,0,0.171,0.029,0.338,0.058
			c0.025-0.155,0.086-0.312,0.157-0.438c-0.188-0.104-0.488-0.285-0.488-0.588c0-0.061,0.013-0.127,0.042-0.197l0.055-0.129
			l0.138-0.056c0.072-0.026,0.173,0.018,0.253,0.038c-0.043-0.174-0.122-0.318-0.383-0.596l-0.32-0.34l0.432-0.177
			c0.225-0.091,0.555-0.195,0.834-0.046c0.075,0.041,0.104,0.108,0.149,0.165c-0.04-0.097-0.1-0.178-0.1-0.306
			c0-0.027,0.001-0.054,0.004-0.082l0.042-0.591c0,0,0.514,0.396,0.516,0.397c-0.004-0.125-0.01-0.257-0.01-0.257l-0.068-0.254
			l0.026-0.565l0.049-0.156l0.231-1.68c0.026-0.496,0.083-1.003,0.228-1.51c-0.21-0.043-0.472-0.136-0.472-0.514v-0.324l0.324,0.004
			c0.102,0.001,0.139,0.001,0.219-0.412c0.051-0.26,0.145-0.683,0.505-0.858c-0.021-0.268-0.054-0.517-0.163-0.649l-0.545-0.668
			l0.849,0.149c0.259,0.045,0.289-0.002,0.385-0.166c0.09-0.148,0.274-0.456,0.703-0.375c0,0,0.041,0.007,0.075,0.014
			c0.038-0.203,0.114-0.402,0.318-0.521c0.2-0.118,0.447-0.125,0.739-0.023l0.265,0.093l-0.096,0.444
			c0.061,0.077,0.462,0.097,0.698,0.008c0.004-0.001,0.142-0.146,0.142-0.146l0.445-0.474l0.094,0.059h0.925
			c0.552-0.021,1.096-0.011,1.535,0.141c0.055-0.194,0.157-0.401,0.485-0.414l0.178-0.007l0.102,0.148
			c0.049,0.073,0.057,0.084,0.328,0.017c0.233-0.058,0.572-0.066,0.933,0.077c0.194-0.178,0.462-0.249,0.728-0.242
			c-0.035-0.104-0.086-0.21-0.086-0.332c0-0.049,0.009-0.1,0.03-0.154c0.091-0.224,0.34-0.288,0.434-0.313l0.21-0.053
			c0,0,0.153,0.212,0.158,0.22c0.004-0.022,0.125-0.074,0.125-0.074c0.138-0.069,0.325-0.165,0.529-0.076
			c0.017,0.007,0.309,0.363,0.309,0.363l0.102,0.17c0.046-0.252,0.274-0.635,0.858-0.558c0.249,0.042,0.292,0.267,0.316,0.4
			l0.076,0.263c-0.019-0.097,0.131-0.162,0.131-0.162l2.008-0.644l-0.081,0.48c-0.002,0.02-0.003,0.04-0.003,0.059
			c0,0.153,0.081,0.265,0.15,0.385c0.095-0.03,0.2-0.063,0.2-0.063l0.342-0.175l0.113,0.031l0.592-0.005l0.087,0.031l0.212,0.336
			c0,0,0.123,0.261,0.125,0.264c0-0.001,0.015-0.007,0.02-0.01c0.059-0.291,0.257-1.3,0.257-1.3
			c0.146-0.526,0.286-1.029,0.286-1.668c0-0.115-0.013-0.244-0.022-0.368c-1.054-0.436-2.823-0.436-4.422-0.417
			c0,0-2.28-0.048-2.506-0.053c-0.641,0.556-1.671,0.653-2.683,0.729c0,0-0.821,0.075-0.871,0.08
			c-0.814,0.59-1.725,0.716-2.692,0.816c-0.779,0.081-1.585,0.164-2.397,0.518l-0.319,0.138c0,0-0.046-0.144-0.085-0.269
			c-0.106,0.031-0.215,0.056-0.336-0.007c-0.127-0.065-0.208-0.187-0.245-0.361l-0.031-0.153l0.068-0.072l0.507-0.593
			c0.28-0.268,0.5-0.48,0.536-0.897c-0.009,0.047-0.306-0.493-0.306-0.493c-0.248-0.372-0.48-0.723-0.377-1.057
			c0.033-0.111,0.119-0.263,0.338-0.352l0.25-0.102l0.254,0.414c0.01-0.054,0.139-0.369,0.139-0.61c0-0.046-0.006-0.091-0.016-0.129
			c0,0.004-0.128-0.109-0.128-0.109l-0.576-0.559l0.193-0.125c0.479-0.815,0.896-1.67,1.166-2.678
			c-0.109,0.048-0.233,0.097-0.384,0.03c-0.197-0.087-0.255-0.291-0.273-0.358l-0.052-0.186l0.141-0.132
			c0.267-0.254,0.427-0.581,0.39-0.795c-0.008-0.047-0.033-0.19-0.299-0.308l0.205-0.604c0.201,0.05,0.221,0.024,0.337-0.141
			c0.102-0.145,0.285-0.328,0.586-0.39c-0.047-0.261-0.104-0.52-0.104-0.784c0-0.596,0.098-1.202,0.197-1.829
			c0,0,0.132-1.203,0.182-1.654c-0.24-0.029-0.477-0.095-0.672-0.176C205.191,17.498,205.158,17.536,205.082,17.685L205.082,17.685z
			"/>
		<path fill="#EC2227" d="M38.563,30.62c0,0-0.15-0.001-0.295-0.003c0,0.051-0.001,0.129-0.001,0.129s0.002,0.358,0.002,0.395
			c0.018-0.031,0.124-0.057,0.124-0.057l0.28-0.058c0,0,0.045,0.093,0.083,0.177c0.063-0.105,0.135-0.201,0.22-0.278
			c0.013-0.079,0.054-0.332,0.056-0.338C39.027,30.62,38.563,30.62,38.563,30.62L38.563,30.62z M14.773,24.447
			c-0.132,0.066-0.121,0.265-0.103,0.377c0.103,0.1,0.476-0.012,0.692-0.121c-0.069-0.066-0.153-0.146-0.153-0.146
			C15.076,24.417,14.883,24.393,14.773,24.447L14.773,24.447z M59.656,16.843l-0.935,0.633l-0.15-0.296
			c-0.137-0.216-0.779-0.165-1.295-0.123c0,0-0.698-0.003-0.992-0.004c-0.316,0.468-0.715,0.423-1.05,0.341
			c0,0-0.258-0.018-0.511-0.036c0.023,0.022,0.647,0.589,0.647,0.589l-0.442,0.157c-0.998,0.551-1.646,0.071-2.221-0.352
			c0,0-0.044-0.032-0.069-0.05c-0.407,0.48-1.142,0.504-1.753,0.458l-0.685-0.018c0,0-0.889,0.265-0.889,0.265l-1.031,0.28
			l-0.578-0.153l-0.5-0.119l-1.713,0.29c-1.552,0.282-1.563,0.277-1.681,0.233l-0.296-0.112c0,0,0.15-0.402,0.152-0.41
			c-0.018-0.001-0.098-0.011-0.098-0.011c-0.482-0.13-0.635-0.005-0.865,0.181c-0.214,0.175-0.48,0.392-0.964,0.372
			c-1.075,0.169-2.219,0.015-3.228-0.122l-1.385-0.149c0.007,0-0.408,0.107-0.408,0.107l-0.833,0.206l-0.097-0.218l-0.131-0.121
			c-0.369-0.086-0.729,0.021-1.021,0.105c-0.289,0.085-0.563,0.166-0.802-0.004c-0.112-0.081-0.177-0.194-0.215-0.314
			c-0.988,0.177-1.897,0.072-2.923-0.088c-1.003-0.156-2.139-0.332-3.566-0.216l-0.406,0.033l0.063-0.402
			c0.016-0.092,0.006-0.15-0.01-0.166c-0.096-0.102-0.565-0.053-0.791-0.029l-0.561,0.018l-1.879-0.54
			c-0.531-0.041-1.048,0.095-1.39,0.184l-0.513,0.086c-0.163,0.002-0.276-0.13-0.336-0.202c-0.059-0.068-0.064-0.076-0.144-0.069
			c-1.428,0.144-1.853,0.525-2.225,0.971l-0.093,0.111l-0.035-0.019l-0.771,0.021c0,0-0.111-0.006-0.223-0.011
			c0.02,0.03,0.061,0.035,0.076,0.067c0.045,0.094,0.068,0.194,0.068,0.293c0,0.095-0.021,0.19-0.063,0.28
			c-0.095,0.225-0.325,0.219-0.526,0.194c0.002,0.087,0.005,0.287,0.005,0.287c-0.211,0.843-0.922,1.86-1.303,2.406
			c0,0-0.021,0.028-0.039,0.055c0.019,0.167,0.034,0.333,0.034,0.481c0,0.496-0.086,0.899-0.169,1.292c0,0-0.153,0.931-0.156,0.947
			c0.179-0.146,0.37-0.302,0.37-0.302l-0.087,0.785c-0.006,0.039-0.008,0.072-0.008,0.103c0,0.173,0.102,0.228,0.582,0.31
			c0,0,0.102,0.019,0.179,0.033c0.214-0.088,0.597-0.246,0.597-0.246s0.262-0.1,0.426-0.163c-0.125-0.541-0.22-1.083-0.22-1.602
			c0-1.503,0.513-2.841,1.45-3.606c0.849-0.355,1.199-0.067,1.398,0.203c0.057-0.129,0.145-0.25,0.293-0.313
			c0.123-0.053,0.324-0.08,0.584,0.09c0.018,0.012,0.65,0.791,0.65,0.791l0.557,0.841l-0.555,0.042
			c-0.396,0.016-0.553,0.5-0.702,1.082l-0.092,0.328c-0.001,0.001-0.144,0.32-0.144,0.32c-0.102,0.199-0.163,0.319-0.115,0.61
			l0.07,0.432l-0.434-0.063c-0.159-0.023-0.179,0.005-0.288,0.167c0,0-0.083,0.089-0.166,0.178
			c-0.007,0.109-0.022,0.325-0.022,0.325c-0.035,0.651-0.12,1.481-0.845,1.692c-0.003,0.013-0.011,0.026-0.011,0.04
			c0,0.099,0.06,0.206,0.164,0.37c0.088,0.136,0.191,0.298,0.191,0.48c0,0.054-0.009,0.11-0.03,0.167
			c-0.098,0.259-0.39,0.342-0.486,0.37c0,0-0.165,0.047-0.256,0.073c-0.161,0.716-0.232,1.406-0.255,2.108l-0.072,1.339
			c-0.069,0.386-0.309,0.559-0.531,0.683c0.004,0.082,0.014,0.165,0.014,0.245c0,0.846-0.264,1.562-0.518,2.258
			c-0.24,0.652-0.47,1.277-0.47,1.987c0,0.298,0.041,0.61,0.138,0.945l0.123,0.423l-0.439-0.013
			c-0.199-0.006-0.324,0.079-0.461,0.157l0.001,0.015l-0.223,0.765l-0.086,0.189c-0.003,0.012-0.1,0.555-0.1,0.555l-0.188,0.845
			c-0.011,0.022-0.445,0.291-0.445,0.291s-0.047,0.016-0.093,0.033c-0.007,0.061-0.015,0.126-0.015,0.126l0.063,0.806l-0.059,0.596
			l-0.284-0.037c0,0-0.196,0-0.391,0c0.049,0.159,0.101,0.33,0.101,0.33l-0.244,0.838c-0.13,0.272-0.254,0.531-0.254,0.911
			l0.03,0.411l-0.48,0.5l-0.374,0.359c0.076-0.043,0.306,0.387,0.306,0.387l0.107,0.199l-0.143-0.043l-0.178,0.193l-0.371,0.359
			c0,0.004-0.507,1.25-0.507,1.25c-0.02,0.291-0.262,0.43-0.438,0.519c0.031,0.057,0.088,0.103,0.088,0.167
			c0,0.088-0.035,0.377-0.491,0.401c-0.084,0.184-0.235,0.384-0.476,0.481c0.004,0.045,0.019,0.104,0.019,0.145
			c0,0.572-0.351,0.75-0.745,0.846l-0.242,0.085c0,0.001-0.203,0.317-0.203,0.317l-0.32,0.479c-0.638,0.581-1.274,0.497-1.889,0.416
			l-0.959-0.071l-0.11-0.185c-0.194-0.476-0.571-0.693-1.008-0.946l-0.818-0.574c-0.182-0.139-0.132-0.398-0.1-0.57h0.001
			c0-0.008-0.491-0.301-0.491-0.301l0,0c0-0.004-0.199-0.672-0.199-0.672s-0.097-0.459-0.097-0.463
			c-0.004,0.005-0.139-0.162-0.139-0.162l-0.424-0.719l0.004-0.735l0.003-0.594c-0.001,0.002-0.183-0.234-0.183-0.234
			c-0.166-0.188-0.4-0.454-0.4-0.782c0-0.086,0.015-0.175,0.052-0.269c0,0-0.017-1.105-0.02-1.354
			c-0.193-0.142-0.473-0.346-0.473-0.346c-0.188-0.19-0.29-0.223-0.526-0.128c-0.021,0.306-0.038,0.607-0.038,0.89
			c0,0.836,0.08,1.593,0.163,2.382c0,0,0.118,2.303,0.142,2.755c0.191,0.03,0.538,0.106,0.556,0.518
			c-0.008,0.063-0.012,0.126-0.012,0.185c0,0.592,0.372,0.947,0.764,1.32c0.349,0.334,0.76,0.727,0.76,1.262
			c0,0.007-0.008,0.018-0.008,0.025c0.053-0.029,0.111-0.025,0.171-0.063l0.603-0.394l-0.11,0.711
			c-0.011,0.068-0.016,0.127-0.016,0.182c0,0.336,0.202,0.432,0.624,0.596c0.325,0.128,0.693,0.356,0.88,0.778
			c0.723,0.073,1.331,0.257,1.909,0.446c0,0,0.855,0.241,1.084,0.307c0.664-0.687,1.478-1.338,2.477-1.98c0-0.237,0-1.164,0-1.164
			l0.376-0.07l0.361-0.1c0.133-0.091,0.319-0.188,0.581-0.205c0.013-0.267,0.116-0.449,0.208-0.586l0.14-0.49l0.095-0.191
			l0.474-0.302c0,0,0.274-0.226,0.422-0.348c0-0.007-0.008-0.01-0.008-0.017c0-0.17,0.049-0.333,0.066-0.385
			c0.103-0.314,0.319-0.486,0.571-0.566c0.008-0.154,0.022-0.448,0.022-0.448c-0.001-0.081-0.002-0.163-0.002-0.247
			c0-0.438,0.037-0.888,0.308-1.175c0.111-0.139,0.292-0.124,0.5-0.099c0.03-0.252,0.087-0.726,0.087-0.726l0.153-1.221
			c0.002,0.005,0.274-0.419,0.274-0.419l0.266-0.385c0.15-0.6,0.362-0.91,0.793-1.148c-0.006-0.082-0.017-0.169-0.017-0.245
			c0-0.437,0.091-0.78,0.179-1.115c0.082-0.307,0.159-0.603,0.159-0.972c0-0.139-0.011-0.288-0.037-0.453l-0.065-0.422
			c0,0,0.613,0.083,0.616,0.083c-0.001-0.001-0.003-0.004-0.003-0.011c0-0.051,0.045-0.264,0.045-0.264l0.306-0.721
			c0,0,0.116-0.024,0.224-0.047c0.046-0.283,0.128-0.78,0.128-0.78c0.074-0.287,0.146-0.562,0.146-0.909
			c0-0.138-0.012-0.287-0.039-0.453l-0.068-0.412c0,0,0.647,0.067,0.657,0.067c-0.035-0.004-0.056-0.384-0.056-0.384l0.036-0.817
			c0.091-0.198,0.306-0.233,0.461-0.259c0,0,0.042-0.01,0.083-0.019c-0.011-0.044-0.032-0.126-0.032-0.126v-1.754l0.087-0.092
			c0.433-0.462,0.498-0.956,0.568-1.479c0.069-0.524,0.203-1.102,0.685-1.616c-0.074-0.253-0.137-0.489-0.137-0.649
			c0-0.297,0.117-0.466,0.314-0.632l0.145-0.163c-0.003,0.007-0.025-0.346-0.025-0.346l0.01-0.703
			c-0.001,0.003,0.268-0.395,0.268-0.395l0.266-0.39c0.157-0.63,0.368-0.948,0.844-1.188c0.007-0.024,0.017-0.048,0.017-0.073
			c0-0.108-0.06-0.218-0.143-0.357c-0.063-0.105-0.142-0.237-0.142-0.38c0-0.065,0.018-0.134,0.06-0.203
			c0.093-0.15,0.274-0.174,0.466-0.187c0.04-1.163,0.204-2,0.563-2.583l0.106-0.174l1.163,0.134c1.271,0.134,2.565,0.29,3.406,0.957
			c0.585-0.231,1.18-0.083,1.712,0.094l0.716,0.197c0.001,0,2.342,0.267,2.342,0.267c1.321,0.123,2.569,0.239,3.666,0.555
			l0.42,0.121l-0.2,0.275l-0.39,0.589c0,0-0.056,0.059-0.079,0.083c0.014,0.001,0.024,0.019,0.044,0.038
			c0.409,0.153,0.452,0.095,0.571-0.186c0.076-0.18,0.255-0.421,0.555-0.549c-0.02-0.074-0.037-0.148-0.037-0.148
			c-0.041-0.082-0.097-0.193-0.097-0.319c0-0.053,0.01-0.108,0.034-0.165c0.084-0.198,0.286-0.259,0.353-0.279l0.219-0.067
			l0.134,0.186c0.239,0.33,0.77,0.445,1.332,0.568l1.771,0.593l-0.418,0.333c-0.554,0.577-0.63,1.73-0.703,2.846
			c-0.051,0.761-0.102,1.548-0.309,2.185c-0.095,0.238-0.305,0.249-0.537,0.231c0.004,0.208,0.007,0.467,0.007,0.467
			c0.017,0.164,0.035,0.344,0.035,0.522c0,0.337-0.119,0.617-0.393,0.773c0.057,0.116,0.081,0.243,0.088,0.32l0.008,0.084
			l-0.034,0.077c-0.51,1.143-0.553,2.312-0.553,3.451c0,0.116,0.002,0.575,0.002,0.687c0,0.83-0.025,1.617-0.25,2.338l-0.365,0.583
			c-0.149,0.171-0.225,0.265-0.225,0.387c0,0.051,0.014,0.107,0.04,0.175l0.026,0.066c0,0-0.008,0.118-0.008,0.14
			c0,0.25,0.099,0.391,0.23,0.581l0.403,0.802l-0.168,0.095c-0.314,0.357-0.431,0.737-0.431,1.15c0,0.501,0.171,1.053,0.363,1.676
			c0.211,0.681,0.445,1.439,0.445,2.232c0,0.006-0.001,0.01-0.001,0.016c0.676-0.139,1.038,0.143,1.308,0.422
			c0.184,0.19,0.375,0.34,0.663,0.424c-0.071-0.076-0.145-0.167-0.145-0.289c0-0.046,0.009-0.095,0.028-0.145
			c0.09-0.224,0.339-0.287,0.434-0.311l0.271-0.07l0.13,0.328l0.174,0.006l-0.001-0.002c0-0.01,0.242-0.188,0.242-0.188
			c0.179-0.184,0.446-0.434,0.975-0.384c0.052-0.132,0.06-0.313,0.178-0.37c0.086-0.043,0.228-0.011,0.377,0.027
			c0.008-0.025,0.204-0.605,0.204-0.605c0,0.002,0.464-0.325,0.464-0.325s0.16-0.122,0.318-0.245
			c-0.139-0.148-0.23-0.313-0.29-0.443l-0.206-0.453c0,0,0.871,0,1.191,0c-0.009-0.034-0.307-1.217-0.307-1.217l0.451,0.134
			c0.152,0.011,0.216-0.046,0.357-0.213l0.528-0.324c0,0,0.075,0.04,0.101,0.054c-0.026-0.237-0.061-0.464-0.186-0.64l-0.331-0.463
			l0.628-0.043c-0.001-0.002-0.469-0.695-0.469-0.695l0.779,0.163c0.275,0.067,0.399,0.035,0.426,0.009
			c0.027-0.026,0.063-0.154-0.001-0.441l-0.21-0.942c0,0,0.777,0.67,0.793,0.684c0.086-0.162,0.244-0.287,0.494-0.351
			c0-0.313,0-0.87,0-1.138c-0.269-0.15-0.575-0.229-0.994-0.175l-0.388,0.05l0.027-0.39c0.008-0.11-0.011-0.169-0.03-0.187
			c-0.007-0.007-0.083-0.05-0.307-0.029c-0.076,0.087-0.172,0.197-0.172,0.197c-0.764,0.865-1.484,1.683-1.85,2.849l-0.041,0.13
			l-0.244,0.094l-0.168,0.083c0,0-0.197,0.049-0.392,0.099c-0.06,0.46-0.263,0.779-0.457,1.017
			c-0.199,0.245-0.354,0.436-0.354,0.795c0,0.098,0.012,0.208,0.036,0.336l0.061,0.3l-0.298,0.074
			c-0.359,0.088-0.596,0.299-0.867,0.544l-1.025,0.765l-0.11-0.418c-0.346-0.888-0.446-1.817-0.446-2.754
			c0-0.647,0.048-1.297,0.095-1.938l0.059-0.868l-0.119-0.573l-0.151-0.774c0,0.008,0.214-0.517,0.214-0.517
			c0.063-0.086,0.158-0.53,0.158-0.53s0.384-1.24,0.438-1.419c-0.029-0.224-0.048-0.438-0.048-0.634c0-0.773,0.2-1.339,0.367-1.815
			l0.229-0.815l-0.015-0.722l0.019-0.931c0.067-0.337,0.323-0.478,0.477-0.561c0.048-0.063,0.067-0.123,0.067-0.184
			c0-0.101-0.053-0.204-0.122-0.331l-0.253-0.872l0.196,0.152l0.463-0.084l0.021,0c0.045-0.335,0.165-1.238,0.165-1.238l0.07-0.676
			l0.075-0.377c0.118-0.579,0.203-0.996,0.203-1.586c0-0.124-0.004-0.256-0.012-0.399l-0.031-0.554l0.495,0.251
			c0.385,0.195,0.799,0,1.277-0.227l0.975-0.347l1.034,0.142c0,0,0.32,0.063,0.494,0.098c0.127-0.123,0.27-0.213,0.324-0.229
			c0.023-0.006,0.394-0.016,0.394-0.016l0.2,0.004c0.013-0.001,10.311-1.057,10.542-1.081c0.421-0.412,1.042-0.567,1.679-0.675
			c0.881-0.15,1.405-0.312,1.542-0.857c-0.321-0.286-0.528-0.658-0.528-1.179c0-0.173,0.018-0.359,0.054-0.558l0.047-0.264
			c0,0,0.526,0,0.762,0c0-0.338,0-0.827,0-1.207c-0.052,0.008-0.132,0.02-0.132,0.02c-0.397,0.066-0.685,0.115-0.855-0.132
			c-0.053-0.075-0.074-0.155-0.074-0.241c0-0.079,0.08-0.192,0.113-0.281C60.569,16.169,60.137,16.481,59.656,16.843L59.656,16.843z
			"/>
		<path fill="#EC2227" d="M314.103,27.155c0.151-0.145,0.296-0.244,0.433-0.306c-0.092-0.096-0.183-0.211-0.196-0.26l-0.021-0.071
			c0,0,0.004-0.017,0.007-0.034C314.229,26.625,314.108,26.96,314.103,27.155L314.103,27.155z M311.942,2.816
			c-0.008,0.03-0.018,0.062-0.018,0.062c-0.089,0.306-0.146,0.468-0.202,0.609c0.02,0.03,0.185,0.288,0.185,0.288l0.407,0.794
			l-0.068,0.037c-0.063,0.262-0.297,0.267-0.556,0.25c0,0.217-0.001,0.539-0.001,0.539s0.015,0.558,0.02,0.7
			c0.057,0.023,0.117,0.048,0.117,0.048l0.016,0.252c0,0.084-0.108,0.426-0.26,0.721c0.107,0.093,0.166,0.199,0.166,0.296v0.103
			L311.653,7.7c-0.137,0.19-0.365,0.167-0.558,0.139c-0.011,0.152-0.053,0.282-0.139,0.385c0.017,0.073,0.08,0.145,0.08,0.217
			c0,0.183-0.043,0.359-0.08,0.509l-0.061,0.423c0,0.003,0.094,0.146,0.094,0.146l0.178,0.483l-0.29,0.48
			c0,0-0.258,0.368-0.263,0.378c0.017,0,0.064,0.305,0.064,0.305c0.032,0.123,0.072,0.274,0.072,0.428
			c0,0.181-0.063,0.362-0.248,0.506c0.003,0.043,0.037,0.088,0.037,0.131c0,0.479-0.205,0.942-0.393,1.369
			c-0.188,0.425-0.327,0.76-0.327,1.056c0,0.271,0.116,0.507,0.416,0.747l0.326,0.263l-0.34,0.246
			c-0.335,0.243-0.529,0.528-0.562,0.826c-0.004,0.031-0.005,0.062-0.005,0.092c0,0.257,0.116,0.519,0.349,0.78l0.471,0.533
			c0,0-0.849,0-0.988,0c-0.175,0.811-0.275,1.622-0.275,2.126c0,0.199,0.015,0.352,0.042,0.438c0.14,0.463,0.186,0.81,0.186,1.102
			c0,0.275-0.041,0.502-0.083,0.737c0,0-0.027,0.315-0.054,0.597l0.01-0.003c0.115-0.057,0.288-0.143,0.48-0.062
			c0.194,0.083,0.257,0.279,0.276,0.344l0.083,0.262l-0.367,0.154l-0.169,0.083c0,0-0.174,0.043-0.347,0.087c0,0.28,0,1,0,1.372
			c0.016,0,0.057,0.002,0.057,0.002c0.356-0.002,0.896-0.004,1.02,0.5l0.093,0.379l-0.783,0.033c0,0-0.087,0.007-0.168,0.014
			c0.008,0.007,0.038,0.037,0.038,0.037c0.337,0.309,0.731,0.672,0.731,1.212c0,0.042-0.037,0.1-0.042,0.144
			c0.007-0.001,0.542-0.122,0.542-0.122l-0.01,0.601c0,0-0.006,0.024-0.007,0.027c0.064-0.033,0.132-0.028,0.207-0.077l0.532-0.346
			c0,0-0.041,0.674-0.041,0.692c0,0.22,0.084,0.36,0.217,0.556c0,0,0.05,0.073,0.091,0.13c0.02,0,0.024,0,0.044,0
			c-0.012-0.065-0.06-0.161-0.06-0.217c0-0.323,0.187-0.508,0.431-0.705l0.773-0.723l0.133,0.587c0,0,0.013,0.068,0.023,0.137
			c0.041-0.17,0.084-0.349,0.084-0.349c0.063-0.093,0.099-0.161,0.105-0.259c-0.191-0.022-0.386-0.076-0.547-0.22
			c-0.206-0.183-0.324-0.421-0.324-0.643c0-0.055,0.008-0.109,0.023-0.162c0.065-0.226,0.26-0.381,0.534-0.427l0.309-0.051
			c0,0,0.066,0.353,0.066,0.356c0.205-0.284,0.438-0.596,0.778-0.58l0.635,0.031l-0.012,0.014c0.086-0.042,0.177-0.089,0.248-0.113
			c0,0,0.079-0.035,0.149-0.066c0-0.213,0-0.692,0-1.071c-0.013,0.003-0.048,0.011-0.048,0.011c-0.115,0.058-0.29,0.145-0.482,0.06
			c-0.196-0.087-0.254-0.292-0.272-0.359l-0.054-0.192c0,0,0.355-0.313,0.359-0.316c-0.019,0.036-0.442-0.25-0.442-0.25l-0.977-0.84
			l0.419-0.102c0.321-0.236,0.505-0.621,0.605-1.105c-0.343-0.115-0.498-0.427-0.549-0.613l-0.084-0.229l0.45-0.455
			c0.07,0.074,0.121,0.098,0.136,0.096c0.028-0.004,0.112-0.085,0.227-0.245c-0.029-0.021-0.079-0.013-0.105-0.04
			c-0.146-0.151-0.188-0.35-0.188-0.561c0-0.163,0.024-0.333,0.051-0.495c0,0,0.004-0.062,0.007-0.091
			c-0.336,0.191-0.715,0.236-0.88,0.247l-0.196,0.014l-0.145-0.333l-0.063-0.104l-0.205-0.376l0.545-0.287
			c0.214,0.218,0.295,0.181,0.65-0.031c0.187-0.111,0.422-0.217,0.688-0.278c-0.013-0.323-0.037-0.946-0.037-0.946
			c-0.018-0.267-0.032-0.506-0.032-0.739c0-0.416,0.083-0.838,0.255-1.333c-0.121-0.018-0.246-0.036-0.246-0.036
			c-0.167,0.028-0.48,0.083-0.704-0.329l-0.104-0.196l0.246-0.245l0.227-0.259c0.126-0.193,0.348-0.418,0.703-0.512
			c0.021-0.236,0.076-0.841,0.076-0.841c0.002-0.417,0.004-0.812,0.203-1.222c0.002-0.004,0.389-0.36,0.428-0.395
			c-0.104-0.172-0.168-0.359-0.178-0.505c-0.041-0.001-1.186-0.036-1.186-0.036l0.439-0.494l0.279-0.436
			c0.163-0.304,0.418-0.69,0.998-0.589c0-0.419,0-0.925,0-1.335c-0.187,0.003-0.366-0.049-0.52-0.165
			c-0.221-0.167-0.352-0.436-0.352-0.696c0-0.059,0.007-0.117,0.02-0.174c0.064-0.26,0.277-0.435,0.557-0.491
			c-0.093-0.136-0.193-0.265-0.193-0.454c0-0.095,0.087-0.247,0.124-0.366c-0.206-0.047-0.449-0.144-0.449-0.509v-0.32
			c0,0,0.694,0,1.015,0c-0.053-0.192-0.107-0.393-0.107-0.393c-0.015-0.212-0.037-0.503-0.119-0.573c0,0-0.029-0.004-0.047-0.006
			c-0.067,0.104-0.181,0.279-0.181,0.279c-0.161,0.315-0.4,0.792-1.055,0.792h-0.192l-0.09-0.17
			c-0.07-0.129-0.097-0.248-0.098-0.357c-0.055-0.007-0.108-0.011-0.157-0.033c-0.116-0.053-0.313-0.196-0.325-0.564l-0.011-0.32
			l0.32-0.011c0.316-0.01,0.496-0.131,0.617-0.317c-0.179,0.118-0.415,0.263-0.74,0.114c-0.174-0.069-0.221-0.224-0.221-0.407
			c0-0.108,0.016-0.226,0.032-0.342c0,0,0.004-0.048,0.009-0.085c-0.153,0.009-0.408,0.023-0.408,0.023l-0.725,0.014
			c-0.029-0.005-0.035-0.035-0.059-0.047C312.555,2.213,312.187,2.618,311.942,2.816L311.942,2.816z"/>
		<path fill="#EC2227" d="M55.706,37.302c0-0.692,0.317-1.385,0.626-2.062l0.314-0.719c0-0.002,0.255-1.022,0.255-1.022l0.709-2.482
			l0.367,0.407c0.433,0.41,0.646,1.056,0.646,1.971c0,0.047-0.002,0.094-0.003,0.142c0.028,0.079,0.069,0.16,0.069,0.232
			c0,0.077-0.017,0.149-0.049,0.218c-0.096,0.201-0.283,0.269-0.454,0.311c0.081,0.168,0.163,0.343,0.163,0.343l-0.097,0.68
			c-0.083,0.466-0.21,1.168-0.21,1.802c0,0.449,0.063,0.863,0.25,1.135l0.283,0.413l-0.494,0.084
			c-0.361,0.062-0.434,0.441-0.468,1.326c-0.03,0.813-0.074,1.926-1.211,1.934l-0.368,0.003l0.048-0.364
			c0.098-0.75-0.111-1.066-0.376-1.467c-0.349-0.528-0.744-1.127-0.434-2.627l0.091-0.437c0,0,0.339,0.212,0.349,0.218
			C55.713,37.328,55.706,37.315,55.706,37.302L55.706,37.302z M58.088,28.016l-0.563,0.162c-0.004,0-0.856,0.032-0.856,0.032
			c-0.466-0.005-0.905,0.025-1.348,0.188c-0.054,0.869-0.53,1.385-1.325,1.558c-0.016,0.248-0.067,1.016-0.067,1.016
			c-0.043,0.84-0.086,1.377-0.458,2.339c0.01,0.061,0.097,0.646,0.097,0.646c0.04,0.183,0.082,0.374,0.082,0.565
			c0,0.332-0.128,0.662-0.616,0.941L52.6,35.709c0,0-0.027-0.31-0.037-0.43c-0.113,0.1-0.252,0.159-0.415,0.205
			c0.021,0.153,0.056,0.316,0.056,0.456c0,0.646-0.194,1.154-0.371,1.616l-0.267,0.917c0,0.003,0.096,0.414,0.096,0.414l0.177,0.63
			c0,0.008-0.224,0.727-0.224,0.727c-0.089,0.167-0.132,0.261-0.132,0.341c0,0.045,0.014,0.086,0.041,0.133l-0.111-0.113
			c0.492,0.295,0.74,0.776,0.74,1.429c0,0.061-0.013,0.13-0.018,0.194c0.723,0.072,0.985-0.274,1.29-0.716L54,41.768l-0.306,0.773
			c-0.155,0.312-0.296,0.594-0.296,1.013c0,0.138,0.021,0.294,0.056,0.467c0.155,0.191,0.528,0.65,0.528,0.65
			s0.096,0.146,0.164,0.251c0.442,0.071,0.64-0.062,0.892-0.259l0.626-0.421l0.126,0.187l0.423,0.438
			c0.287,0.338,0.495,0.581,0.998,0.576c0.381,0.057,0.587-0.23,0.823-0.609l0.439-0.462c0.208-0.052,0.351,0.058,0.481,0.152
			c0.001-0.005,0.008-0.024,0.008-0.024c0.082-0.29,0.194-0.689,0.516-0.903c0.152-0.093,0.304-0.052,0.453,0
			c-0.072-0.114-0.083-0.223-0.083-0.272v-0.001c0-0.231,0.164-0.441,0.401-0.511c0.055-0.016,0.116-0.018,0.18-0.017
			c0.003-0.121,0.005-0.265,0.005-0.265c-0.001-0.099-0.002-0.199-0.002-0.297c0-0.657,0.046-1.296,0.449-1.668
			c0.156-0.145,0.385-0.183,0.616-0.217c-0.018-0.352-0.032-0.701-0.032-1.036c0-1.132,0.086-2.177,0.169-3.195
			c0.083-1.008,0.168-2.042,0.168-3.155c0-0.332-0.008-0.671-0.025-1.018l-0.017-0.346l0.347,0.01
			c0.184,0.005,0.304-0.077,0.436-0.148c-0.031-0.127-0.091-0.266-0.091-0.379c0-0.236,0.052-0.445,0.099-0.629l0.051-0.612
			c-0.002,0.003-0.246-0.248-0.246-0.248c-0.253-0.219-0.643-0.556-0.643-1.107c0-0.01,0.005-0.023,0.005-0.033
			c-0.329,0.005-0.795,0.013-0.795,0.013l-1.346-0.024l-0.652-0.36l-0.367-0.173C58.558,27.91,58.088,28.016,58.088,28.016
			L58.088,28.016z"/>
		<path fill="#EC2227" d="M73.772,48.051c0.203,0.375,0.39,0.506,0.46,0.502c0.02-0.002,0.059-0.037,0.098-0.078
			c-0.253-0.028-0.503-0.128-0.576-0.459C73.76,48.027,73.772,48.051,73.772,48.051L73.772,48.051z M71.074,32.946
			c-0.283-0.342-0.393-0.686-0.393-1.02c0-0.703,0.484-1.357,0.843-1.843l0.41-0.597l0.155-0.045
			c1.025-0.142,1.612,0.174,2.13,0.453l0.399,0.211v0.259l0.009,0.792l-0.01,1.112c-0.001,0.003-0.436,0.514-0.436,0.514
			s-0.125,0.107-0.144,0.124c0.005,0.002,0.008,0.016,0.008,0.04c0,0.076-0.018,0.223-0.018,0.223l-0.292,0.813
			c0,0-0.241,0.048-0.474,0.094c-0.028,1.234-0.724,1.822-1.35,2.336c-0.526,0.433-0.98,0.807-1.09,1.533l-0.057,0.375l-0.36-0.118
			c-0.519-0.171-0.635-0.484-0.635-0.759c0-0.142,0.031-0.271,0.053-0.368l0.034-0.226l-0.362-0.234l0.26-0.319
			c0.808-0.684,1.075-1.963,1.321-3.343L71.074,32.946L71.074,32.946z M70.3,27.778c0.001,0.025,0.006,0.055,0.006,0.079
			c0,0.869-0.601,1.169-1.012,1.375c-0.103,0.031-0.871-0.139-0.871-0.139s-0.065-0.02-0.12-0.036
			c-0.16,0.679-0.388,1.377-1.023,1.704c-0.047,1.007-0.227,1.724-0.591,2.181l-0.276,0.348c0,0-0.316-0.494-0.33-0.516
			c-0.103,0.679-0.154,1.413-0.154,2.195c0,0.379,0.005,0.763,0.012,1.143l0.005,1.917l-0.085,0.083
			c-0.351,0.384-0.536,0.833-0.648,1.321c0.162-0.107,0.334-0.22,0.334-0.22c0.488-0.046,0.928-0.057,1.097,0.257
			c0.031,0.06,0.04,0.119,0.045,0.178c0.118-0.032,0.281-0.032,0.355-0.097l0.667-0.576l-0.141,0.87
			c-0.01,0.058-0.015,0.106-0.015,0.148c0,0.202,0.126,0.262,0.585,0.36c0.332,0.071,0.736,0.21,0.941,0.582
			c0.118-0.005,0.243-0.037,0.354-0.033c0,0,0.646-0.053,0.689-0.057c0-0.001,0-0.001,0-0.001c0-0.024,0.084-0.122,0.084-0.122
			l0.477-0.419l0.639,0.002c0,0,0.171,0.009,0.285,0.014c0.014-0.205,0.044-0.394,0.203-0.506c0.066-0.047,0.21-0.118,0.419-0.053
			c0.229-0.033,0.408,0.094,0.597,0.192c0.006-0.209,0.139-0.502,0.365-0.673c0.108-0.084,0.344-0.181,0.65-0.116
			c-0.014-0.09-0.057-0.181-0.057-0.269c0-0.376,0.148-0.731,0.633-1.006l0.324-0.183c0,0,0.065,0.171,0.105,0.277
			c0.133-0.202,0.295-0.427,0.567-0.405l0.282,0.022l0.013,0.283c0.093,2.064-0.31,3.457-0.735,4.933l-0.662,2.607l-0.131,0.082
			c-0.486,0.254-0.852,0.602-1.277,1.028l-0.098,0.097l-0.138-0.003c-0.414-0.01-0.706,0.056-0.869,0.194l-0.431,0.369l-0.094-0.561
			c-0.041-0.252-0.2-0.396-0.401-0.579c0,0-0.128-0.132-0.232-0.241c-0.703-0.021-1.183,0.092-1.52,0.289
			c0.06,0.15,0.088,0.32,0.088,0.486c0,0.021-0.002,0.037-0.002,0.057c0.309,0.122,0.528,0.34,0.646,0.516l0.146,0.191
			c0.272,0.017,0.438,0.159,0.483,0.418c-0.006-0.023-0.048-0.097-0.124-0.129c0.991,0.48,1.739,0.398,2.773,0.284l0.539-0.059
			c0,0,0.021,0.04,0.041,0.076c-0.005-0.044-0.029-0.284-0.029-0.284l1.034-0.127c0.245-0.059,0.467-0.038,0.789,0.046
			c0.171-0.286,0.529-0.884,0.529-0.884c0.483-0.711,0.942-1.386,0.942-2.528c0-0.089-0.003-0.182-0.009-0.277l-0.008-0.122
			l0.141-0.158l0.476-0.608c0,0,0.108-0.166,0.188-0.286c-0.118-0.278-0.22-0.556-0.22-0.834c0-0.499,0.148-0.99,0.285-1.446
			l0.225-0.938l-0.14-0.571l-0.133-0.497c0.001,0.011,0.154-0.328,0.154-0.328c0.082-0.102,0.138-0.178,0.138-0.295
			c0-0.025-0.005-0.055-0.01-0.086c-0.079-0.113-0.162-0.248-0.263-0.523c-0.028-0.012-0.291-0.637-0.291-0.637
			c0.003,0,0.163-0.922,0.163-0.922s0.108-0.461,0.108-0.462l-0.126-0.637l-0.146-0.7c0,0.006,0.16-0.72,0.16-0.72l0.111-0.388
			c0,0.004-0.067-0.124-0.067-0.124l-0.199-0.73c0.004,0.001,0.191-0.316,0.191-0.316l0.075-0.18l-0.066-0.578
			c-0.036-0.213-0.074-0.44-0.074-0.677c0-0.071,0.041-0.148,0.049-0.22l-1.206,0.305l0.221-0.521
			c0.019-0.079,0.027-0.143,0.027-0.196c0-0.159-0.079-0.228-0.221-0.35c-0.186-0.159-0.441-0.38-0.441-0.834
			c0-0.075,0.033-0.179,0.049-0.268c-0.288-0.142-0.775-0.383-0.775-0.383c-0.601-0.356-1.119-0.664-2.091-0.563l-0.288,0.03
			l-0.122-0.593l0.002-0.025C72.116,26.952,71.26,27.367,70.3,27.778L70.3,27.778z"/>
		<g>
			<path fill="#EC2227" d="M109.006,30.719c-0.013-0.184-0.038-0.566-0.043-0.625c-0.095,0.204-0.164,0.448-0.164,0.713
				c0,0.029,0.002,0.059,0.003,0.089C108.836,30.814,108.94,30.781,109.006,30.719z"/>
			<path fill="#EC2227" d="M118.607,31.421c-0.104-0.167-0.15-0.368-0.15-0.563c0-0.005,0-0.009,0-0.014
				c-0.197-0.045-0.386-0.128-0.43-0.336c-0.004-0.02-0.009-0.047-0.009-0.078c0-0.053,0.024-0.121,0.063-0.188
				c-0.129-0.155-0.299-0.359-0.299-0.359c-0.326-0.28-0.716-0.617-0.716-1.32c0-0.045,0.014-0.104,0.017-0.152
				c-0.045-0.005-0.115-0.013-0.115-0.013c-1.37-0.158-2.454-0.284-3.797,0.042c-0.18,0.088-0.332,0.307-0.51,0.561l-1.341,1.326
				l0.1-0.848c0.016-0.862,0.579-1.216,1.031-1.502c0.168-0.105,0.28-0.232,0.409-0.353c-0.192-0.071-0.403,0.016-0.839,0.345
				c-0.451,0.343-1.006,0.763-1.749,0.759c-0.131,0.171-0.208,0.438-0.274,0.718c-0.086,0.361-0.189,0.724-0.425,0.999
				c0.01-0.002,0.046-0.011,0.046-0.011v2.355c0,0-1.078,0-1.418,0c-0.113,0.343-0.191,0.691-0.191,1.048
				c0,0.536,0.096,1.081,0.189,1.616c0.092,0.523,0.186,1.057,0.186,1.575c0,0.329-0.039,0.652-0.137,0.962l-0.043,0.136
				l-0.223,0.128l-0.027,0.012c-0.001,0.108-0.302,0.688-0.302,0.688s-0.122,0.014-0.233,0.026c-0.334,2.092-0.467,4.25-0.467,6.439
				c0,3.031,0.234,6.116,0.464,9.141c0,0,0.021,0.271,0.027,0.348c0.304,0.281,0.446,0.744,0.513,1.191c0,0,0.008,0.032,0.008,0.039
				c0.053-0.076,0.515-0.744,0.515-0.744l0.055,0.951l0.018,0.434h1.507c-0.008-0.325-0.024-0.643-0.024-0.978
				c0-0.395,0.01-0.799,0.025-1.208c-0.481-0.343-0.563-1.021-0.563-1.71c0-0.11,0.004-0.552,0.004-0.661
				c0-0.461-0.024-0.895-0.188-1.119l-0.18-0.244l0.234-0.191c0.293-0.24,0.636-0.785,0.698-1.411
				c0.004-0.066,0.008-0.13,0.008-0.192c0-0.557-0.188-1.008-0.388-1.482l-0.143-0.349l-0.021-3.488l0.035-0.03l0.342-0.404
				l0.17-0.319c0.1-0.603,0.118-1.311,0.118-2.031c0-0.245-0.009-1.236-0.009-1.481c0-1.166,0.073-2.211,0.429-2.958l-0.007,0
				l0.019-0.702c0.012-0.713,0.069-1.618,0.778-1.916c-0.015-0.113-0.04-0.234-0.04-0.335c0-0.643,0.274-1.064,0.506-1.418
				c0.171-0.26,0.293-0.447,0.293-0.674c0-0.137-0.045-0.288-0.151-0.479l-0.188-0.336l0.436-0.139l0.768-0.259
				c0.355-0.174,0.762-0.355,1.386-0.317c0-0.226,0-0.759,0-0.759l0.299-0.021c0.636-0.045,0.964,0.25,1.228,0.486
				c0.214,0.192,0.37,0.331,0.689,0.327l0.257-0.003l0.058,0.251c0.117,0.501,0.175,1,0.175,1.479c0,1.055-0.276,2.02-0.804,2.728
				c-0.572,0.768-1.447,1.201-2.508,1.303c-0.762,0.805-1.366,1.083-2.533,0.896c0.049,0.206,0.095,0.411,0.095,0.569
				c0,0.176-0.021,0.328-0.038,0.465c-0.016,0.112-0.029,0.21-0.029,0.308c0,0.169,0.04,0.336,0.181,0.567
				c0.045,0.039,0.079,0.045,0.407-0.057c0.27-0.083,0.636-0.178,1.102-0.112c0.33-0.458,0.876-0.867,1.439-0.99
				c0.338-0.075,0.631,0.018,0.917,0.125c0.135-0.398,0.32-0.742,0.521-1.054l0.81-1.302c0,0,0.003,0.658,0.004,0.921
				c0.037-0.075,0.086-0.172,0.086-0.172c0.079-0.109,0.241-0.135,0.396-0.168c0.051-0.567,0.28-0.962,0.51-1.292
				c0,0,0.188-0.304,0.253-0.41c-0.097-0.308-0.169-0.604-0.169-0.859C117.746,32.399,118.156,31.875,118.607,31.421z"/>
		</g>
	</g>
	<text transform="matrix(1 0 0 1 4.542 81.4316)" opacity="0.7" fill="#333333" font-family="'Helvetica-Light'" font-size="18">Cобери деньги для детей</text>
</g>
</svg>
