<?xml version="1.0" encoding="utf-8"?>
<!-- Generator: Adobe Illustrator 16.0.0, SVG Export Plug-In . SVG Version: 6.00 Build 0)  -->
<!DOCTYPE svg PUBLIC "-//W3C//DTD SVG 1.1//EN" "http://www.w3.org/Graphics/SVG/1.1/DTD/svg11.dtd">
<svg version="1.1" id="Слой_1" xmlns="http://www.w3.org/2000/svg" xmlns:xlink="http://www.w3.org/1999/xlink" x="0px" y="0px"
	 width="250px" height="100px" viewBox="0 0 250 100" enable-background="new 0 0 250 100" xml:space="preserve">
<g>
	<circle fill="#FF671B" cx="22.596" cy="78.404" r="20.596"/>
	<g>
		<g>
			<path fill="#FFFFFF" d="M22.597,78.781c3.329,0,6.036-2.707,6.036-6.035c0-3.329-2.707-6.037-6.036-6.037
				c-3.33,0-6.037,2.708-6.037,6.037C16.56,76.074,19.267,78.781,22.597,78.781z M22.597,70.247c1.378,0,2.499,1.12,2.499,2.499
				c0,1.377-1.121,2.499-2.499,2.499s-2.5-1.122-2.5-2.499C20.097,71.367,21.219,70.247,22.597,70.247z"/>
			<path fill="#FFFFFF" d="M25.038,83.706c1.229-0.28,2.415-0.767,3.506-1.452c0.826-0.521,1.075-1.612,0.555-2.438
				c-0.52-0.828-1.611-1.077-2.438-0.557c-2.474,1.556-5.657,1.555-8.128,0c-0.828-0.521-1.919-0.271-2.438,0.557
				c-0.521,0.827-0.272,1.918,0.554,2.438c1.092,0.686,2.276,1.172,3.506,1.452l-3.375,3.375c-0.69,0.69-0.69,1.811,0,2.501
				c0.346,0.346,0.799,0.518,1.251,0.518s0.905-0.172,1.251-0.518l3.315-3.316l3.317,3.316c0.69,0.691,1.81,0.691,2.501,0
				c0.691-0.69,0.691-1.811,0-2.501L25.038,83.706z"/>
		</g>
	</g>
</g>
<g>
	<circle fill="#456C93" cx="76.727" cy="78.404" r="20.596"/>
	<path fill-rule="evenodd" clip-rule="evenodd" fill="#FFFFFF" d="M76.698,87.203h1.588c0,0,0.479-0.403,0.726-0.667
		c0.225-0.243,0.218-0.873,0.218-0.873s-0.031-2.218,0.958-2.532c0.975-0.31,2.227,2.016,3.554,2.926
		c1.003,0.689,1.766,0.518,1.766,0.518l3.548-0.061c0,0,1.856-0.121,0.977-1.58c-0.072-0.119-0.513-1.082-2.639-3.055
		c-2.225-2.065-1.927-1.732,0.754-5.305c1.632-2.175,2.284-3.504,2.08-4.072c-0.194-0.542-1.395-0.399-1.395-0.399l-3.995,0.024
		c0,0-0.296-0.04-0.516,0.092c-0.215,0.128-0.353,0.428-0.353,0.428s-0.633,1.684-1.476,3.115c-1.778,3.021-2.49,3.18-2.781,2.992
		c-0.677-0.438-0.507-1.756-0.507-2.693c0-2.927,0.443-4.147-0.865-4.463c-0.434-0.105-0.754-0.175-1.864-0.186
		c-1.426-0.016-2.632,0.004-3.315,0.339c-0.454,0.222-0.805,0.718-0.591,0.747c0.264,0.035,0.861,0.161,1.179,0.592
		c0.409,0.558,0.395,1.809,0.395,1.809s0.236,3.445-0.549,3.873c-0.539,0.295-1.277-0.305-2.863-3.046
		c-0.813-1.403-1.426-2.955-1.426-2.955s-0.118-0.29-0.329-0.445c-0.256-0.188-0.614-0.247-0.614-0.247l-3.796,0.024
		c0,0-0.57,0.016-0.779,0.264c-0.187,0.221-0.015,0.677-0.015,0.677s2.972,7.303,6.337,10.808
		C73.195,87.063,76.698,87.203,76.698,87.203L76.698,87.203z"/>
</g>
<g>
	<circle fill="#3B5995" cx="127.918" cy="78.404" r="20.596"/>
	<path id="Blue_3_" fill="#FFFFFF" d="M125.116,90.325V79.883h-3.48v-4.641h3.48V72.14c0-3.597,1.934-5.555,5.143-5.555
		c1.536,0,2.979,0.114,2.979,0.165v5.012h-1.407c-1.744,0-2.073-0.422-2.073,0.795v2.686h4.152l-0.542,4.641h-3.61v10.442H125.116z"
		/>
</g>
<g>
	<circle fill="#5CA7DC" cx="178.111" cy="78.404" r="20.596"/>
	<path fill="#FFFFFF" d="M173.938,88.127c-2.606,0-5.032-0.764-7.074-2.073c0.361,0.042,0.729,0.063,1.101,0.063
		c2.162,0,4.152-0.737,5.731-1.975c-2.02-0.037-3.724-1.371-4.311-3.205c0.281,0.055,0.57,0.083,0.868,0.083
		c0.421,0,0.448-0.056,0.836-0.162c-2.111-0.424-4.082-2.288-4.082-4.524c0-0.02,0-0.039,0-0.059
		c1.16,0.346,1.714,0.554,2.471,0.578c-1.238-0.828-1.863-2.24-1.863-3.842c0-0.846,0.322-1.639,0.72-2.32
		c2.276,2.793,5.724,4.63,9.56,4.822c-0.079-0.338-0.096-0.689-0.096-1.052c0-2.548,2.078-4.614,4.626-4.614
		c1.327,0,2.532,0.561,3.374,1.457c1.052-0.207,2.042-0.591,2.934-1.12c-0.345,1.077-1.074,1.982-2.027,2.554
		c0.934-0.111,1.823-0.359,2.651-0.727c-0.619,0.925-1.401,1.738-2.303,2.389c0.009,0.197,0.014,0.396,0.014,0.597
		C187.067,81.096,182.426,88.127,173.938,88.127"/>
</g>
<g>
	<g>
		<circle fill="#184889" cx="228.404" cy="78.404" r="20.596"/>
	</g>
	<path fill-rule="evenodd" clip-rule="evenodd" fill="#FFFFFF" d="M227.831,71.201c1.962,0,3.807,0.867,5.162,2.225v0.006
		c0-0.652,0.438-1.144,1.048-1.144l0.154-0.001c0.952,0,1.147,0.902,1.147,1.188l0.005,10.137c-0.066,0.664,0.686,1.006,1.103,0.581
		c1.628-1.673,3.575-8.6-1.013-12.613c-4.274-3.741-10.011-3.125-13.062-1.022c-3.242,2.236-5.317,7.187-3.302,11.836
		c2.197,5.072,8.484,6.584,12.222,5.076c1.893-0.765,2.767,1.793,0.802,2.629c-2.971,1.266-11.235,1.139-15.097-5.55
		c-2.608-4.517-2.47-12.463,4.449-16.58c5.293-3.149,12.271-2.276,16.479,2.117c4.398,4.594,4.142,13.196-0.148,16.542
		c-1.944,1.52-4.831,0.04-4.813-2.174l-0.02-0.725c-1.354,1.344-3.155,2.127-5.117,2.127c-3.877,0-7.289-3.412-7.289-7.287
		C220.542,74.652,223.954,71.201,227.831,71.201L227.831,71.201L227.831,71.201L227.831,71.201z M232.711,78.287
		c-0.146-2.839-2.254-4.547-4.799-4.547h-0.096c-2.937,0-4.565,2.311-4.565,4.934c0,2.938,1.971,4.793,4.554,4.793
		c2.881,0,4.775-2.11,4.912-4.606L232.711,78.287z"/>
</g>
<g>
	<circle fill="#E5E5E5" cx="22.596" cy="21.596" r="20.596"/>
	<g>
		<g>
			<path fill="#FFFFFF" d="M22.597,21.973c3.329,0,6.036-2.707,6.036-6.035c0-3.329-2.707-6.037-6.036-6.037
				c-3.33,0-6.037,2.708-6.037,6.037C16.56,19.266,19.267,21.973,22.597,21.973z M22.597,13.438c1.378,0,2.499,1.12,2.499,2.499
				c0,1.377-1.121,2.499-2.499,2.499s-2.5-1.122-2.5-2.499C20.097,14.559,21.219,13.438,22.597,13.438z"/>
			<path fill="#FFFFFF" d="M25.038,26.897c1.229-0.28,2.415-0.767,3.506-1.452c0.826-0.521,1.075-1.612,0.555-2.438
				c-0.52-0.828-1.611-1.077-2.438-0.557c-2.474,1.556-5.657,1.555-8.128,0c-0.828-0.521-1.919-0.271-2.438,0.557
				c-0.521,0.827-0.272,1.918,0.554,2.438c1.092,0.686,2.276,1.172,3.506,1.452l-3.375,3.375c-0.69,0.69-0.69,1.811,0,2.501
				c0.346,0.346,0.799,0.518,1.251,0.518s0.905-0.172,1.251-0.518l3.315-3.316l3.317,3.316c0.69,0.691,1.81,0.691,2.501,0
				c0.691-0.69,0.691-1.811,0-2.501L25.038,26.897z"/>
		</g>
	</g>
</g>
<g>
	<circle fill="#E6E6E5" cx="76.727" cy="21.596" r="20.596"/>
	<path fill-rule="evenodd" clip-rule="evenodd" fill="#FFFFFF" d="M76.698,30.395h1.588c0,0,0.479-0.403,0.726-0.667
		c0.225-0.243,0.218-0.873,0.218-0.873s-0.031-2.218,0.958-2.532c0.975-0.31,2.227,2.016,3.554,2.926
		c1.003,0.689,1.766,0.518,1.766,0.518l3.548-0.061c0,0,1.856-0.121,0.977-1.58c-0.072-0.119-0.513-1.082-2.639-3.055
		c-2.225-2.065-1.927-1.732,0.754-5.305c1.632-2.175,2.284-3.504,2.08-4.072c-0.194-0.542-1.395-0.399-1.395-0.399l-3.995,0.024
		c0,0-0.296-0.04-0.516,0.092c-0.215,0.128-0.353,0.428-0.353,0.428s-0.633,1.684-1.476,3.115c-1.778,3.021-2.49,3.18-2.781,2.992
		c-0.677-0.438-0.507-1.756-0.507-2.693c0-2.927,0.443-4.147-0.865-4.463c-0.434-0.105-0.754-0.175-1.864-0.186
		c-1.426-0.016-2.632,0.004-3.315,0.339c-0.454,0.222-0.805,0.718-0.591,0.747c0.264,0.035,0.861,0.161,1.179,0.592
		c0.409,0.558,0.395,1.809,0.395,1.809s0.236,3.445-0.549,3.873c-0.539,0.295-1.277-0.305-2.863-3.046
		c-0.813-1.403-1.426-2.955-1.426-2.955s-0.118-0.29-0.329-0.445c-0.256-0.188-0.614-0.247-0.614-0.247l-3.796,0.024
		c0,0-0.57,0.016-0.779,0.264c-0.187,0.221-0.015,0.677-0.015,0.677s2.972,7.303,6.337,10.808
		C73.195,30.255,76.698,30.395,76.698,30.395L76.698,30.395z"/>
</g>
<g>
	<circle fill="#E6E6E5" cx="127.918" cy="21.596" r="20.596"/>
	<path id="Blue_1_" fill="#FFFFFF" d="M125.116,33.517V23.074h-3.48v-4.641h3.48v-3.103c0-3.597,1.934-5.555,5.143-5.555
		c1.536,0,2.979,0.114,2.979,0.165v5.012h-1.407c-1.744,0-2.073-0.422-2.073,0.795v2.686h4.152l-0.542,4.641h-3.61v10.442H125.116z"
		/>
</g>
<g>
	<circle fill="#E5E5E5" cx="178.111" cy="21.596" r="20.596"/>
	<path fill="#FFFFFF" d="M173.938,31.318c-2.606,0-5.032-0.764-7.074-2.073c0.361,0.042,0.729,0.063,1.101,0.063
		c2.162,0,4.152-0.737,5.731-1.975c-2.02-0.037-3.724-1.371-4.311-3.205c0.281,0.055,0.57,0.083,0.868,0.083
		c0.421,0,0.448-0.056,0.836-0.162c-2.111-0.424-4.082-2.288-4.082-4.524c0-0.02,0-0.039,0-0.059
		c1.16,0.346,1.714,0.554,2.471,0.578c-1.238-0.828-1.863-2.24-1.863-3.842c0-0.846,0.322-1.639,0.72-2.32
		c2.276,2.793,5.724,4.63,9.56,4.822c-0.079-0.338-0.096-0.689-0.096-1.052c0-2.548,2.078-4.614,4.626-4.614
		c1.327,0,2.532,0.561,3.374,1.457c1.052-0.207,2.042-0.591,2.934-1.12c-0.345,1.077-1.074,1.982-2.027,2.554
		c0.934-0.111,1.823-0.359,2.651-0.727c-0.619,0.925-1.401,1.738-2.303,2.389c0.009,0.197,0.014,0.396,0.014,0.597
		C187.067,24.287,182.426,31.318,173.938,31.318"/>
</g>
<g>
	<g>
		<circle fill="#E6E6E5" cx="228.404" cy="21.596" r="20.596"/>
	</g>
	<path fill-rule="evenodd" clip-rule="evenodd" fill="#FFFFFF" d="M227.831,14.393c1.962,0,3.807,0.867,5.162,2.225v0.006
		c0-0.652,0.438-1.144,1.048-1.144l0.154-0.001c0.952,0,1.147,0.902,1.147,1.188l0.005,10.137c-0.066,0.664,0.686,1.006,1.103,0.581
		c1.628-1.673,3.575-8.6-1.013-12.613c-4.274-3.741-10.011-3.125-13.062-1.022c-3.242,2.236-5.317,7.187-3.302,11.836
		c2.197,5.072,8.484,6.584,12.222,5.076c1.893-0.765,2.767,1.793,0.802,2.629c-2.971,1.266-11.235,1.139-15.097-5.55
		c-2.608-4.517-2.47-12.463,4.449-16.58c5.293-3.149,12.271-2.276,16.479,2.117c4.398,4.594,4.142,13.196-0.148,16.542
		c-1.944,1.52-4.831,0.04-4.813-2.174l-0.02-0.725c-1.354,1.344-3.155,2.127-5.117,2.127c-3.877,0-7.289-3.412-7.289-7.287
		C220.542,17.844,223.954,14.393,227.831,14.393L227.831,14.393L227.831,14.393L227.831,14.393z M232.711,21.479
		c-0.146-2.839-2.254-4.547-4.799-4.547h-0.096c-2.937,0-4.565,2.311-4.565,4.934c0,2.938,1.971,4.793,4.554,4.793
		c2.881,0,4.775-2.11,4.912-4.606L232.711,21.479z"/>
</g>
</svg>
