<?xml version="1.0" encoding="utf-8"?>
<!-- Generator: Adobe Illustrator 16.0.0, SVG Export Plug-In . SVG Version: 6.00 Build 0)  -->
<!DOCTYPE svg PUBLIC "-//W3C//DTD SVG 1.1//EN" "http://www.w3.org/Graphics/SVG/1.1/DTD/svg11.dtd">
<svg version="1.1" id="Слой_1" xmlns="http://www.w3.org/2000/svg" xmlns:xlink="http://www.w3.org/1999/xlink" x="0px" y="0px"
	 width="200px" height="200px" viewBox="0 0 200 200" enable-background="new 0 0 200 200" xml:space="preserve">
<g>
	
		<circle fill="none" stroke="#FFFFFF" stroke-width="2" stroke-linecap="round" stroke-miterlimit="10" cx="12.683" cy="10.535" r="7.212"/>
	
		<line fill="none" stroke="#FFFFFF" stroke-width="2" stroke-linecap="round" stroke-miterlimit="10" x1="17.887" y1="15.625" x2="22.846" y2="20.584"/>
</g>
<circle fill="none" stroke="#FFFFFF" stroke-width="2" stroke-miterlimit="10" cx="59.084" cy="28.158" r="23.506"/>
<path fill="#FFFFFF" d="M52.171,18.099v20.119c0,0.787,0.88,1.254,1.532,0.813l14.86-10.06c0.576-0.389,0.576-1.236,0-1.626
	l-14.86-10.06C53.051,16.844,52.171,17.311,52.171,18.099z"/>
<g>
	<g>
		<path fill="#CDCCCC" d="M136.43,35.395h11.826c0.944,0,1.711,0.766,1.711,1.711l0,0c0,0.944-0.767,1.711-1.711,1.711H136.43
			v13.017c0,0.945-0.766,1.711-1.711,1.711h-0.273c-0.945,0-1.711-0.766-1.711-1.711V38.817h-11.551
			c-0.945,0-1.711-0.767-1.711-1.711l0,0c0-0.945,0.766-1.711,1.711-1.711h11.551V22.868c0-0.945,0.766-1.711,1.711-1.711h0.273
			c0.945,0,1.711,0.766,1.711,1.711V35.395z"/>
	</g>
</g>
<circle fill="none" stroke="#CDCCCC" stroke-miterlimit="10" cx="134.721" cy="37.351" r="32.374"/>
<g>
	<path fill="#FFFFFF" d="M15.305,103.234c-0.186,0-0.368-0.072-0.504-0.209c-0.184-0.185-0.253-0.455-0.18-0.705l1.685-5.738
		c0.11-0.378,0.508-0.594,0.884-0.482c0.379,0.109,0.596,0.506,0.484,0.884l-1.317,4.487l4.487-1.317
		c0.375-0.11,0.773,0.105,0.885,0.483c0.11,0.379-0.105,0.773-0.484,0.885l-5.738,1.685
		C15.439,103.225,15.372,103.234,15.305,103.234z"/>
	<path fill="#FFFFFF" d="M15.895,99.777l-0.629,2.143c-0.054,0.182-0.004,0.378,0.129,0.512c0.1,0.098,0.232,0.151,0.366,0.151
		c0.049,0,0.099-0.007,0.146-0.021l2.143-0.629L15.895,99.777z"/>
	<g>
		<polygon fill="#FFFFFF" points="17.438,97.328 19.461,98.338 20.448,100.338 28.549,92.246 25.539,89.236 		"/>
		<polygon fill="#FFFFFF" points="28.549,92.246 20.448,100.338 21.488,101.379 29.621,93.319 		"/>
		<polygon fill="#FFFFFF" points="25.539,89.236 24.58,88.278 16.449,96.338 17.438,97.328 		"/>
	</g>
	<polygon fill="#FFFFFF" points="30.35,92.518 25.31,87.477 26.462,86.396 31.503,91.437 	"/>
	<path fill="#FFFFFF" d="M32.101,90.558l-4.831-4.831l0.741-0.75c0.66-0.66,1.735-0.654,2.402,0.013l2.416,2.415
		c0.667,0.667,0.673,1.743,0.013,2.403L32.101,90.558z"/>
</g>
<circle fill="none" stroke="#FFFFFF" stroke-miterlimit="10" cx="23.962" cy="93.86" r="17.038"/>
<line fill="none" stroke="#CCCCCC" stroke-miterlimit="10" x1="5.972" y1="122.672" x2="21.503" y2="138.203"/>
<line fill="none" stroke="#CCCCCC" stroke-miterlimit="10" x1="21.503" y1="122.672" x2="5.972" y2="138.203"/>
<g>
	
		<circle fill="none" stroke="#FFFFFF" stroke-width="2" stroke-linecap="round" stroke-miterlimit="10" cx="8.592" cy="157.225" r="3.599"/>
	
		<line fill="none" stroke="#FFFFFF" stroke-width="2" stroke-linecap="round" stroke-miterlimit="10" x1="12.191" y1="157.213" x2="20.866" y2="157.213"/>
	
		<line fill="none" stroke="#FFFFFF" stroke-width="2" stroke-linecap="round" stroke-miterlimit="10" x1="18.871" y1="157.225" x2="18.871" y2="160.824"/>
	
		<line fill="none" stroke="#FFFFFF" stroke-width="2" stroke-linecap="round" stroke-miterlimit="10" x1="15.309" y1="157.225" x2="15.309" y2="159.684"/>
	<path fill="none" stroke="#FFFFFF" stroke-width="2" stroke-linecap="round" stroke-miterlimit="10" d="M11.663,165.062
		c1.452,0.954,3.189,1.512,5.058,1.512c5.096,0,9.227-4.132,9.227-9.228s-4.131-9.227-9.227-9.227c-1.87,0-3.604,0.564-5.058,1.521"
		/>
</g>
</svg>
