<?xml version="1.0" encoding="utf-8"?>
<!-- Generator: Adobe Illustrator 16.0.0, SVG Export Plug-In . SVG Version: 6.00 Build 0)  -->
<!DOCTYPE svg PUBLIC "-//W3C//DTD SVG 1.1//EN" "http://www.w3.org/Graphics/SVG/1.1/DTD/svg11.dtd">
<svg version="1.1" id="Слой_1" xmlns="http://www.w3.org/2000/svg" xmlns:xlink="http://www.w3.org/1999/xlink" x="0px" y="0px"
	 width="200px" height="200px" viewBox="0 0 200 200" enable-background="new 0 0 200 200" xml:space="preserve">
<g>
	
		<ellipse fill="none" stroke="#FFFFFF" stroke-width="2" stroke-linecap="round" stroke-miterlimit="10" cx="12.2" cy="8.5" rx="7.5" ry="7.5"/>
	
		<line fill="none" stroke="#FFFFFF" stroke-width="2" stroke-linecap="round" stroke-miterlimit="10" x1="17.6" y1="13.8" x2="22.7" y2="19"/>
</g>
<g opacity="0.8">
	
		<ellipse fill="none" stroke="#FFFFFF" stroke-width="2" stroke-linecap="round" stroke-miterlimit="10" cx="12.2" cy="37.5" rx="7.5" ry="7.5"/>
	
		<line fill="none" stroke="#FFFFFF" stroke-width="2" stroke-linecap="round" stroke-miterlimit="10" x1="17.6" y1="42.8" x2="22.7" y2="48"/>
</g>
<circle fill="none" stroke="#FFFFFF" stroke-width="2" stroke-miterlimit="10" cx="57.8" cy="27.2" r="23.5"/>
<path fill="#FFFFFF" d="M50.9,17.1V37.2c0,0.8,0.9,1.3,1.5,0.8l14.9-10.1c0.6-0.4,0.6-1.2,0-1.601L52.4,16.2
	C51.8,15.8,50.9,16.3,50.9,17.1z"/>
<g>
	<g>
		<path fill="#CECCCC" d="M135.101,34.4h11.8c0.899,0,1.7,0.8,1.7,1.699l0,0c0,0.9-0.801,1.7-1.7,1.7h-11.8v13
			c0,0.9-0.801,1.7-1.7,1.7h-0.3c-0.9,0-1.7-0.8-1.7-1.7v-13H119.8c-0.899,0-1.699-0.8-1.699-1.7l0,0c0-0.899,0.8-1.699,1.699-1.699
			H131.4V21.9c0-0.9,0.8-1.7,1.7-1.7h0.3c0.899,0,1.7,0.8,1.7,1.7V34.4z"/>
	</g>
</g>
<circle fill="none" stroke="#CECCCC" stroke-miterlimit="10" cx="133.4" cy="36.4" r="32.4"/>
<g>
	<path fill="#FFFFFF" d="M14,102.2c-0.2,0-0.4-0.101-0.5-0.2c-0.2-0.2-0.3-0.5-0.2-0.7l1.7-5.7c0.1-0.399,0.5-0.6,0.9-0.5
		c0.4,0.101,0.6,0.5,0.5,0.9l-1.3,4.5l4.5-1.3c0.4-0.101,0.8,0.1,0.9,0.5c0.1,0.399-0.1,0.8-0.5,0.899l-5.7,1.7
		C14.1,102.2,14.1,102.2,14,102.2z"/>
	<path fill="#FFFFFF" d="M14.6,98.8L14,100.9c-0.1,0.199,0,0.399,0.1,0.5c0.1,0.1,0.2,0.199,0.4,0.199h0.1l2.1-0.6L14.6,98.8z"/>
	<g>
		<polygon fill="#FFFFFF" points="16.1,96.3 18.2,97.3 19.1,99.3 27.2,91.2 24.2,88.2 		"/>
		<polygon fill="#FFFFFF" points="27.2,91.2 19.1,99.3 20.2,100.4 28.3,92.3 		"/>
		<polygon fill="#FFFFFF" points="24.2,88.2 23.3,87.3 15.1,95.3 16.1,96.3 		"/>
	</g>
	<polygon fill="#FFFFFF" points="29.1,91.5 24,86.5 25.2,85.4 30.2,90.4 	"/>
	<path fill="#FFFFFF" d="M30.8,89.6L26,84.8l0.7-0.8c0.7-0.7,1.7-0.7,2.4,0l2.4,2.4c0.7,0.699,0.7,1.699,0,2.399L30.8,89.6z"/>
</g>
<circle fill="none" stroke="#FFFFFF" stroke-miterlimit="10" cx="22.7" cy="92.9" r="17"/>
<line fill="none" stroke="#CDCCCC" stroke-miterlimit="10" x1="4.7" y1="121.7" x2="20.2" y2="137.2"/>
<line fill="none" stroke="#CDCCCC" stroke-miterlimit="10" x1="20.2" y1="121.7" x2="4.7" y2="137.2"/>
<g>
	
		<circle fill="none" stroke="#FFFFFF" stroke-width="2" stroke-linecap="round" stroke-miterlimit="10" cx="7.5" cy="155.9" r="3.5"/>
	
		<line fill="none" stroke="#FFFFFF" stroke-width="2" stroke-linecap="round" stroke-miterlimit="10" x1="11.2" y1="155.9" x2="19.2" y2="155.9"/>
	
		<line fill="none" stroke="#FFFFFF" stroke-width="2" stroke-linecap="round" stroke-miterlimit="10" x1="17.5" y1="155.9" x2="17.5" y2="159.4"/>
	
		<line fill="none" stroke="#FFFFFF" stroke-width="2" stroke-linecap="round" stroke-miterlimit="10" x1="14" y1="155.9" x2="14" y2="158.3"/>
	<path fill="none" stroke="#FFFFFF" stroke-width="2" stroke-linecap="round" stroke-miterlimit="10" d="M10,163.5
		c1.4,0.9,3.1,1.5,4.9,1.5c5,0,9-4,9-9s-4-9-9-9c-1.8,0-3.5,0.6-4.9,1.5"/>
</g>
<g opacity="0.8">
	
		<circle fill="none" stroke="#FFFFFF" stroke-width="2" stroke-linecap="round" stroke-miterlimit="10" cx="7.5" cy="185.9" r="3.5"/>
	
		<line fill="none" stroke="#FFFFFF" stroke-width="2" stroke-linecap="round" stroke-miterlimit="10" x1="11.2" y1="185.9" x2="19.2" y2="185.9"/>
	
		<line fill="none" stroke="#FFFFFF" stroke-width="2" stroke-linecap="round" stroke-miterlimit="10" x1="17.5" y1="185.9" x2="17.5" y2="189.4"/>
	
		<line fill="none" stroke="#FFFFFF" stroke-width="2" stroke-linecap="round" stroke-miterlimit="10" x1="14" y1="185.9" x2="14" y2="188.3"/>
	<path fill="none" stroke="#FFFFFF" stroke-width="2" stroke-linecap="round" stroke-miterlimit="10" d="M10,193.5
		c1.4,0.9,3.1,1.5,4.9,1.5c5,0,9-4,9-9s-4-9-9-9c-1.8,0-3.5,0.6-4.9,1.5"/>
</g>
<g opacity="0.6">
	
		<polyline fill="none" stroke="#FFFFFF" stroke-width="2" stroke-linecap="round" stroke-linejoin="round" stroke-miterlimit="10" points="
		199,102.041 199,84.801 178.133,84.801 178.133,102.041 	"/>
	
		<line fill="none" stroke="#FFFFFF" stroke-width="2" stroke-linecap="round" stroke-linejoin="round" stroke-miterlimit="10" x1="188.566" y1="102.041" x2="188.566" y2="89.434"/>
	<path fill="none" stroke="#FFFFFF" stroke-width="2" stroke-linecap="round" stroke-linejoin="round" stroke-miterlimit="10" d="
		M184.263,95.294l4.304-5.861l4.304,5.861"/>
</g>
<g>
	
		<line fill="none" stroke="#FFFFFF" stroke-width="2" stroke-linecap="round" stroke-linejoin="round" stroke-miterlimit="10" x1="188.88" y1="111.896" x2="198.521" y2="121.537"/>
	
		<line fill="none" stroke="#FFFFFF" stroke-width="2" stroke-linecap="round" stroke-linejoin="round" stroke-miterlimit="10" x1="188.88" y1="121.537" x2="198.521" y2="111.896"/>
</g>
<path fill="#5061AC" d="M191.24,147.398l-6.36,4.118l-0.587-7.554l7.322-14.806c0,0,0.855-1.73,4.329-0.013s2.617,3.448,2.617,3.448
	L191.24,147.398z"/>
<path fill="#FFFFFF" d="M188.049,148.186L188.049,148.186c-0.497-0.858-1.461-1.335-2.445-1.209l0,0l-0.281-2.668l0,0
	c2.018-0.245,3.988,0.729,5.019,2.48l0,0L188.049,148.186z"/>
<path fill="#FFFFFF" d="M192.372,130.053l-6.429,13.001c0.761-0.041,1.504,0.088,2.189,0.366l6.767-13.684
	C194.046,129.352,192.851,129.086,192.372,130.053z"/>
<circle fill="none" stroke="#5061AC" stroke-miterlimit="10" cx="187.457" cy="177.334" r="10.667"/>
<path fill="none" stroke="#5061AC" stroke-miterlimit="10" d="M187.457,172.313c-2.772,0-5.256,1.982-6.972,5.115
	c1.716,3.133,4.199,5.115,6.972,5.115s5.256-1.982,6.973-5.115C192.713,174.295,190.229,172.313,187.457,172.313z"/>
<circle fill="#5061AC" cx="187.457" cy="177.428" r="3.756"/>
<line fill="none" stroke="#5061AC" stroke-miterlimit="10" x1="187.457" y1="172.313" x2="187.457" y2="168.951"/>
<line fill="none" stroke="#5061AC" stroke-miterlimit="10" x1="190.317" y1="172.897" x2="192.107" y2="170.053"/>
<line fill="none" stroke="#5061AC" stroke-miterlimit="10" x1="192.746" y1="174.853" x2="195.139" y2="172.491"/>
<line fill="none" stroke="#5061AC" stroke-miterlimit="10" x1="184.627" y1="172.897" x2="182.837" y2="170.053"/>
<line fill="none" stroke="#5061AC" stroke-miterlimit="10" x1="182.198" y1="174.853" x2="179.807" y2="172.491"/>
<g>
	<circle fill="none" stroke="#5061AC" stroke-miterlimit="10" cx="156.457" cy="177.334" r="10.667"/>
	<g>
		<path fill="none" stroke="#5061AC" stroke-miterlimit="10" d="M151.163,174.82c-0.616,0.695-1.18,1.509-1.679,2.419
			c1.717,3.133,4.2,5.115,6.973,5.115s5.256-1.982,6.973-5.115c-0.499-0.91-1.063-1.724-1.679-2.419"/>
		<line fill="none" stroke="#5061AC" stroke-miterlimit="10" x1="156.457" y1="182.354" x2="156.457" y2="185.716"/>
		<line fill="none" stroke="#5061AC" stroke-miterlimit="10" x1="153.597" y1="181.77" x2="151.807" y2="184.613"/>
		<line fill="none" stroke="#5061AC" stroke-miterlimit="10" x1="151.168" y1="179.814" x2="148.776" y2="182.176"/>
		<line fill="none" stroke="#5061AC" stroke-miterlimit="10" x1="159.287" y1="181.77" x2="161.077" y2="184.613"/>
		<line fill="none" stroke="#5061AC" stroke-miterlimit="10" x1="161.716" y1="179.814" x2="164.107" y2="182.176"/>
	</g>
</g>
</svg>
