<?xml version="1.0" encoding="utf-8"?>
<!-- Generator: Adobe Illustrator 16.0.0, SVG Export Plug-In . SVG Version: 6.00 Build 0)  -->
<!DOCTYPE svg PUBLIC "-//W3C//DTD SVG 1.1//EN" "http://www.w3.org/Graphics/SVG/1.1/DTD/svg11.dtd">
<svg version="1.1" id="Слой_1" xmlns="http://www.w3.org/2000/svg" xmlns:xlink="http://www.w3.org/1999/xlink" x="0px" y="0px"
	 width="200px" height="200px" viewBox="0 0 200 200" enable-background="new 0 0 200 200" xml:space="preserve">
<g>
	
		<circle fill="none" stroke="#FFFFFF" stroke-width="2" stroke-linecap="round" stroke-miterlimit="10" cx="12.683" cy="10.535" r="7.212"/>
	
		<line fill="none" stroke="#FFFFFF" stroke-width="2" stroke-linecap="round" stroke-miterlimit="10" x1="17.887" y1="15.625" x2="22.846" y2="20.584"/>
</g>
<circle fill="none" stroke="#FFFFFF" stroke-width="2" stroke-miterlimit="10" cx="59.084" cy="28.158" r="23.506"/>
<path fill="#FFFFFF" d="M52.171,18.099v20.119c0,0.787,0.88,1.254,1.532,0.813l14.86-10.06c0.576-0.389,0.576-1.236,0-1.626
	l-14.86-10.06C53.051,16.844,52.171,17.311,52.171,18.099z"/>
<g>
	<g>
		<path fill="#CDCCCC" d="M136.43,35.395h11.826c0.944,0,1.711,0.766,1.711,1.711l0,0c0,0.944-0.767,1.711-1.711,1.711H136.43
			v13.017c0,0.945-0.766,1.711-1.711,1.711h-0.274c-0.945,0-1.711-0.766-1.711-1.711V38.817h-11.55
			c-0.945,0-1.711-0.767-1.711-1.711l0,0c0-0.945,0.766-1.711,1.711-1.711h11.55V22.868c0-0.945,0.766-1.711,1.711-1.711h0.274
			c0.945,0,1.711,0.766,1.711,1.711V35.395z"/>
	</g>
</g>
<circle fill="none" stroke="#CDCCCC" stroke-miterlimit="10" cx="134.72" cy="37.351" r="32.374"/>
</svg>
