<?xml version="1.0" encoding="utf-8"?>
<!-- Generator: Adobe Illustrator 19.1.0, SVG Export Plug-In . SVG Version: 6.00 Build 0)  -->
<svg version="1.1" id="Слой_1" xmlns="http://www.w3.org/2000/svg" xmlns:xlink="http://www.w3.org/1999/xlink" x="0px" y="0px"
	 viewBox="-411 285 200 200" style="enable-background:new -411 285 200 200;" xml:space="preserve">
<style type="text/css">
	.st0{fill:none;stroke:#FFFFFF;stroke-width:2;stroke-linecap:round;stroke-miterlimit:10;}
	.st1{opacity:0.8;}
	.st2{fill:none;stroke:#FFFFFF;stroke-width:2;stroke-miterlimit:10;}
	.st3{fill:#FFFFFF;}
	.st4{fill:#CDCCCC;}
	.st5{fill:none;stroke:#CDCCCC;stroke-miterlimit:10;}
	.st6{fill:none;stroke:#FFFFFF;stroke-miterlimit:10;}
	.st7{fill:none;stroke:#CCCCCC;stroke-miterlimit:10;}
</style>
<g>
	<ellipse class="st0" cx="-397.5" cy="294.5" rx="7.5" ry="7.5"/>
	<line class="st0" x1="-392.1" y1="299.8" x2="-387" y2="305"/>
</g>
<g class="st1">
	<ellipse class="st0" cx="-397.5" cy="323.5" rx="7.5" ry="7.5"/>
	<line class="st0" x1="-392.1" y1="328.8" x2="-387" y2="334"/>
</g>
<circle class="st2" cx="-351.9" cy="313.2" r="23.5"/>
<path class="st3" d="M-358.8,303.1v20.1c0,0.8,0.9,1.3,1.5,0.8l14.9-10.1c0.6-0.4,0.6-1.2,0-1.6l-14.9-10.1
	C-357.9,301.8-358.8,302.3-358.8,303.1z"/>
<g>
	<g>
		<path class="st4" d="M-274.6,320.4h11.8c0.9,0,1.7,0.8,1.7,1.7l0,0c0,0.9-0.8,1.7-1.7,1.7h-11.8v13c0,0.9-0.8,1.7-1.7,1.7h-0.3
			c-0.9,0-1.7-0.8-1.7-1.7v-13h-11.6c-0.9,0-1.7-0.8-1.7-1.7l0,0c0-0.9,0.8-1.7,1.7-1.7h11.6v-12.5c0-0.9,0.8-1.7,1.7-1.7h0.3
			c0.9,0,1.7,0.8,1.7,1.7V320.4z"/>
	</g>
</g>
<circle class="st5" cx="-276.3" cy="322.4" r="32.4"/>
<g>
	<path class="st3" d="M-395.7,388.2c-0.2,0-0.4-0.1-0.5-0.2c-0.2-0.2-0.3-0.5-0.2-0.7l1.7-5.7c0.1-0.4,0.5-0.6,0.9-0.5
		c0.4,0.1,0.6,0.5,0.5,0.9l-1.3,4.5l4.5-1.3c0.4-0.1,0.8,0.1,0.9,0.5c0.1,0.4-0.1,0.8-0.5,0.9l-5.7,1.7
		C-395.6,388.2-395.6,388.2-395.7,388.2z"/>
	<path class="st3" d="M-395.1,384.8l-0.6,2.1c-0.1,0.2,0,0.4,0.1,0.5c0.1,0.1,0.2,0.2,0.4,0.2c0,0,0.1,0,0.1,0l2.1-0.6L-395.1,384.8
		z"/>
	<g>
		<polygon class="st3" points="-393.6,382.3 -391.5,383.3 -390.6,385.3 -382.5,377.2 -385.5,374.2 		"/>
		<polygon class="st3" points="-382.5,377.2 -390.6,385.3 -389.5,386.4 -381.4,378.3 		"/>
		<polygon class="st3" points="-385.5,374.2 -386.4,373.3 -394.6,381.3 -393.6,382.3 		"/>
	</g>
	<polygon class="st3" points="-380.6,377.5 -385.7,372.5 -384.5,371.4 -379.5,376.4 	"/>
	<path class="st3" d="M-378.9,375.6l-4.8-4.8l0.7-0.8c0.7-0.7,1.7-0.7,2.4,0l2.4,2.4c0.7,0.7,0.7,1.7,0,2.4L-378.9,375.6z"/>
</g>
<circle class="st6" cx="-387" cy="378.9" r="17"/>
<line class="st7" x1="-405" y1="407.7" x2="-389.5" y2="423.2"/>
<line class="st7" x1="-389.5" y1="407.7" x2="-405" y2="423.2"/>
<g>
	<circle class="st0" cx="-402.2" cy="441.9" r="3.5"/>
	<line class="st0" x1="-398.5" y1="441.9" x2="-390.5" y2="441.9"/>
	<line class="st0" x1="-392.2" y1="441.9" x2="-392.2" y2="445.4"/>
	<line class="st0" x1="-395.7" y1="441.9" x2="-395.7" y2="444.3"/>
	<path class="st0" d="M-399.7,449.5c1.4,0.9,3.1,1.5,4.9,1.5c5,0,9-4,9-9c0-5-4-9-9-9c-1.8,0-3.5,0.6-4.9,1.5"/>
</g>
<g class="st1">
	<circle class="st0" cx="-402.2" cy="471.9" r="3.5"/>
	<line class="st0" x1="-398.5" y1="471.9" x2="-390.5" y2="471.9"/>
	<line class="st0" x1="-392.2" y1="471.9" x2="-392.2" y2="475.4"/>
	<line class="st0" x1="-395.7" y1="471.9" x2="-395.7" y2="474.3"/>
	<path class="st0" d="M-399.7,479.5c1.4,0.9,3.1,1.5,4.9,1.5c5,0,9-4,9-9c0-5-4-9-9-9c-1.8,0-3.5,0.6-4.9,1.5"/>
</g>
</svg>
