<?xml version="1.0" encoding="utf-8"?>
<!-- Generator: Adobe Illustrator 16.0.0, SVG Export Plug-In . SVG Version: 6.00 Build 0)  -->
<!DOCTYPE svg PUBLIC "-//W3C//DTD SVG 1.1//EN" "http://www.w3.org/Graphics/SVG/1.1/DTD/svg11.dtd">
<svg version="1.1" id="Слой_1" xmlns="http://www.w3.org/2000/svg" xmlns:xlink="http://www.w3.org/1999/xlink" x="0px" y="0px"
	 width="150px" height="150px" viewBox="0 0 150 150" enable-background="new 0 0 150 150" xml:space="preserve">
<g>
	
		<ellipse fill="none" stroke="#FFFFFF" stroke-width="2" stroke-linecap="round" stroke-miterlimit="10" cx="-400.875" cy="292.125" rx="5.625" ry="5.625"/>
	
		<line fill="none" stroke="#FFFFFF" stroke-width="2" stroke-linecap="round" stroke-miterlimit="10" x1="-396.825" y1="296.1" x2="-393" y2="300"/>
</g>
<g opacity="0.8">
	
		<ellipse fill="none" stroke="#FFFFFF" stroke-width="2" stroke-linecap="round" stroke-miterlimit="10" cx="-400.875" cy="313.875" rx="5.625" ry="5.625"/>
	
		<line fill="none" stroke="#FFFFFF" stroke-width="2" stroke-linecap="round" stroke-miterlimit="10" x1="-396.825" y1="317.85" x2="-393" y2="321.75"/>
</g>
<circle fill="none" stroke="#FFFFFF" stroke-width="2" stroke-miterlimit="10" cx="-366.675" cy="306.15" r="17.625"/>
<path fill="#FFFFFF" d="M-371.85,298.575v15.075c0,0.6,0.675,0.975,1.125,0.6l11.175-7.575c0.45-0.3,0.45-0.899,0-1.2l-11.175-7.574
	C-371.175,297.6-371.85,297.975-371.85,298.575z"/>
<g>
	<g>
		<path fill="#CDCCCC" d="M-308.7,311.55h8.85c0.675,0,1.275,0.601,1.275,1.275l0,0c0,0.675-0.6,1.274-1.275,1.274h-8.85v9.75
			c0,0.676-0.6,1.275-1.275,1.275h-0.225c-0.675,0-1.275-0.6-1.275-1.275v-9.75h-8.7c-0.675,0-1.275-0.6-1.275-1.274l0,0
			c0-0.675,0.6-1.275,1.275-1.275h8.7v-9.375c0-0.675,0.6-1.274,1.275-1.274h0.225c0.675,0,1.275,0.6,1.275,1.274V311.55z"/>
	</g>
</g>
<circle fill="none" stroke="#CDCCCC" stroke-miterlimit="10" cx="-309.975" cy="313.05" r="24.3"/>
<g>
	<path fill="#FFFFFF" d="M-399.525,362.4c-0.15,0-0.3-0.075-0.375-0.15c-0.15-0.15-0.225-0.375-0.15-0.525l1.275-4.274
		c0.075-0.3,0.375-0.45,0.675-0.375c0.3,0.075,0.45,0.375,0.375,0.675l-0.975,3.375l3.375-0.975c0.3-0.075,0.6,0.074,0.675,0.375
		c0.075,0.3-0.075,0.6-0.375,0.675l-4.275,1.274C-399.45,362.4-399.45,362.4-399.525,362.4z"/>
	<path fill="#FFFFFF" d="M-399.075,359.85l-0.45,1.575c-0.075,0.15,0,0.3,0.075,0.375c0.075,0.075,0.15,0.15,0.3,0.15h0.075
		l1.575-0.45L-399.075,359.85z"/>
	<g>
		<polygon fill="#FFFFFF" points="-397.95,357.975 -396.375,358.725 -395.7,360.225 -389.625,354.15 -391.875,351.9 		"/>
		<polygon fill="#FFFFFF" points="-389.625,354.15 -395.7,360.225 -394.875,361.05 -388.8,354.975 		"/>
		<polygon fill="#FFFFFF" points="-391.875,351.9 -392.55,351.225 -398.7,357.225 -397.95,357.975 		"/>
	</g>
	<polygon fill="#FFFFFF" points="-388.2,354.375 -392.025,350.625 -391.125,349.8 -387.375,353.55 	"/>
	<path fill="#FFFFFF" d="M-386.925,352.95l-3.6-3.601l0.525-0.6c0.525-0.525,1.275-0.525,1.8,0l1.8,1.8
		c0.525,0.525,0.525,1.275,0,1.8L-386.925,352.95z"/>
</g>
<circle fill="none" stroke="#FFFFFF" stroke-miterlimit="10" cx="-393" cy="355.425" r="12.75"/>
<line fill="none" stroke="#CCCCCC" stroke-miterlimit="10" x1="-406.5" y1="377.025" x2="-394.875" y2="388.65"/>
<line fill="none" stroke="#CCCCCC" stroke-miterlimit="10" x1="-394.875" y1="377.025" x2="-406.5" y2="388.65"/>
<g>
	
		<circle fill="none" stroke="#FFFFFF" stroke-width="2" stroke-linecap="round" stroke-miterlimit="10" cx="-404.4" cy="402.675" r="2.625"/>
	
		<line fill="none" stroke="#FFFFFF" stroke-width="2" stroke-linecap="round" stroke-miterlimit="10" x1="-401.625" y1="402.675" x2="-395.625" y2="402.675"/>
	
		<line fill="none" stroke="#FFFFFF" stroke-width="2" stroke-linecap="round" stroke-miterlimit="10" x1="-396.9" y1="402.675" x2="-396.9" y2="405.3"/>
	
		<line fill="none" stroke="#FFFFFF" stroke-width="2" stroke-linecap="round" stroke-miterlimit="10" x1="-399.525" y1="402.675" x2="-399.525" y2="404.475"/>
	<path fill="none" stroke="#FFFFFF" stroke-width="2" stroke-linecap="round" stroke-miterlimit="10" d="M-402.525,408.375
		c1.05,0.675,2.325,1.125,3.675,1.125c3.75,0,6.75-3,6.75-6.75s-3-6.75-6.75-6.75c-1.35,0-2.625,0.45-3.675,1.125"/>
</g>
<g opacity="0.8">
	
		<circle fill="none" stroke="#FFFFFF" stroke-width="2" stroke-linecap="round" stroke-miterlimit="10" cx="-404.4" cy="425.175" r="2.625"/>
	
		<line fill="none" stroke="#FFFFFF" stroke-width="2" stroke-linecap="round" stroke-miterlimit="10" x1="-401.625" y1="425.175" x2="-395.625" y2="425.175"/>
	
		<line fill="none" stroke="#FFFFFF" stroke-width="2" stroke-linecap="round" stroke-miterlimit="10" x1="-396.9" y1="425.175" x2="-396.9" y2="427.8"/>
	
		<line fill="none" stroke="#FFFFFF" stroke-width="2" stroke-linecap="round" stroke-miterlimit="10" x1="-399.525" y1="425.175" x2="-399.525" y2="426.975"/>
	<path fill="none" stroke="#FFFFFF" stroke-width="2" stroke-linecap="round" stroke-miterlimit="10" d="M-402.525,430.875
		c1.05,0.675,2.325,1.125,3.675,1.125c3.75,0,6.75-3,6.75-6.75s-3-6.75-6.75-6.75c-1.35,0-2.625,0.45-3.675,1.125"/>
</g>
<g opacity="0.6">
	
		<polyline fill="none" stroke="#FFFFFF" stroke-width="2" stroke-linecap="round" stroke-linejoin="round" stroke-miterlimit="10" points="
		-357.021,428.746 -357.021,411.507 -377.889,411.507 -377.889,428.746 	"/>
	
		<line fill="none" stroke="#FFFFFF" stroke-width="2" stroke-linecap="round" stroke-linejoin="round" stroke-miterlimit="10" x1="-367.455" y1="428.746" x2="-367.455" y2="416.139"/>
	<path fill="none" stroke="#FFFFFF" stroke-width="2" stroke-linecap="round" stroke-linejoin="round" stroke-miterlimit="10" d="
		M-371.759,422l4.304-5.861l4.304,5.861"/>
</g>
</svg>
